<svg width="20" height="20" viewBox="0 0 20 20" fill="none" xmlns="http://www.w3.org/2000/svg">
  <g clip-path="url(#clip0_1660_8282)">
    <path fill-rule="evenodd" clip-rule="evenodd" d="M0.625 0C0.279822 0 0 0.279822 0 0.625V2.375C0 2.72018 0.279822 3 0.625 3H19.375C19.7202 3 20 2.72018 20 2.375V0.625C20 0.279822 19.7202 0 19.375 0H0.625ZM1.99999 4.66667C1.99999 4.29848 2.29847 4 2.66666 4H17.3333C17.7015 4 18 4.29848 18 4.66667V19.3333C18 19.7015 17.7015 20 17.3333 20H2.66666C2.29847 20 1.99999 19.7015 1.99999 19.3333V4.66667ZM7.99999 7H12V9H7.99999V7Z" fill="black" />
  </g>
  <defs>
    <clipPath id="clip0_1660_8282">
      <rect width="20" height="20" fill="white" />
    </clipPath>
  </defs>
</svg>
