<?xml version="1.0" encoding="UTF-8"?>
<svg width="24px" height="24px" viewBox="0 0 24 24" version="1.1" xmlns="http://www.w3.org/2000/svg" xmlns:xlink="http://www.w3.org/1999/xlink">
    <!-- Generator: Sketch 51.3 (57544) - http://www.bohemiancoding.com/sketch -->
    <title>ic-audit-trail</title>
    <desc>Created with Sketch.</desc>
    <defs></defs>
    <g id="Page-3" stroke="none" stroke-width="1" fill="none" fill-rule="evenodd">
        <g id="Desktop-HD" transform="translate(-1228.000000, -513.000000)">
            <g id="ic-audit-trail" transform="translate(1228.000000, 513.000000)">
                <rect id="Rectangle-7" fill-opacity="0.01" fill="#FFFFFF" x="0" y="0" width="24" height="24"></rect>
                <path d="M18.8609018,9.81493458 C18.759215,10.0448927 18.5434852,10.2338388 18.2498468,10.0956168 C17.1923518,9.60182463 15.465942,9.1543618 14.3818099,9.17951987 C13.9834446,9.18876504 13.8406601,8.98935865 13.7925459,8.51556773 C13.6718122,7.33803915 13.3938583,5.89027899 13.8764098,4.21372896 C14.9566347,0.457761318 16.790644,-0.255971921 17.9886437,0.0704527494 C19.1866435,0.39687742 21.9020842,2.94437664 18.8609018,9.81493458 Z M13.3890651,11.0300568 L17.6957334,12.5411907 C17.6957334,12.5411907 17.5391165,13.2263913 17.1887934,14.2776301 C16.6091355,16.0173971 15.410563,16.9165109 13.9542736,16.3855834 C12.2279552,15.757008 12.0991268,14.4368783 12.6800969,12.6973904 C13.0312127,11.6456491 13.3890651,11.0300568 13.3890651,11.0300568 Z M7.29387964,7.17605206 C8.53357878,7.10649467 10.1791319,8.18529044 10.4548441,12.0837853 C10.5782774,13.8240326 10.0053861,15.1830265 9.64246545,16.3090687 C9.4962239,16.7618479 9.31576997,16.9272108 8.92802851,16.8359988 C7.87280841,16.585986 6.0910763,16.6640739 4.95401458,16.9278671 C4.63805231,17.0013616 4.4663191,16.7723472 4.41466496,16.5262715 C2.8683952,9.17353034 6.05485133,7.24626566 7.29387964,7.17605206 Z M4.98688539,19.4352141 L9.51366555,18.852507 C9.51366555,18.852507 9.73571133,19.5290511 9.86048619,20.6308138 C10.0671027,22.4537424 9.66661552,23.7175871 7.84731675,23.9735059 C6.31245114,24.1900524 5.32766849,23.0613853 5.1217228,21.239113 C4.99828956,20.1380063 4.98688539,19.4352141 4.98688539,19.4352141 Z" id="Combined-Shape" fill="#000000" fill-rule="nonzero"></path>
            </g>
        </g>
    </g>
</svg>