<svg xmlns="http://www.w3.org/2000/svg" xmlns:xlink="http://www.w3.org/1999/xlink" width="154" height="168" viewBox="0 0 154 168">
    <defs>
        <circle id="a" cx="19" cy="19" r="19"/>
    </defs>
    <g fill="none" fill-rule="evenodd">
        <path fill="#D7DEF9" d="M132.338 132.11c-22.607 17.522-24.267 3.736-52.826 3.736C50.954 135.846 8 125.356 8 96.68 8 68.004 50.954 32 79.512 32c38.678 0 20.097 35.683 44.935 44.964 34.01 12.707 20.68 45.23 7.891 55.146z"/>
        <path fill="#3F58EF" d="M46 64h62v83H46z"/>
        <path fill="#FFF" d="M50 73h54v5H50zM50 84h54v5H50zM50 95h54v5H50zM50 106h54v5H50zM50 117h54v5H50zM50 129h42v5H50z"/>
        <g transform="translate(23 22)">
            <mask id="b" fill="#fff">
                <use xlink:href="#a"/>
            </mask>
            <use fill="#FFF" xlink:href="#a"/>
            <g mask="url(#b)">
                <path fill="#000" d="M20.463 4.428s4.685-1.547 7.421 3.426c2.594 4.71 1.722 5.958 4.017 7.783 2.295 1.825 6.557.39 7.28 6.472.724 6.083-1.73 10.727 2.72 11.393 4.448.665 5.455 13.022 3.572 17.31-2.428 5.545-7.562 8.58-15.495 11.8-9.394 3.8-26.92 5.522-34.374-.124-7.454-5.646-12.658-10.692-11.619-17.701 1.256-8.458 19.188-5.1 16.18-12.694-3.007-7.594-2.628-9.11 5.943-13.2 8.57-4.09 7.592-7.531 8.83-10.913 1.237-3.382 5.525-3.552 5.525-3.552z"/>
                <path fill="#FFF" d="M20.87 25.398l1.622-9.302c.263-.522.411-.87.411-.87s1.524-4.309-.72-5.305c-3.236-1.439-4.943 3.514-4.943 3.514s-2.968 6.67 0 7.426c.432.105.887.072 1.3-.095 0 0 .038 5.654-1.735 5.912-1.772.259-1.855.884-1.855.884l1.02 5.832 6.406-7.065-1.506-.931z"/>
                <path fill="#000" d="M24.977 8.118c.796-.525 1.198-1.376-.08-2.726-2.762-2.92-10.218.414-9.455 3.873.763 3.46-1.022 4.391-1.022 4.391 3.676 1.125 6.54-2.314 7.66-3.951 0 0 .389 4.466 1.757 5.774 1.368 1.308 2.084-.678 2.543-2.109.385-1.208-.085-3.914-1.403-5.252z"/>
                <path fill="#3F58EF" d="M16.497 26.71l-.327 5.9 6.206-6.28s3.94-1.321 6.5 2.085c0 0-11.998 15.079-12.249 21.2-.251 6.12 0 6.755 0 6.755l-8.696.74s-.502-22.182 1.408-26.194c1.91-4.012 7.158-4.205 7.158-4.205z"/>
                <path fill="#FFF" d="M28.88 28.415l-2.618 3.49s.221 6.05 1.602 10.544c-3.816.035-11.885.322-16.96 2.009 0 0-2.873-3.455-5.32-2.639-2.448.816-1.904 1.36-1.565 1.973.34.613.206 2.651 1.974 2.787 1.767.136 4.91.638 4.91.638s15.314 1.737 21.06-.013c5.125-.567-3.082-18.789-3.082-18.789z"/>
                <path fill="#FFF" d="M9.919 29.937l.603 5.046a39.824 39.824 0 0 0-3.09 7.461c3.813.035 11.881.322 16.958 2.009 0 0 2.872-3.455 5.32-2.639 2.447.816 1.902 1.36 1.563 1.973-.339.613-.203 2.651-1.97 2.787-1.768.136-4.918.625-4.918.625S9.07 48.936 3.326 47.187c-5.121-.55 6.593-17.25 6.593-17.25z"/>
            </g>
            <circle cx="19" cy="19" r="19" stroke="#4668E0" stroke-width="2"/>
        </g>
        <path fill="#4668E0" d="M77.364 89a.638.638 0 0 1-.51-.253L53.127 58.014a.63.63 0 0 1 .127-.887.642.642 0 0 1 .894.127l23.723 30.732a.63.63 0 0 1 .06.664.639.639 0 0 1-.57.35h.002z"/>
    </g>
</svg>
