<?xml version="1.0"?>
<svg width="16" height="16" xmlns="http://www.w3.org/2000/svg" xmlns:svg="http://www.w3.org/2000/svg">
 <defs>
  <clipPath id="chy4hpj0ya">
   <path d="m0,0l16,0l0,16l-16,0l0,-16z" fill="#fff" id="svg_1"/>
  </clipPath>
 </defs>
 <g class="layer">
  <title>Layer 1</title>
  <g clip-path="url(#chy4hpj0ya)" id="svg_2">
   <path clip-rule="evenodd" d="m2.23,0.56c-0.92,0 -1.67,0.75 -1.67,1.67l0,9.54c0,0.92 0.75,1.67 1.67,1.67l0.33,0l0,0.33c0,0.92 0.75,1.67 1.67,1.67l9.54,0c0.92,0 1.67,-0.75 1.67,-1.67l0,-9.54c0,-0.92 -0.75,-1.67 -1.67,-1.67l-0.33,0l0,-0.33c0,-0.92 -0.75,-1.67 -1.67,-1.67l-9.54,0zm1.21,13.21l0,-0.33l8.33,0c0.92,0 1.67,-0.75 1.67,-1.67l0,-8.33l0.33,0c0.44,0 0.79,0.35 0.79,0.79l0,9.54a0.79,0.79 0 0 1 -0.79,0.79l-9.54,0a0.79,0.79 0 0 1 -0.79,-0.79zm-2,-11.54c0,-0.44 0.36,-0.79 0.79,-0.79l9.54,0c0.43,0 0.79,0.35 0.79,0.79l0,9.54a0.79,0.79 0 0 1 -0.79,0.79l-9.54,0a0.79,0.79 0 0 1 -0.79,-0.79l0,-9.54zm4.45,6.45l-0.09,0.09l-0.1,-0.09a1.99,1.99 0 0 1 -0.18,-0.19l-0.51,-0.53c-0.39,-0.42 -0.78,-0.83 -1.18,-1.24c-0.24,-0.24 -0.5,-0.27 -0.7,-0.03c-0.2,0.24 -0.15,0.49 0.02,0.73c0.04,0.04 0.08,0.09 0.13,0.13c0.67,0.71 1.34,1.41 2.02,2.12c0.42,0.44 0.6,0.44 1.02,0c1.49,-1.58 2.98,-3.16 4.47,-4.75l0.04,-0.04c0.08,-0.08 0.17,-0.17 0.17,-0.25c0.01,-0.18 -0.01,-0.44 -0.12,-0.54c-0.1,-0.1 -0.34,-0.1 -0.51,-0.07c-0.09,0.01 -0.17,0.1 -0.25,0.19l-0.06,0.06l-3.99,4.23c-0.05,0.06 -0.11,0.12 -0.18,0.18z" fill="#707070" fill-rule="evenodd" id="svg_3"/>
  </g>
 </g>
</svg>