<svg xmlns="http://www.w3.org/2000/svg" width="24" height="24" viewBox="0 0 24 24">
    <path fill="#586AF2" fill-rule="nonzero" d="M4.249 22.083h18.075c.369 0 .668.322.668.72 0 .396-.3.718-.668.718H3.614c-.368 0-.667-.322-.667-.719 0-.237.106-.447.27-.578a1.564 1.564 0 0 1-1-.694 1.523 1.523 0 0 1-.237-.849l.2-8.722a1.48 1.48 0 0 1 .289-.847l2.975-4.024a1.527 1.527 0 0 1 1.995-.396l6.276 3.624c.68.392.961 1.22.655 1.925l-1.998 4.59a1.48 1.48 0 0 1-.588.673L4.33 22.038a1.522 1.522 0 0 1-.081.045zm-.033-1.32l6.953-4.23a.37.37 0 0 0 .147-.168l1.998-4.59a.382.382 0 0 0-.163-.48L6.874 7.67a.382.382 0 0 0-.499.1L3.4 11.793a.37.37 0 0 0-.073.212l-.19 8.317 3.625-6.28a1.89 1.89 0 0 1-.299-2.261c.52-.9 1.688-1.2 2.608-.67.92.532 1.244 1.693.724 2.593a1.887 1.887 0 0 1-2.02.893l-3.559 6.164zm6.53-19.554l6.064 3.5a1.5 1.5 0 0 1 .549 2.05l-1.136 1.968a1.5 1.5 0 0 1-2.05.549L8.11 5.775a1.5 1.5 0 0 1-.55-2.05l1.137-1.967a1.5 1.5 0 0 1 2.05-.549z"/>
</svg>
