<svg width="16" height="16" viewBox="0 0 16 16" fill="none" xmlns="http://www.w3.org/2000/svg">
<path d="M12.6448 0C13.0308 0 13.401 0.153357 13.674 0.426333C13.947 0.69931 14.1003 1.06955 14.1003 1.45559V10.1892C14.1003 10.5752 13.947 10.9454 13.674 11.2184C13.401 11.4914 13.0308 11.6448 12.6448 11.6448H11.1892V13.1003C11.1892 13.4864 11.0358 13.8566 10.7628 14.1296C10.4898 14.4026 10.1196 14.5559 9.73356 14.5559H2.45559C2.06955 14.5559 1.69931 14.4026 1.42633 14.1296C1.15336 13.8566 1 13.4864 1 13.1003V4.36678C1 3.98073 1.15336 3.6105 1.42633 3.33752C1.69931 3.06454 2.06955 2.91119 2.45559 2.91119H3.91119V1.45559C3.91119 1.06955 4.06454 0.69931 4.33752 0.426333C4.6105 0.153357 4.98073 0 5.36678 0H12.6448ZM9.73356 4.36678H2.45559V13.1003H9.73356V4.36678ZM12.6448 1.45559H5.36678V2.91119H9.73356C10.1196 2.91119 10.4898 3.06454 10.7628 3.33752C11.0358 3.6105 11.1892 3.98073 11.1892 4.36678V10.1892H12.6448V1.45559Z" fill="black"/>
</svg>
