<?xml version="1.0" encoding="UTF-8"?>
<svg width="24px" height="24px" viewBox="0 0 24 24" version="1.1" xmlns="http://www.w3.org/2000/svg" xmlns:xlink="http://www.w3.org/1999/xlink">
    <!-- Generator: Sketch 51.3 (57544) - http://www.bohemiancoding.com/sketch -->
    <title>ic-change-signer-white</title>
    <desc>Created with Sketch.</desc>
    <defs></defs>
    <g id="Page-3" stroke="none" stroke-width="1" fill="none" fill-rule="evenodd">
        <g id="Desktop-HD" transform="translate(-771.000000, -436.000000)" fill="#FFFFFF">
            <g id="ic-change-signer-white" transform="translate(771.000000, 436.000000)">
                <rect id="Rectangle-21" fill-opacity="0.01" x="0" y="0" width="24" height="24"></rect>
                <g id="Group-7" transform="translate(0.000000, 1.000000)" fill-rule="nonzero">
                    <path d="M14.6018182,14.1818182 C17.449091,14.1818182 23.0716363,15.5792727 23.3203637,18.3545454 L23.329091,18.5454546 L23.329091,19.6363636 L23.3214546,19.762909 C23.2636363,20.2625454 22.8632727,20.6618182 22.3647273,20.7196364 L22.2381818,20.7272727 L6.54545454,20.7272727 C5.98909091,20.7272727 5.52545454,20.304 5.46218183,19.762909 L5.45454546,19.6363636 L5.45454546,18.5454546 C5.45454546,15.6436363 11.2690909,14.1818182 14.1818182,14.1818182 L14.3912727,14.1850909 L14.6018182,14.1818182 Z M14.1818182,3.27272727 C16.5927273,3.27272727 18.5454546,5.22545454 18.5454546,7.63636363 C18.5454546,10.0472727 16.5927273,12 14.1818182,12 C11.7709091,12 9.81818182,10.0472727 9.81818182,7.63636363 C9.81818182,5.22545454 11.7709091,3.27272727 14.1818182,3.27272727 Z" id="Shape"></path>
                    <path d="M8.51345454,10.9112727 C8.9091532,11.5941995 9.42466077,12.2002442 10.0352727,12.7003636 C7.27636363,13.3734545 3.75272727,15.0218183 3.22254546,17.4545454 L1.09090909,17.4545454 C0.534545454,17.4545454 0.0709090909,17.0312727 0.00763636363,16.4901818 L0,16.3636364 L0,15.2727273 C0,12.4996364 5.30945454,11.0421818 8.32254546,10.9178182 L8.51345454,10.9112727 Z M8.72727273,3.05210365e-14 C10.0254545,3.05210365e-14 11.1927273,0.567272727 11.9912727,1.46727273 C9.03882236,2.51553066 7.24321248,5.50897605 7.70836364,8.60727273 C5.55264069,8.09588462 4.12256723,6.04986897 4.38302031,3.84968184 C4.64347338,1.6494947 6.51173163,-0.00607203831 8.72727273,3.05210365e-14 Z" id="Shape"></path>
                </g>
            </g>
        </g>
    </g>
</svg>