<svg xmlns="http://www.w3.org/2000/svg" width="24" height="24" viewBox="0 0 24 24">
    <g fill="none" fill-rule="evenodd" transform="translate(1.5 1.5)">
        <rect width="19.5" height="19.5" x=".75" y=".75" stroke="#000" stroke-opacity=".56" stroke-width="1.5" rx="2"/>
        <path fill="#000" fill-opacity=".56" d="M8.5 13.283c.163-.156.301-.282.432-.415l6.421-6.45c.148-.15.306-.364.485-.393.272-.042.658-.047.828.111.17.158.197.544.187.823 0 .155-.204.318-.337.451-2.396 2.417-4.793 4.83-7.19 7.239-.675.68-.952.68-1.631 0a1523.972 1523.972 0 0 1-3.25-3.225 2.725 2.725 0 0 1-.201-.209c-.282-.359-.352-.74-.037-1.106.316-.367.743-.33 1.131.046.915.888 1.808 1.798 2.71 2.698.132.153.275.265.452.43z"/>
    </g>
</svg>
