<svg xmlns="http://www.w3.org/2000/svg" width="24" height="24" viewBox="0 0 24 24">
    <path fill="#586AF2" fill-rule="nonzero" d="M2.435 8.403v11.684c0 .264.214.478.478.478h18.174a.478.478 0 0 0 .478-.478V8.403H2.435zM8.333 3.83V2.687a.688.688 0 0 1 1.375 0V3.83h5.042V2.687a.687.687 0 1 1 1.375 0V3.83h4.962c1.057 0 1.913.856 1.913 1.912v14.345A1.913 1.913 0 0 1 21.087 22H2.913A1.913 1.913 0 0 1 1 20.087V5.742c0-1.056.856-1.912 1.913-1.912h5.42zm-2.072 9.272a1.435 1.435 0 1 1 0-2.87 1.435 1.435 0 0 1 0 2.87zm0 4.782a1.435 1.435 0 1 1 0-2.87 1.435 1.435 0 0 1 0 2.87zM12 13.102a1.435 1.435 0 1 1 0-2.87 1.435 1.435 0 0 1 0 2.87zm0 4.782a1.435 1.435 0 1 1 0-2.87 1.435 1.435 0 0 1 0 2.87zm5.74-4.782a1.435 1.435 0 1 1-.001-2.87 1.435 1.435 0 0 1 0 2.87zm0 4.782a1.435 1.435 0 1 1-.001-2.87 1.435 1.435 0 0 1 0 2.87z"/>
</svg>
