<svg width="18" height="18" viewBox="0 0 18 18" fill="none" xmlns="http://www.w3.org/2000/svg">
<path d="M16.8563 3.28582H13.9992V1.5001C13.9992 0.712158 13.3585 0.0715332 12.5706 0.0715332H5.42773C4.63979 0.0715332 3.99916 0.712158 3.99916 1.5001V3.28582H1.14202C0.746931 3.28582 0.427734 3.60502 0.427734 4.00011V4.71439C0.427734 4.8126 0.508092 4.89296 0.606306 4.89296H1.95452L2.50586 16.5671C2.54157 17.3282 3.17104 17.9287 3.9322 17.9287H14.0661C14.8295 17.9287 15.4568 17.3305 15.4925 16.5671L16.0438 4.89296H17.392C17.4902 4.89296 17.5706 4.8126 17.5706 4.71439V4.00011C17.5706 3.60502 17.2514 3.28582 16.8563 3.28582ZM12.392 3.28582H5.60631V1.67868H12.392V3.28582Z" fill="black"/>
</svg>
