<?xml version="1.0" encoding="UTF-8"?>
<svg width="24px" height="24px" viewBox="0 0 24 24" version="1.1" xmlns="http://www.w3.org/2000/svg" xmlns:xlink="http://www.w3.org/1999/xlink">
    <!-- Generator: Sketch 51.3 (57544) - http://www.bohemiancoding.com/sketch -->
    <title>ic-delete-01</title>
    <desc>Created with Sketch.</desc>
    <defs></defs>
    <g id="Page-3" stroke="none" stroke-width="1" fill="none" fill-rule="evenodd">
        <g id="Desktop-HD" transform="translate(-675.000000, -205.000000)">
            <g id="ic-delete-01" transform="translate(675.000000, 205.000000)">
                <rect id="Rectangle-13" fill-opacity="0.01" fill="#FFFFFF" x="0" y="0" width="24" height="24"></rect>
                <path d="M4.34693879,21.3333333 C4.34693879,22.8 5.55918368,24 7.04081633,24 L17.8163264,24 C19.2979593,24 20.5102041,22.8 20.5102041,21.3333333 L20.5102041,8.00000001 C20.5102041,6.53333334 19.2979593,5.33333334 17.8163264,5.33333334 L7.04081633,5.33333334 C5.55918368,5.33333334 4.34693879,6.53333334 4.34693879,8.00000001 L4.34693879,21.3333333 Z M20.5102041,1.33333333 L17.1428572,1.33333333 L16.1865308,0.386666671 C15.9440816,0.146666668 15.5938776,0 15.2436736,0 L9.61346939,0 C9.26326531,0 8.91306122,0.146666668 8.67061225,0.386666671 L7.71428572,1.33333333 L4.34693879,1.33333333 C3.60612245,1.33333333 3,1.93333334 3,2.66666668 C3,3.4 3.60612245,4 4.34693879,4 L20.5102041,4 C21.2510204,4 21.8571429,3.4 21.8571429,2.66666668 C21.8571429,1.93333334 21.2510204,1.33333333 20.5102041,1.33333333 Z" id="Shape" fill="#000000" fill-rule="nonzero"></path>
            </g>
        </g>
    </g>
</svg>