<svg xmlns="http://www.w3.org/2000/svg" width="24" height="24" viewBox="0 0 24 24">
    <g fill="none" fill-rule="evenodd">
        <path d="M0 0h24v24H0z"/>
        <path fill="#000" fill-opacity=".24" fill-rule="nonzero" d="M18.4 6H5.6c-.88 0-1.592.731-1.592 1.625L4 17.375C4 18.269 4.72 19 5.6 19h12.8c.88 0 1.6-.731 1.6-1.625v-9.75C20 6.731 19.28 6 18.4 6zm-.32 3.453l-5.656 3.591a.798.798 0 0 1-.848 0L5.92 9.454a.698.698 0 0 1-.32-.586.68.68 0 0 1 1.04-.585L12 11.688l5.36-3.405a.68.68 0 0 1 1.04.585c0 .236-.12.455-.32.585z"/>
    </g>
</svg>
