<svg width="18" height="18" viewBox="0 0 18 18" fill="none" xmlns="http://www.w3.org/2000/svg">
<path d="M17.2151 16.2322H0.786551C0.391462 16.2322 0.0722656 16.5514 0.0722656 16.9465V17.7501C0.0722656 17.8483 0.152623 17.9287 0.250837 17.9287H17.7508C17.8491 17.9287 17.9294 17.8483 17.9294 17.7501V16.9465C17.9294 16.5514 17.6102 16.2322 17.2151 16.2322ZM3.3245 14.3572C3.36914 14.3572 3.41378 14.3528 3.45843 14.3461L7.21289 13.6876C7.25753 13.6787 7.29994 13.6586 7.33119 13.6251L16.7932 4.16305C16.8139 4.1424 16.8304 4.11787 16.8416 4.09087C16.8528 4.06387 16.8585 4.03492 16.8585 4.00569C16.8585 3.97645 16.8528 3.9475 16.8416 3.9205C16.8304 3.8935 16.8139 3.86897 16.7932 3.84832L13.0834 0.136265C13.041 0.0938547 12.9852 0.0715332 12.9249 0.0715332C12.8647 0.0715332 12.8089 0.0938547 12.7665 0.136265L3.30441 9.59832C3.27093 9.6318 3.25084 9.67198 3.24191 9.71662L2.58343 13.4711C2.56171 13.5907 2.56947 13.7137 2.60603 13.8296C2.64259 13.9455 2.70685 14.0508 2.79325 14.1363C2.94057 14.2791 3.12584 14.3572 3.3245 14.3572Z" fill="black"/>
</svg>
