<svg xmlns="http://www.w3.org/2000/svg" width="62" height="68" viewBox="0 0 62 68">
    <g fill="none" fill-rule="evenodd">
        <g>
            <g>
                <path fill="#D7DEF9" d="M53.23 53.631c-11.987 9.258-14.238 6.679-23.83 6.274-9.592-.405-26.634-1.738-21.146-22.362.781-2.936 3.109-6.436 9.607-12.166 6.57-5.793 6.786-12.02 13.139-13.47 6.128-1.4 12.39-.683 19.007 6.574 3.962 4.345 5.472 7.01 7.248 10.244 3.09 5.626 1.479 20.656-4.024 24.906z" transform="translate(-1357 -359) translate(1357 359)"/>
                <path fill="#FFF" d="M22.749 41.493L42.019 41.493 52.593 50.19 13.621 50.19z" transform="translate(-1357 -359) translate(1357 359)"/>
                <path fill="#D7DEF9" d="M27.375 43.064L22.672 49.164 43.451 49.164 38.461 43.064z" transform="translate(-1357 -359) translate(1357 359)"/>
                <path fill="#000" d="M29.342 43.714L37.688 43.714 37.761 43.815 29.342 43.815zM26.403 47.762L39.64 47.762 40.049 48.369 25.896 48.369z" opacity=".09" transform="translate(-1357 -359) translate(1357 359)"/>
                <path fill="#FFF" d="M48.738 33.411c-.133-.593.195-1.326.985-2.2.79-.875 1.07-.74.84.407l.852-.792c.552-.618 1.13-.802 1.735-.551.906.376 1.199.75 0 1.637-.8.591-1.782 1.763-2.948 3.516l-1.464-2.017z" transform="translate(-1357 -359) translate(1357 359)"/>
                <path fill="#3F58EF" d="M39.125 41.493l1.085-5.473 1.863 2.393 1.205 1.362 1.201.682c1.242-.472 2.559-1.28 3.95-2.423 1.392-1.144 2.333-2.306 2.823-3.487l-2.899-1.862c-1.076 1.46-2.07 2.559-2.98 3.295-.55.275-1.352-2.905-4.451-5.723-2.066-1.879-4.792-2.82-8.178-2.822l-2.99-.092c-4.643 1.212-7.969 4.45-9.98 9.714-1.887 4.908 2.62 7.667 5.073 7.667 1.635 0 1.796-1.077.481-3.23h13.797z" transform="translate(-1357 -359) translate(1357 359)"/>
                <path fill="#FFF" d="M31.964 26.714c.705 0 2.66-.776 2.66-3.249s-.044-4.441-2.484-4.441-2.75 1.355-2.75 3.845 1.869 3.845 2.574 3.845z" transform="translate(-1357 -359) translate(1357 359)"/>
                <path fill="#000" d="M35.413 21.465c-.19.272-1.007.726-2.149 0-1.77-1.125-2.423-.2-3.322-1.007-.793-.712 1.716-3.586 3.922-1.493 1.446 1.37 1.634.571 1.92 1.245.175.413-.182.984-.371 1.255z" transform="translate(-1357 -359) translate(1357 359)"/>
                <path fill="#FFF" d="M31.447 25.484c.038.82-.111 1.44-.447 1.859.447 1.286 1.064 1.804 1.33 1.804.726-.322.817-.903 1.14-1.373 0-.295-.39-.445-.471-1.825-.004-.064-.032-.405 0-.465.314-.593-.203-.593-1.552 0z" transform="translate(-1357 -359) translate(1357 359)"/>
                <path fill="#FFF" fill-rule="nonzero" d="M24.686 35.557c.03.016.04.052.025.082l-.4.768-.225.44-.191.383-.12.25-.102.216-.082.183-.044.103-.05.127-.011.035-.018.059c-.006.025-.01.045-.01.059 0 .124.15.344.413.614l.12.118.133.124c.092.084.194.171.303.26l.168.135.18.137.19.138c.065.047.131.093.199.14l.208.137c.07.046.143.092.216.138l.224.135.114.066c.03.017.04.054.023.083-.017.03-.054.04-.082.023-.198-.113-.388-.23-.57-.348l-.213-.142-.204-.143-.194-.142-.184-.141-.173-.14c-.614-.506-.991-.96-.991-1.192 0-.017.003-.04.01-.067l.017-.062.026-.077.034-.09.044-.106.052-.12.13-.285.122-.251.193-.388.168-.33.325-.627.145-.277c.013-.024.039-.036.064-.031l.018.006zM39.092 34.354c.028-.018.066-.01.084.018l.128.201.253.392.125.192.249.372.122.181.243.353.24.34.236.327.232.313c.077.102.153.202.23.3l.225.288.111.138.22.268c1.02 1.217 1.925 2.006 2.714 2.365.03.014.044.05.03.08-.013.03-.05.044-.08.03-.747-.34-1.59-1.05-2.53-2.132l-.218-.256-.222-.27c-.038-.045-.075-.092-.113-.139l-.227-.289c-.114-.148-.23-.3-.347-.458l-.236-.322-.119-.166-.241-.342-.122-.176-.246-.361-.25-.375-.253-.388-.256-.4c-.018-.029-.01-.066.018-.084z" transform="translate(-1357 -359) translate(1357 359)"/>
                <path fill="#000" d="M25.963 38.238c-.153-.659-.04-1.047.338-1.163.379-.116.687.09.925.62l2.594 7.547-.334 1.073-1.056-.645-2.467-7.432z" transform="translate(-1357 -359) translate(1357 359)"/>
                <path fill="#FFF" d="M25.896 40.457c1.123 0 1.39.198 2.534.198s1.434 1.156 1.746 2.527c.31 1.371-2.376 1.542-5.332 1.542-.838-1.532-.062-3.474 1.052-4.267z" transform="translate(-1357 -359) translate(1357 359)"/>
                <path fill="#FFF" fill-rule="nonzero" d="M47.307 34.076c.955.961 1.914 1.713 2.877 2.255l.192.106-.057.107c-.973-.52-1.942-1.25-2.905-2.19l-.192-.192.085-.086zM24.457 39.435c.028-.018.066-.01.084.017.019.028.011.065-.016.084-1.626 1.099-1.984 2.712-1.071 4.861.013.03-.002.067-.032.08-.031.013-.066-.001-.08-.032-.933-2.2-.562-3.876 1.115-5.01z" transform="translate(-1357 -359) translate(1357 359)"/>
                <path fill="#000" d="M29.799 19.977L31 19.429h-.356c.197.112.091.422-.317.93-.612.762-.296 1.498-.937 1.498 0-1.012.136-1.639.409-1.88zM30.291 35.114H34.156V39.971H30.291z" transform="translate(-1357 -359) translate(1357 359)"/>
                <path fill="#000" fill-rule="nonzero" d="M31 30.788L32.251 33.756 33.281 30.788 34.098 31.621 32.296 36.472 30.291 31.543z" transform="translate(-1357 -359) translate(1357 359)"/>
                <path fill="#FFF" fill-rule="nonzero" d="M28.536 27.774l1.503 3.943 2.141-2.16.087.002.574.615.416.44.36.37.299.3.15.146.166.154.098.086.052.042.042.03.017.01.026.013.01.001c.01 0 .027-.023.052-.066l.041-.079.025-.05.054-.118.062-.14.104-.25.156-.386.167-.43.17-.454.167-.454.153-.434.103-.3.088-.267.048-.156.04-.134.03-.112c.011-.049.02-.088.022-.116l.002-.024h.12v.024l-.01.066-.009.041-.024.098-.032.117-.04.134-.098.313-.09.266-.135.384-.11.304-.159.42-.151.39-.15.371-.145.342-.068.155-.097.21-.087.176-.027.05-.05.088c-.054.091-.096.142-.123.142-.016 0-.037-.007-.064-.021l-.045-.027-.054-.038-.063-.049-.072-.06-.08-.071-.139-.128-.16-.154-.18-.179-.274-.28-.485-.508-.374-.399-.265-.285-2.228 2.248-1.57-4.119.113-.043zM29.76 45.23c.023-.023.062-.023.085 0 .024.024.024.063 0 .086-.39.394-.868.532-1.428.413-.032-.007-.053-.039-.046-.072.007-.032.039-.053.071-.046.52.11.957-.016 1.318-.38z" transform="translate(-1357 -359) translate(1357 359)"/>
                <path fill="#000" fill-rule="nonzero" d="M37.64 46.33l.05-.083c.048-.087.071-.165.067-.207-.001-.01.178-.23.157-.238h-.13c-.152-.03-.426-.045-.783.034l-.16.038c-.593.148-1.16.442-1.878.485l-.583-.001-.11.058c-.337.173-.472.323-.698.408l-.13.046c-.48.156-.838.113-.838-.325 0-.414.202-.548.883-.609l.298-.02.958-.056.945-.633c-.12.002-.25.007-.387.014l-.21.012c-1.213.082-3.001.512-3.797.838l-.39.156-.336.128-.282.099c-.128.043-.236.074-.324.096-.186.044-.302.053-.409-.005-.244-.132-.182-.339-.03-.512.076-.085.196-.105.292-.056l.055.037.03.037.133-.038.24-.08.294-.108.349-.137.194-.079c.854-.35 2.151-.586 3.413-.671l.22-.014.409-.014c.256-.004.476.002.64.019.187.02.303.048.387.123.222.2.107.381-.092.489l-.222.105-.275.14.048-.004c.285-.034.542-.08.82-.143l.168-.04c1.012-.253 1.564-.141 1.618.367.033.309-.236.807-.46.807-.136 0-.245-.11-.245-.248s.001-.215.136-.215c-.09 0 .022-.07 0-.046l-.036.046z" transform="translate(-1357 -359) translate(1357 359)"/>
                <path fill="#FFF" d="M13.688 51.607L52.338 51.607 52.338 66.583 13.688 66.583z" transform="translate(-1357 -359) translate(1357 359)"/>
                <path fill="#FFF" d="M52.338 51.202v3.11C41.123 62.76 38.748 60.3 29.4 59.905c-4.626-.195-10.984-.607-15.712-3.293v-5.41h38.65z" transform="translate(-1357 -359) translate(1357 359)"/>
            </g>
        </g>
    </g>
</svg>
