<svg width="16" height="16" viewBox="0 0 16 16" fill="none" xmlns="http://www.w3.org/2000/svg">
<path d="M8 0C3.58172 0 0 3.58172 0 8C0 12.4183 3.58172 16 8 16C12.4183 16 16 12.4183 16 8C16 3.58172 12.4183 0 8 0ZM1.99132 8C1.99132 4.68148 4.68152 1.99132 8 1.99132C9.3002 1.99132 10.5039 2.4044 11.4872 3.10634L3.10634 11.4872C2.4044 10.5039 1.99132 9.30023 1.99132 8ZM8 14.0087C6.70058 14.0087 5.49758 13.5962 4.51464 12.895L12.895 4.51467C13.5962 5.49762 14.0087 6.70064 14.0087 8.00003C14.0087 11.3185 11.3185 14.0087 8 14.0087Z" fill="black"/>
</svg>
