<?xml version="1.0" encoding="UTF-8"?>
<svg width="24px" height="24px" viewBox="0 0 24 24" version="1.1" xmlns="http://www.w3.org/2000/svg" xmlns:xlink="http://www.w3.org/1999/xlink">
    <title>ic_gift</title>
    <g id="Symbols" stroke="none" stroke-width="1" fill="none" fill-rule="evenodd">
        <g id="ic_gift">
            <rect id="boundingbox" opacity="0" x="0" y="0" width="24" height="24"></rect>
            <path d="M14.2060044,2.58718696 C14.6358046,2.1889642 15.4227265,2.02070883 16.0257502,2.20694867 C16.8036294,2.44719144 17.1024056,3.16693654 16.755741,4.13052172 C16.4207156,5.06175491 15.5230447,5.85222236 14.0764015,6.51970148 L19.7380116,6.5192805 C20.3618499,6.5192805 20.8675707,6.9882922 20.8675707,7.56684746 L20.8675707,9.47151465 C20.8675707,10.0500699 20.3618499,10.5190816 19.7380116,10.5190816 L19.635,10.518136 L19.6353244,20.3149789 C19.6353244,20.8929836 19.1296036,21.3615491 18.5057654,21.3615491 L5.36180532,21.3615491 C4.73796707,21.3615491 4.23224625,20.8929836 4.23224625,20.3149789 L4.232,10.518136 L4.12955907,10.5190816 C3.50572082,10.5190816 3,10.0500699 3,9.47151465 L3,7.56684746 C3,6.9882922 3.50572082,6.5192805 4.12955907,6.5192805 L9.71435801,6.51970148 C8.26771478,5.85222236 7.37004388,5.06175491 7.03501846,4.13052172 C6.68835391,3.16693654 6.98713007,2.44719144 7.76500926,2.20694867 C8.36803301,2.02070883 9.15495487,2.1889642 9.5847551,2.58718696 C10.0136003,2.98452482 10.7668311,4.1869631 11.8946947,6.25406869 C13.0239284,4.1869631 13.7771592,2.98452482 14.2060044,2.58718696 Z M10.393,10.518136 L5.361,10.518136 L5.36180532,20.3149789 L10.393,20.314136 L10.393,10.518136 Z M18.505,10.518136 L13.474,10.518136 L13.474,20.314136 L18.5057654,20.3149789 L18.505,10.518136 Z M9.777,7.56613601 L4.12955907,7.56684746 L4.12955907,9.47151465 L4.88505525,9.47107401 C5.0299018,9.40850432 5.19144949,9.37356292 5.36180532,9.37356292 L9.777,9.37313601 L9.777,7.56613601 Z M19.7380116,7.56684746 L14.09,7.56613601 L14.09,9.37313601 L18.5057654,9.37356292 C18.67616,9.37356292 18.8377425,9.40852025 18.9826145,9.47111679 L19.7380116,9.47151465 L19.7380116,7.56684746 Z M15.7578518,2.95159644 C15.457695,2.85889504 15.0067695,2.95530949 14.8050435,3.14221463 C14.4925158,3.43178092 13.8463298,4.44898859 12.9052935,6.14783169 C14.6398255,5.49204269 15.6480476,4.72729565 15.9520456,3.8823058 C16.1609921,3.30152032 16.0536577,3.04295412 15.7578518,2.95159644 Z M8.03290771,2.95159644 C7.73710174,3.04295412 7.62976734,3.30152032 7.83871382,3.8823058 C8.14271188,4.72729565 9.150934,5.49204269 10.885466,6.14783169 C9.94442969,4.44898859 9.29824368,3.43178092 8.98571594,3.14221463 C8.78398997,2.95530949 8.33306445,2.85889504 8.03290771,2.95159644 Z" id="shape" fill="#FFFFFF" fill-rule="nonzero"></path>
        </g>
    </g>
</svg>