<?xml version="1.0" encoding="UTF-8"?>
<svg width="24px" height="24px" viewBox="0 0 24 24" version="1.1" xmlns="http://www.w3.org/2000/svg" xmlns:xlink="http://www.w3.org/1999/xlink">
    <!-- Generator: Sketch 51.3 (57544) - http://www.bohemiancoding.com/sketch -->
    <title>ic-help-00</title>
    <desc>Created with Sketch.</desc>
    <defs></defs>
    <g id="Page-3" stroke="none" stroke-width="1" fill="none" fill-rule="evenodd">
        <g id="Desktop-HD" transform="translate(-591.000000, -232.000000)" fill="#000000" fill-rule="nonzero">
            <g id="ic-help-00" transform="translate(591.000000, 232.000000)">
                <path d="M12,0 C5.376,0 0,5.376 0,12 C0,18.624 5.376,24 12,24 C18.624,24 24,18.624 24,12 C24,5.376 18.624,0 12,0 Z M12,21.6 C6.708,21.6 2.4,17.292 2.4,12 C2.4,6.708 6.708,2.4 12,2.4 C17.292,2.4 21.6,6.708 21.6,12 C21.6,17.292 17.292,21.6 12,21.6 Z M10.8,16.8 L13.2,16.8 L13.2,19.2 L10.8,19.2 L10.8,16.8 Z M12.732,4.848 C10.26,4.488 8.076,6.012 7.416,8.196 C7.2,8.892 7.728,9.6 8.46,9.6 L8.7,9.6 C9.192,9.6 9.588,9.252 9.756,8.796 C10.14,7.728 11.28,6.996 12.516,7.26 C13.656,7.5 14.496,8.616 14.4,9.78 C14.28,11.388 12.456,11.736 11.46,13.236 C11.46,13.248 11.448,13.248 11.448,13.26 C11.436,13.284 11.424,13.296 11.412,13.32 C11.304,13.5 11.196,13.704 11.112,13.92 C11.1,13.956 11.076,13.98 11.064,14.016 C11.052,14.04 11.052,14.064 11.04,14.1 C10.896,14.508 10.8,15 10.8,15.6 L13.2,15.6 C13.2,15.096 13.332,14.676 13.536,14.316 C13.56,14.28 13.572,14.244 13.596,14.208 C13.692,14.04 13.812,13.884 13.932,13.74 C13.944,13.728 13.956,13.704 13.968,13.692 C14.088,13.548 14.22,13.416 14.364,13.284 C15.516,12.192 17.076,11.304 16.752,9.012 C16.464,6.924 14.82,5.16 12.732,4.848 Z" id="Shape"></path>
            </g>
        </g>
    </g>
</svg>