<?xml version="1.0"?>
<svg width="64" height="64" xmlns="http://www.w3.org/2000/svg" xmlns:svg="http://www.w3.org/2000/svg" version="1.1" xml:space="preserve">
 <g class="layer">
  <title>Layer 1</title>
  <g id="SVGRepo_bgCarrier" stroke-width="0"/>
  <g id="SVGRepo_tracerCarrier" stroke-linecap="round" stroke-linejoin="round"/>
  <g id="SVGRepo_iconCarrier">
   <g id="svg_1">
    <g id="svg_2">
     <path d="m35.52,41.29c-3.42,0 -6.64,-1.34 -9.06,-3.76c-1.11,-1.1 -1.11,-2.9 0,-4c1.11,-1.11 2.9,-1.11 4.01,0c1.35,1.35 3.14,2.09 5.05,2.09c1.91,0 3.71,-0.74 5.06,-2.09l7.53,-7.54c2.79,-2.79 2.79,-7.32 0,-10.11c-2.78,-2.79 -7.32,-2.79 -10.11,0l-3.22,3.23c-1.11,1.1 -2.9,1.1 -4.01,0c-1.1,-1.11 -1.1,-2.9 0,-4.01l3.23,-3.22c5,-5 13.12,-5 18.12,0c5,4.99 5,13.12 0,18.12l-7.54,7.53c-2.42,2.42 -5.64,3.76 -9.06,3.76z" fill="#707070" id="svg_3" stroke="#707070"/>
    </g>
    <g id="svg_4">
     <path d="m20.94,55.87c-3.42,0 -6.64,-1.33 -9.06,-3.75c-5,-5 -5,-13.13 0,-18.12l7.54,-7.54c4.99,-5 13.12,-5 18.12,0c1.1,1.1 1.1,2.9 0,4c-1.11,1.11 -2.9,1.11 -4.01,0c-2.79,-2.78 -7.32,-2.78 -10.11,0l-7.53,7.54c-2.79,2.79 -2.79,7.32 0,10.11c1.35,1.35 3.14,2.09 5.05,2.09c1.91,0 3.7,-0.74 5.05,-2.09l3.23,-3.23c1.11,-1.1 2.9,-1.1 4.01,0c1.1,1.11 1.1,2.9 0,4.01l-3.23,3.23c-2.42,2.42 -5.64,3.75 -9.06,3.75z" fill="#707070" id="svg_5" stroke="#707070"/>
    </g>
   </g>
  </g>
 </g>
</svg>