<svg xmlns="http://www.w3.org/2000/svg" width="24" height="24" viewBox="0 0 24 24">
    <path fill="#586AF2" fill-rule="nonzero" d="M12 19.435h9.913a.522.522 0 0 0 .522-.522V5.087a.522.522 0 0 0-.522-.522H2.087a.522.522 0 0 0-.522.522v7.28a5.015 5.015 0 0 1 1.046-.76 3.75 3.75 0 1 1 6.604.326A5.996 5.996 0 0 1 12 17v2.435zm-1.5 0V17a4.5 4.5 0 0 0-2.094-3.805c-.719.466-1.564.722-2.356.722-.934 0-1.94-.356-2.727-.99a3.507 3.507 0 0 0-1.758 2.399v3.587c0 .288.234.522.522.522H10.5zM2.087 3h19.826C23.066 3 24 3.934 24 5.087v13.826A2.087 2.087 0 0 1 21.913 21H2.087A2.087 2.087 0 0 1 0 18.913V5.087C0 3.934.934 3 2.087 3zM6 12.25a2.25 2.25 0 1 0 0-4.5 2.25 2.25 0 0 0 0 4.5zM13.75 7h6.804a.75.75 0 1 1 0 1.5H13.75a.75.75 0 1 1 0-1.5zm0 3h6.804a.75.75 0 1 1 0 1.5H13.75a.75.75 0 1 1 0-1.5zm0 3h3.245a.75.75 0 1 1 0 1.5H13.75a.75.75 0 1 1 0-1.5z"/>
</svg>
