<?xml version="1.0" encoding="UTF-8"?>
<svg width="24px" height="24px" viewBox="0 0 24 24" version="1.1" xmlns="http://www.w3.org/2000/svg" xmlns:xlink="http://www.w3.org/1999/xlink">
    <!-- Generator: Sketch 51.3 (57544) - http://www.bohemiancoding.com/sketch -->
    <title>ic-more-hor</title>
    <desc>Created with Sketch.</desc>
    <defs></defs>
    <g id="Page-3" stroke="none" stroke-width="1" fill="none" fill-rule="evenodd">
        <g id="Desktop-HD" transform="translate(-846.000000, -782.000000)">
            <g id="ic-more-hor" transform="translate(846.000000, 782.000000)">
                <rect id="Rectangle-38" fill-opacity="0.01" fill="#FFFFFF" x="0" y="0" width="24" height="24"></rect>
                <path d="M18,12 C18,13.65 19.35,15 21,15 C22.65,15 24,13.65 24,12 C24,10.35 22.65,9 21,9 C19.35,9 18,10.35 18,12 Z M15,12 C15,10.35 13.65,9 12,9 C10.35,9 9,10.35 9,12 C9,13.65 10.35,15 12,15 C13.65,15 15,13.65 15,12 Z M6,12 C6,10.35 4.65,9 3,9 C1.35,9 0,10.35 0,12 C0,13.65 1.35,15 3,15 C4.65,15 6,13.65 6,12 Z" id="Shape" fill="#000000" fill-rule="nonzero"></path>
            </g>
        </g>
    </g>
</svg>