<svg width="10" height="10" viewBox="0 0 10 10" fill="none" xmlns="http://www.w3.org/2000/svg">
<path d="M0 2C0 0.89543 0.895431 0 2 0H10V8C10 9.10457 9.10457 10 8 10H0V2Z" fill="#F55F56"/>
<g clip-path="url(#clip0_15688_27571)">
<path d="M5 7.625C4.63687 7.625 4.29562 7.55605 3.97625 7.41815C3.65688 7.28025 3.37906 7.09326 3.14281 6.85719C2.90656 6.62111 2.71958 6.3433 2.58185 6.02375C2.44413 5.7042 2.37518 5.36295 2.375 5C2.37483 4.63705 2.44378 4.2958 2.58185 3.97625C2.71993 3.6567 2.90691 3.37889 3.14281 3.14281C3.37871 2.90674 3.65653 2.71975 3.97625 2.58185C4.29597 2.44395 4.63722 2.375 5 2.375C5.36277 2.375 5.70402 2.44395 6.02375 2.58185C6.34347 2.71975 6.62129 2.90674 6.85719 3.14281C7.09309 3.37889 7.28016 3.6567 7.41841 3.97625C7.55666 4.2958 7.62552 4.63705 7.625 5C7.62447 5.36295 7.55552 5.7042 7.41815 6.02375C7.28077 6.3433 7.09379 6.62111 6.85719 6.85719C6.62059 7.09326 6.34277 7.28034 6.02375 7.41841C5.70472 7.55649 5.36347 7.62535 5 7.625ZM5 7.1C5.23625 7.1 5.46375 7.06176 5.6825 6.98529C5.90125 6.90881 6.1025 6.7983 6.28625 6.65375L3.34625 3.71375C3.20188 3.8975 3.09136 4.09875 3.01471 4.3175C2.93806 4.53625 2.89983 4.76375 2.9 5C2.9 5.58625 3.10344 6.08281 3.51031 6.48969C3.91719 6.89656 4.41375 7.1 5 7.1ZM6.65375 6.28625C6.79812 6.1025 6.90864 5.90125 6.98529 5.6825C7.06194 5.46375 7.10017 5.23625 7.1 5C7.1 4.41375 6.89656 3.91719 6.48969 3.51031C6.08281 3.10344 5.58625 2.9 5 2.9C4.76375 2.9 4.53625 2.93824 4.3175 3.01471C4.09875 3.09119 3.8975 3.2017 3.71375 3.34625L6.65375 6.28625Z" fill="white"/>
</g>
<defs>
<clipPath id="clip0_15688_27571">
<rect width="6" height="6" fill="white" transform="translate(2 2)"/>
</clipPath>
</defs>
</svg>
