<svg width="16" height="16" viewBox="0 0 16 16" fill="none" xmlns="http://www.w3.org/2000/svg">
    <path d="M9.4 14a6 6 0 1 0 0-12 6 6 0 0 0 0 12z" fill="#fff"/>
    <path d="M7 14A6 6 0 1 0 7 2a6 6 0 0 0 0 12z" fill="#fff"/>
    <path fill-rule="evenodd" clip-rule="evenodd" d="M7 2.445a5.556 5.556 0 1 0 0 11.11 5.556 5.556 0 0 0 0-11.11zM.556 8a6.444 6.444 0 1 1 12.888 0A6.444 6.444 0 0 1 .556 8zm10.383 6.26a6.447 6.447 0 0 0-.001-12.52 7.507 7.507 0 0 1 2.108 2.069A5.543 5.543 0 0 1 14.957 8a5.543 5.543 0 0 1-1.909 4.19 7.506 7.506 0 0 1-2.108 2.07zM11 8a4 4 0 1 1-8 0 4 4 0 0 1 8 0z" fill="#000" fill-opacity=".56"/>
</svg>
