<?xml version="1.0" encoding="UTF-8"?>
<svg width="24px" height="25px" viewBox="0 0 24 25" version="1.1" xmlns="http://www.w3.org/2000/svg" xmlns:xlink="http://www.w3.org/1999/xlink">
    <!-- Generator: Sketch 51.3 (57544) - http://www.bohemiancoding.com/sketch -->
    <title>ic-search-00</title>
    <desc>Created with Sketch.</desc>
    <defs></defs>
    <g id="Page-3" stroke="none" stroke-width="1" fill="none" fill-rule="evenodd">
        <g id="Desktop-HD" transform="translate(-894.000000, -480.000000)" fill="#9B9B9B" fill-rule="nonzero">
            <g id="ic-search-00" transform="translate(894.000000, 480.000000)">
                <path d="M17.6382459,15.5292324 L16.5276057,15.5292324 L16.1333351,15.1483269 C17.9129945,13.0804955 18.6765734,10.3261223 18.2156184,7.63713836 C17.5540457,3.72517235 14.2902872,0.601747488 10.351591,0.123276757 C7.54487181,-0.232175722 4.7315564,0.730551721 2.73105406,2.73105406 C0.730551721,4.7315564 -0.232175722,7.54487181 0.123276757,10.351591 C0.601747488,14.2902872 3.72517235,17.5553822 7.63580185,18.2156184 C10.3252199,18.6769901 13.0801748,17.9133858 15.1483269,16.1333351 L15.5292324,16.5276057 L15.5292324,17.6395824 L21.5074435,23.6177935 C22.0872851,24.1949854 23.0245868,24.1949854 23.6044284,23.6177935 C24.1807339,23.0381075 24.1807339,22.1018311 23.6044284,21.5221451 L17.6395824,15.5292324 L17.6382459,15.5292324 Z M9.19818253,15.5292324 C7.51832225,15.5317203 5.90654902,14.8654998 4.71870712,13.6776579 C3.53086521,12.489816 2.86464476,10.8780428 2.86713266,9.19818253 C2.86464476,7.51832225 3.53086521,5.90654902 4.71870712,4.71870712 C5.90654902,3.53086521 7.51832225,2.86464476 9.19818253,2.86713266 C10.8780428,2.86464476 12.489816,3.53086521 13.6776579,4.71870712 C14.8654998,5.90654902 15.5317203,7.51832225 15.5292324,9.19818253 C15.5317203,10.8780428 14.8654998,12.489816 13.6776579,13.6776579 C12.489816,14.8654998 10.8780428,15.5317203 9.19818253,15.5292324 Z" id="Shape"></path>
            </g>
        </g>
    </g>
</svg>
