<svg xmlns="http://www.w3.org/2000/svg" xmlns:xlink="http://www.w3.org/1999/xlink" width="40" height="40" viewBox="0 0 40 40">
    <defs>
        <path id="a" d="M20.486 29.998h-9.459c-1.497 0-2.009-.498-2.009-1.949 0-1.85.042-3.704-.013-5.557a14.381 14.381 0 0 1 .68-4.768c.616-1.973 1.156-3.967 1.699-5.959.149-.543.453-.765 1.007-.765h16.021c.534 0 .845.214.994.716.838 2.853 1.693 5.702 2.534 8.55.05.21.068.425.057.64v7.37c0 1.175-.554 1.71-1.78 1.71-3.241.012-6.485.017-9.731.012zm-10.032-9.083v.6c0 2.138.02 4.275-.013 6.412 0 .554.164.686.707.684 6.27-.017 12.54 0 18.82-.013.193 0 .385-.02.584-.032v-7.658c-.166-.01-.308-.023-.45-.023-1.64 0-3.283.01-4.92 0a.657.657 0 0 0-.698.44c-.803 1.663-2.202 2.398-4.044 2.377-1.788-.021-3.1-.814-3.863-2.402a.6.6 0 0 0-.643-.413c-1.642.017-3.283 0-4.922 0-.17-.002-.33.015-.558.028zm19.658-1.438c.011-.101.011-.203 0-.304-.63-2.137-1.275-4.275-1.888-6.401-.105-.366-.335-.353-.613-.353h-14.43c-.399 0-.521.143-.618.485-.503 1.82-1.035 3.634-1.551 5.444-.1.35-.18.707-.287 1.133h6.784c.044.214.081.359.11.513.262 1.477 1.394 2.332 3.063 2.306 1.412.016 2.608-1.012 2.771-2.381.044-.353.175-.442.51-.44 1.42.012 2.845 0 4.263 0l1.886-.002z"/>
    </defs>
    <use fill="#C1C0C6" fill-rule="evenodd" xlink:href="#a"/>
</svg>
