<svg xmlns="http://www.w3.org/2000/svg" width="154" height="169" viewBox="0 0 154 169">
    <g fill="none" fill-rule="evenodd">
        <path fill="#D7DEF9" d="M99.944 134.896c-32.802 22.588-84.558 24.025-87.522-18.367-2.965-42.392 16.005-57.56 33.111-66.508 17.107-8.949 47.277-18.44 69.463-6.683 22.185 11.757 22.182 30.093 19.985 47.494-2.197 17.402-18.69 32.807-35.037 44.064z"/>
        <path fill="#FFF" d="M20 105h98v1H20zM34 90.09L32.91 89 28 93.913 23.09 89 22 90.09 26.91 95 22 99.913 23.09 101 28 96.09l4.91 4.91L34 99.913 29.09 95zM108.715 133.56v1.108h-.968l-.16-1.108zM123.736 132.809l.64 1.57-.569.17-.464-.127-.509-1.458z"/>
        <path fill="#3F58EF" d="M121.141 105.808s3.286.677 1.822 4.592c-1.464 3.914-6.025 8.307-6.025 8.307l-5.63.826s.315-8.501 2.241-11.477c1.926-2.975 3.026-2.783 3.026-2.783l4.566.535z"/>
        <path fill="#FFF" d="M118.795 100.64s-2.635 2.477-1.486 3.653c1.148 1.176 3.403-.83 4.152-1.828 1.063-1.408-.893-3.317-2.666-1.825z"/>
        <path fill="#FFF" d="M119.755 103.706s-.052 1.239 1.014 1.933c0 0-.953 1.441-2.145 1.234-1.169-.204-1.34-1.007-1.279-1.455 0 0 .78-.754.611-1.292l1.8-.42z"/>
        <path fill="#000" d="M120.584 102.097s-1.87-1.37-1.549-2.385c.322-1.014 2.238-.309 2.814 1.206.577 1.515-.18 1.586-.18 1.586s.125.616-.715 1.133a4.105 4.105 0 0 1-1.471.598s-.04-1.662 1.1-2.138z"/>
        <path fill="#DEE4FC" d="M120.165 105.048l-2.384 1.472.045 1.239s2.423-.944 3.312-1.951l-.973-.76z"/>
        <path fill="#DEE4FC" d="M117.497 105.26l.29 1.358-1.09.519-.122-1.86z"/>
        <path fill="#3F58EF" d="M120.429 106.376c1.303-.645 2.185.299 2.71 1.133 1.04 1.66 2.702 4.767 2.705 7.674 0 4.238-2.065 3.076-2.822 2.468-.278-.222-.9-1.485-1.533-2.946-.733-1.687-1.479-3.64-1.728-4.56-.45-1.667-.143-3.37.668-3.77z"/>
        <path fill="#000" d="M119.169 127.205s-.224-6.732-2.23-8.501l-1.837.269-1.81.245-1.988.315s-5.418 3.885-6.06 4.783c-.641.898 2.34 9.244 2.34 9.244h1.487s-.435-5.634-.982-6.99c0 0 3.638-1.49 5.395-3.081 1.192 2.1 2.532 4.354 3.079 4.86 1.083 1.004 5.896 4.676 5.896 4.676l1.632-.283s-2.473-4.144-4.922-5.537z"/>
        <path fill="#A3ADEC" fill-rule="nonzero" d="M109.074 133.67h-1.488a.113.113 0 0 1-.107-.075c-.307-.859-2.979-8.426-2.324-9.343.654-.916 5.864-4.65 6.083-4.809a.119.119 0 0 1 .047-.02l1.989-.314 1.81-.244 1.837-.273a.112.112 0 0 1 .092.027c.852.75 1.494 2.424 1.905 4.976.184 1.173.305 2.356.36 3.542 2.43 1.417 4.812 5.384 4.913 5.551a.108.108 0 0 1 0 .104.11.11 0 0 1-.082.06l-1.631.284a.113.113 0 0 1-.09-.021c-.048-.037-4.83-3.691-5.903-4.686-.455-.425-1.475-2.025-3.032-4.766-1.619 1.403-4.634 2.717-5.222 2.965.531 1.506.934 6.696.951 6.922a.108.108 0 0 1-.03.083.111.111 0 0 1-.078.037zm-1.408-.221h1.28c-.066-.819-.47-5.62-.964-6.84a.108.108 0 0 1 .06-.14c.037-.016 3.64-1.503 5.36-3.061a.113.113 0 0 1 .093-.029.116.116 0 0 1 .082.056c1.56 2.757 2.618 4.429 3.057 4.835 1.014.94 5.383 4.286 5.848 4.642l1.42-.245c-.452-.727-2.654-4.146-4.8-5.367a.107.107 0 0 1-.057-.092c0-.065-.24-6.615-2.155-8.385l-1.781.262-1.809.242-1.958.31c-.377.271-5.41 3.898-6.012 4.741-.439.62 1.154 5.734 2.336 9.071z"/>
        <path fill="#1B145C" d="M117.829 107.854a.099.099 0 0 1-.099-.093l-.04-1.14c-.001-.025.009-.05.026-.068a.098.098 0 0 1 .068-.03.095.095 0 0 1 .07.025c.019.017.03.04.03.066l.038 1.044c1.181-.102 2.83-1.607 2.845-1.622a.1.1 0 0 1 .096-.021c.034.01.06.037.067.07a.095.095 0 0 1-.03.092c-.072.068-1.81 1.655-3.07 1.68l-.001-.003z"/>
        <path fill="#A3ADEC" d="M113.856 119.248a.112.112 0 0 1-.111-.1c-.235-2.365 3.148-10.668 3.826-12.305l-.825.393a.112.112 0 0 1-.106 0 .109.109 0 0 1-.057-.088l-.121-1.859a.109.109 0 0 1 .028-.08.114.114 0 0 1 .159-.01c.022.02.036.047.037.076l.112 1.7.94-.446a.116.116 0 0 1 .127.018c.034.032.044.08.026.122-.04.1-4.172 9.95-3.922 12.468a.111.111 0 0 1-.101.12l-.012-.01z"/>
        <path fill="#000" d="M116.423 108.01l-2.95 6.834.448 1.074.963-.508 2.267-6.787z"/>
        <path fill="#1B145C" d="M117.829 107.759l-1.004-.685-.402.935.728.614z"/>
        <path fill="#1B145C" d="M117.829 107.759l-1.004-.685.959-.554zM123.308 134.319s.318.313 1.093 0c0 0 .206.937.183 1.472h-.843l-.023-.378s-.89.357-1.304.378c-.414.021-2.235 0-2.235 0s-.08-.237.365-.425c.735-.313 2.764-1.047 2.764-1.047zM107.692 134.495s.32.313 1.095 0c0 0 .206.936.183 1.472h-.843l-.024-.379s-.889.356-1.303.379c-.414.022-2.233 0-2.233 0s-.08-.237.365-.425c.731-.306 2.76-1.047 2.76-1.047z"/>
        <path fill="#3F58EF" d="M115.817 105.533s-9.478 6.167-9.68 8.567c-.203 2.4 1.332 2.606 1.775 2.568.774-.068 2.367-1.467 2.367-1.467l2.518-2.61 3.02-7.058z"/>
        <path fill="#3F58EF" d="M111.639 107.407l.727.628.431-.682-.38-.596z"/>
        <path fill="#3F58EF" d="M111.639 107.407s-7.142 4.393-5.343 8.193l2.675-.532s2.238-2.655 3.614-7.31l-.946-.35z"/>
        <path fill="#000" d="M148.454 91.148l1.168 2.304a1.906 1.906 0 0 1-.888 2.58l-25.527 12.386-2.914-5.747 25.527-12.386c.971-.471 2.15-.085 2.634.863z"/>
        <path fill="#000" d="M94.888 120.549l-1.605-3.167 27.361-14.024 2.213 4.368z"/>
        <path fill="#A3ADEC" d="M122.859 107.835a.11.11 0 0 1-.102-.06l-2.214-4.368a.108.108 0 0 1 .001-.114.114.114 0 0 1 .2.015l2.215 4.374a.108.108 0 0 1-.1.153z"/>
        <path fill="#FFF" d="M122.545 101.573l3.115 5.656 1.516-.736-3.18-5.625zM121.713 101.976l3.117 5.655.463-.224-3.18-5.625z"/>
        <path fill="#3F58EF" d="M125.231 117.905s-1.678-5.625-3.994-8.623l-1.549.511s1.313 5.1 2.581 8.414c.45 1.173 2.012.748 2.862-.19l.1-.112z"/>
        <path fill="#3F58EF" d="M119.874 110.499l1.789-.62-.477-1.082-1.683.625z"/>
        <path fill="#FFF" d="M120.769 109.07s.459-.407.06-1.126c-.4-.718-.42.6-.42.6s.012-1.609-.807-1.781c-.82-.173-.862 1.305.066 2.716l1.1-.408z"/>
        <path fill="#A3ADEC" d="M122.365 118.564a.113.113 0 0 1-.104-.067c-.596-1.367-2.418-7.7-2.496-7.968a.11.11 0 0 1 .071-.134l1.789-.62a.116.116 0 0 1 .13.04c1.922 2.684 2.798 6.19 2.807 6.227a.11.11 0 0 1-.085.124.113.113 0 0 1-.134-.072c-.008-.035-.861-3.443-2.724-6.081l-1.608.557c.24.83 1.908 6.58 2.463 7.842a.11.11 0 0 1-.06.142.102.102 0 0 1-.05.01z"/>
        <path fill="#A3ADEC" fill-rule="nonzero" d="M119.93 110.684a.113.113 0 0 1-.105-.069l-.45-1.104a.11.11 0 0 1 .064-.141l1.806-.663a.114.114 0 0 1 .086.001.11.11 0 0 1 .06.06l.451 1.106a.103.103 0 0 1 0 .085.11.11 0 0 1-.064.06l-1.806.661a.096.096 0 0 1-.042.004zm-.304-1.15l.368.9 1.593-.585-.368-.9-1.593.585z"/>
        <path fill="#FFF" d="M94.721 120.22l-1.272-2.51-5.224 1.83a.282.282 0 0 0-.094.055.113.113 0 0 0-.043.04l-1.941 2.957a.083.083 0 0 0-.081 0 .082.082 0 1 0-.022.153c.031.016.07.011.096-.012h.007l4.083-1.983a.509.509 0 0 1 .306-.627.528.528 0 0 1 .663.25c.12.24.031.53-.204.666a.53.53 0 0 1-.694-.148l-4.083 1.984a.083.083 0 0 0-.043.047.08.08 0 0 0 .004.064c.021.04.071.056.113.036a.08.08 0 0 0 .045-.068l3.555.272h.03c.055 0 .109-.015.156-.043l4.643-2.963zM112.422 106.757s.746-.81 1.467-.818c.722-.007 1.44.425 1.66.904.22.48-.459.802-.815.66-.356-.144-1.93-.15-1.93-.15l-.382-.596z"/>
        <path fill="#A3ADEC" d="M109.197 109.26a.115.115 0 0 1-.087-.04.109.109 0 0 1 .016-.155c.646-.519 2.43-1.736 2.448-1.748l.77-.645a.113.113 0 0 1 .09-.024.109.109 0 0 1 .078.05l.381.596a.108.108 0 0 1 .007.112.113.113 0 0 1-.098.06.114.114 0 0 1-.1-.054l-.312-.488-.677.567c-.028.018-1.805 1.231-2.444 1.744a.116.116 0 0 1-.072.026z"/>
        <path fill="#A3ADEC" d="M112.059 107.87a.122.122 0 0 1-.074-.028l-.42-.351a.11.11 0 0 1-.012-.156.115.115 0 0 1 .16-.011l.42.35a.11.11 0 0 1 .011.155.112.112 0 0 1-.085.04z"/>
        <path fill="#FFF" d="M146.296 97.868a.584.584 0 0 1-.266.79l-14.146 6.863a.605.605 0 0 1-.803-.27.584.584 0 0 1 .266-.79l14.145-6.863a.605.605 0 0 1 .804.27z"/>
        <path fill="#000" d="M114.304 81.91l-23.178 6.414c.922-4.206-3.378-8.714-7.953-8.99-4.02-.243-8.051 1.333-11.867 2.458l-11.143 3.284c6.16-8.107 11.635-17.109 11.02-27.63-.081-1.395-1.856-1.76-2.72-.804a129.295 129.295 0 0 0-24.527 42.274c-.656 1.888 2.142 3.155 2.81 1.252A126.946 126.946 0 0 1 68 61.998c-1.051 9.474-7.373 17.626-13.19 24.941-1.027 1.288.31 2.86 1.726 2.432l17.688-5.218c2.661-.785 5.379-1.744 8.161-1.734 1.696.02 3.386.316 4.566 1.695 1.18 1.379 1.8 3.77.132 5.158-1.092.91-.587 3.142 1.05 2.808l26.49-7.08c1.949-.383 1.649-3.49-.32-3.09z"/>
    </g>
</svg>
