<svg width="9" height="12" viewBox="0 0 9 12" fill="none" xmlns="http://www.w3.org/2000/svg">
<path fill-rule="evenodd" clip-rule="evenodd" d="M4.71545 0.0359706L8.27215 1.4719C8.51939 1.57171 8.63682 1.84801 8.53438 2.08899L7.24661 5.119L2.7945 3.32172L4.08231 0.291555C4.13148 0.175807 4.22585 0.0838946 4.34457 0.0359391C4.4633 -0.0119849 4.59672 -0.0119849 4.71545 0.0359706ZM0.111583 6.65997L2.26436 4.13017L7.03492 6.05604L6.72167 9.32863C6.70684 9.48358 6.61464 9.62147 6.4752 9.69726L2.23881 12L4.09101 7.64181C4.19342 7.40078 4.07599 7.12454 3.82871 7.02469C3.58147 6.92491 3.29798 7.0393 3.19557 7.28031L1.34337 11.6385L0.0184107 7.09053C-0.0251709 6.94081 0.00965557 6.77978 0.111583 6.65997Z" fill="white"/>
</svg>
