<svg xmlns="http://www.w3.org/2000/svg" width="24" height="24" viewBox="0 0 24 24">
    <g fill="none" fill-rule="evenodd">
        <path fill="#000" fill-opacity=".56" fill-rule="nonzero" d="M2.667 22.438h18.666c.369 0 .667-.322.667-.72 0-.396-.298-.718-.667-.718H2.667c-.369 0-.667.322-.667.719 0 .397.298.718.667.718z"/>
        <path stroke="#000" stroke-linejoin="round" stroke-opacity=".56" stroke-width="1.5" d="M10.2 9.573a4 4 0 1 1 3.6 0v2.923A14.4 14.4 0 0 0 14.39 14H19a2 2 0 0 1 2 2v3H3v-3a2 2 0 0 1 2-2h4.61a14.4 14.4 0 0 0 .59-1.504V9.573z"/>
    </g>
</svg>
