<svg xmlns="http://www.w3.org/2000/svg" width="24" height="24" viewBox="0 0 24 24">
    <path fill="#000" fill-opacity=".38" fill-rule="nonzero" d="M16.21 14.632h-.831l-.295-.285a6.843 6.843 0 0 0 1.558-5.62c-.495-2.927-2.937-5.264-5.884-5.622a6.847 6.847 0 0 0-7.653 7.653c.358 2.947 2.695 5.39 5.621 5.884a6.843 6.843 0 0 0 5.621-1.558l.285.295v.832l4.473 4.473a1.112 1.112 0 0 0 1.569 0 1.112 1.112 0 0 0 0-1.568l-4.463-4.484zm-6.315 0a4.73 4.73 0 0 1-4.737-4.737 4.73 4.73 0 0 1 4.737-4.737 4.73 4.73 0 0 1 4.737 4.737 4.73 4.73 0 0 1-4.737 4.737z"/>
</svg>
