<svg xmlns="http://www.w3.org/2000/svg" xmlns:xlink="http://www.w3.org/1999/xlink" width="40" height="40" viewBox="0 0 40 40">
    <defs>
        <path id="a" d="M20.484 30.998h-10.28c-1.628 0-2.184-.576-2.184-2.257 0-2.143.045-4.289-.014-6.434-.047-1.87.203-3.736.74-5.521.668-2.285 1.255-4.594 1.845-6.9.162-.629.493-.886 1.094-.886H29.1c.58 0 .918.247 1.08.829.911 3.304 1.841 6.603 2.754 9.9.054.242.075.492.062.742v8.532c0 1.362-.602 1.98-1.934 1.98-3.523.015-7.05.02-10.578.015zm10.464-12.183a1.745 1.745 0 0 0 0-.352c-.685-2.474-1.387-4.949-2.053-7.411-.114-.424-.364-.409-.666-.409H12.544c-.433 0-.566.166-.67.562-.548 2.106-1.126 4.207-1.687 6.303-.11.406-.195.82-.312 1.312h7.374c.048.247.088.416.12.594.285 1.71 1.514 2.7 3.33 2.67 1.533.018 2.833-1.171 3.01-2.757.048-.408.191-.512.555-.51 1.544.015 3.092 0 4.634 0l2.05-.002z"/>
    </defs>
    <use fill="#5E70F1" fill-rule="evenodd" xlink:href="#a"/>
</svg>
