<svg width="16" height="16" viewBox="0 0 16 16" fill="none" xmlns="http://www.w3.org/2000/svg">
<path d="M12.8001 8.8002V12.8002C12.8001 13.2246 12.6315 13.6315 12.3314 13.9316C12.0314 14.2316 11.6244 14.4002 11.2001 14.4002H3.2001C2.77575 14.4002 2.36878 14.2316 2.06872 13.9316C1.76867 13.6315 1.6001 13.2246 1.6001 12.8002V4.8002C1.6001 4.37585 1.76867 3.96888 2.06872 3.66883C2.36878 3.36877 2.77575 3.2002 3.2001 3.2002H6.2665" stroke="black" stroke-width="1.5"/>
<path fill-rule="evenodd" clip-rule="evenodd" d="M10.6382 1.60059C10.7254 1.60059 10.8094 1.63019 10.8782 1.68379L15.0646 4.97419C15.1128 5.01195 15.1514 5.06057 15.1773 5.11609C15.2032 5.17161 15.2156 5.23246 15.2135 5.29368C15.2114 5.3549 15.1948 5.41475 15.1652 5.46836C15.1356 5.52197 15.0937 5.56783 15.043 5.60219L10.8566 8.45339C10.7981 8.49329 10.7299 8.51648 10.6592 8.52045C10.5886 8.52443 10.5182 8.50904 10.4556 8.47595C10.393 8.44286 10.3407 8.39332 10.3042 8.33267C10.2677 8.27202 10.2485 8.20256 10.2486 8.13179L10.2494 6.94219C9.63495 6.91979 8.86375 6.99659 7.93575 7.17179C6.44935 7.45259 5.23175 8.24059 4.28135 9.53499C4.26148 9.56211 4.23337 9.58209 4.20122 9.59194C4.16907 9.60179 4.1346 9.60099 4.10294 9.58966C4.07128 9.57833 4.04413 9.55707 4.02554 9.52905C4.00694 9.50103 3.9979 9.46776 3.99975 9.43419L4.02375 9.16459C4.19095 7.65179 4.83495 6.36459 5.95815 5.30299C7.04935 4.27099 8.47975 3.66699 10.2486 3.48939V1.99019C10.2486 1.77499 10.423 1.60059 10.6382 1.60059Z" fill="black"/>
</svg>
