<svg xmlns="http://www.w3.org/2000/svg" width="24" height="24" viewBox="0 0 24 24">
    <path fill="#586AF2" fill-rule="evenodd" d="M12.75 8.5V17a.75.75 0 1 1-1.5 0V8.5h-3.5a.75.75 0 0 1 0-1.5h8.5a.75.75 0 1 1 0 1.5h-3.5zm-10 9.5V6h-.898A.852.852 0 0 1 1 5.148V1.852c0-.47.381-.852.852-.852h3.296c.47 0 .852.381.852.852v.898h12v-.898c0-.47.381-.852.852-.852h3.296c.47 0 .852.381.852.852v3.296c0 .47-.381.852-.852.852h-.898v12h.898c.47 0 .852.381.852.852v3.296c0 .47-.381.852-.852.852h-3.296a.852.852 0 0 1-.852-.852v-.898H6v.898c0 .47-.381.852-.852.852H1.852A.852.852 0 0 1 1 22.148v-3.296c0-.47.381-.852.852-.852h.898zm1.5 0h.898c.47 0 .852.381.852.852v.898h12v-.898c0-.47.381-.852.852-.852h.898V6h-.898A.852.852 0 0 1 18 5.148V4.25H6v.898c0 .47-.381.852-.852.852H4.25v12zm.25 1.75v-.25h-2v2h2v-1.75zm0-17V2.5h-2v2h2V2.75zm15 1.75h2v-2h-2v2zm0 17h2v-2h-2v2z"/>
</svg>
