<svg width="17" height="16" viewBox="0 0 17 16" fill="none" xmlns="http://www.w3.org/2000/svg">
  <g clip-path="url(#clip0_1320_3843)">
    <path d="M10.7771 9.46758C10.9914 9.46758 11.2159 9.54875 11.3792 9.71111C11.2159 9.54875 10.9914 9.46758 10.7771 9.46758Z" fill="black" />
    <path d="M10.7771 9.46758C10.5627 9.46758 10.3382 9.54875 10.1749 9.71111C10.3382 9.54875 10.5627 9.46758 10.7771 9.46758Z" fill="black" />
    <path d="M13.9307 0H1.11234C0.774154 0 0.5 0.27259 0.5 0.608847V1.89757C0.5 2.23383 0.774154 2.50642 1.11234 2.50642H13.9307C14.2689 2.50642 14.543 2.23383 14.543 1.89757V0.608847C14.543 0.27259 14.2689 0 13.9307 0Z" fill="black" />
    <path fill-rule="evenodd" clip-rule="evenodd" d="M10.573 12.7249L9.46058 13.831H9.45037C9.40955 13.8716 9.34832 13.9629 9.34832 13.9629H2.42887C2.09208 13.9629 1.81653 13.6889 1.81653 13.354V3.67338C1.81653 3.33851 2.09208 3.06453 2.42887 3.06453H12.6141C12.9509 3.06453 13.2265 3.33851 13.2265 3.67338V10.0967L12.1141 8.99064C11.7569 8.63548 11.2874 8.44268 10.7873 8.44268C10.2872 8.44268 9.81778 8.63548 9.46058 8.99064C8.72577 9.71111 8.72577 10.8882 9.46058 11.6188L10.573 12.7249ZM5.76612 5.22593H9.27687V6.74804H5.76612V5.22593Z" fill="black" />
    <path d="M16.2474 14.5514L14.4206 12.7351L16.2474 10.9187C16.5842 10.5838 16.5842 10.0561 16.2474 9.72126C15.9106 9.38639 15.3799 9.38639 15.0431 9.72126L13.2163 11.5377L11.3895 9.72126C11.0527 9.38639 10.522 9.38639 10.1852 9.72126C9.84842 10.0561 9.84842 10.5838 10.1852 10.9187L12.012 12.7351L10.1852 14.5514C9.84842 14.8863 9.84842 15.414 10.1852 15.7488C10.522 16.0837 11.0527 16.0837 11.3895 15.7488L13.2163 13.9324L15.0431 15.7488C15.3799 16.0837 15.9106 16.0837 16.2474 15.7488C16.5842 15.414 16.5842 14.8863 16.2474 14.5514Z" fill="black" />
  </g>
  <defs>
    <clipPath id="clip0_1320_3843">
      <rect width="16" height="16" fill="white" transform="translate(0.5)" />
    </clipPath>
  </defs>
</svg>
