<svg xmlns="http://www.w3.org/2000/svg" width="20" height="20" viewBox="0 0 20 20">
  <path fill="#91CF00" d="M16.9039813,16.9577465 C18.8712042,14.9859056 21.2365201,14 24,14 C26.7634799,14 29.1209895,14.978081 31.0725995,16.9342723 C33.0242096,18.8904636 34,21.2456826 34,24 C34,26.7543174 33.0242096,29.1095364 31.0725995,31.0657277 C29.1209895,33.021919 26.7634799,34 24,34 C21.2365201,34 18.8790105,33.021919 16.9274005,31.0657277 C14.9757904,29.1095364 14,26.7543174 14,24 C14,21.2456826 14.9679841,18.8982883 16.9039813,16.9577465 Z M22.0093677,29.0234742 L31.0023419,20.0093897 L29.5971897,18.5539906 L22.0093677,26.1596244 L18.4028103,22.5915493 L16.9976581,24 L22.0093677,29.0234742 Z" transform="translate(-14 -14)"/>
</svg>
