<?xml version="1.0"?>
<svg width="16" height="16" xmlns="http://www.w3.org/2000/svg" xmlns:svg="http://www.w3.org/2000/svg">
 <g class="layer">
  <title>Layer 1</title>
  <path d="m12.64,0c0.39,0 0.76,0.15 1.03,0.43c0.28,0.27 0.43,0.64 0.43,1.03l0,8.73c0,0.39 -0.15,0.76 -0.43,1.03c-0.27,0.27 -0.64,0.42 -1.03,0.42l-1.45,0l0,1.46c0,0.39 -0.15,0.76 -0.43,1.03c-0.27,0.27 -0.64,0.43 -1.03,0.43l-7.27,0c-0.39,0 -0.76,-0.16 -1.03,-0.43c-0.28,-0.27 -0.43,-0.64 -0.43,-1.03l0,-8.73c0,-0.39 0.15,-0.76 0.43,-1.03c0.27,-0.28 0.64,-0.43 1.03,-0.43l1.45,0l0,-1.45c0,-0.39 0.15,-0.76 0.43,-1.03c0.27,-0.28 0.64,-0.43 1.03,-0.43l7.27,0zm-2.91,4.37l-7.27,0l0,8.73l7.27,0l0,-8.73zm2.91,-2.91l-7.27,0l0,1.45l4.36,0c0.39,0 0.76,0.15 1.03,0.43c0.28,0.27 0.43,0.64 0.43,1.03l0,5.82l1.45,0l0,-8.73z" fill="#3d3737" id="svg_1"/>
 </g>
</svg>