<svg xmlns="http://www.w3.org/2000/svg" width="18" height="18" viewBox="0 0 18 18">
  <g fill="none" fill-rule="evenodd" transform="translate(-3 -3)">
    <polygon points="0 0 24 0 24 24 0 24"/>
    <path fill="#000" fill-opacity=".6" fill-rule="nonzero" d="M19,3 L5,3 C3.9,3 3,3.9 3,5 L3,19 C3,20.1 3.89,21 5,21 L19,21 C20.1,21 21,20.1 21,19 L21,5 C21,3.9 20.1,3 19,3 Z M19,19 L5,19 L5,16 L8.56,16 C9.25,17.19 10.53,18 12.01,18 C13.49,18 14.76,17.19 15.46,16 L19,16 L19,19 Z M19,14 L14.01,14 C14.01,15.1 13.11,16 12.01,16 C10.91,16 10.01,15.1 10.01,14 L5,14 L5,5 L19,5 L19,14 Z"/>
  </g>
</svg>
