<?xml version="1.0" encoding="UTF-8"?>
<svg width="20px" height="20px" viewBox="0 0 20 20" version="1.1" xmlns="http://www.w3.org/2000/svg" xmlns:xlink="http://www.w3.org/1999/xlink">
    <!-- Generator: Sketch 63.1 (92452) - https://sketch.com -->
    <title>ic_announcement</title>
    <desc>Created with Sketch.</desc>
    <g id="App-web" stroke="none" stroke-width="1" fill="none" fill-rule="evenodd">
        <g id="DottedSign_web_topbar" transform="translate(-319.000000, -20.000000)">
            <g id="ic_announcement" transform="translate(317.000000, 18.000000)">
                <polygon id="Path" points="0 0 24 0 24 24 0 24"></polygon>
                <path d="M20,4 L20,16 L5.17,16 L4,17.17 L4,4 L20,4 Z M13,13 L11,13 L11,15 L13,15 L13,13 Z M13,5 L11,5 L11,11 L13,11 L13,5 Z" id="Combined-Shape"></path>
                <path d="M20,2 L4,2 C2.9,2 2,2.9 2,4 L2,22 L6,18 L20,18 C21.1,18 22,17.1 22,16 L22,4 C22,2.9 21.1,2 20,2 Z M20,16 L5.17,16 L4,17.17 L4,4 L20,4 L20,16 Z M13,13 L13,15 L11,15 L11,13 L13,13 Z M13,5 L13,11 L11,11 L11,5 L13,5 Z" id="Shape" fill-opacity="0.6" fill="#000000" fill-rule="nonzero"></path>
            </g>
        </g>
    </g>
</svg>