<svg xmlns="http://www.w3.org/2000/svg" width="20" height="20" viewBox="0 0 20 20">
  <path fill="#8291FF" d="M10,0 C15.5228475,0 20,4.4771525 20,10 C20,15.5228475 15.5228475,20 10,20 C4.4771525,20 0,15.5228475 0,10 C0,4.4771525 4.4771525,0 10,0 Z M10,1 C5.02943725,1 1,5.02943725 1,10 C1,14.9705627 5.02943725,19 10,19 C14.9705627,19 19,14.9705627 19,10 C19,5.02943725 14.9705627,1 10,1 Z M9.44954128,14.1079187 C9.86544343,14.1079187 10.1574924,14.1822004 10.3256881,14.3307638 C10.4938838,14.4793273 10.5779817,14.721794 10.5779817,15.058164 C10.5779817,15.4113525 10.4877676,15.6566223 10.3073394,15.7939734 C10.1269113,15.9313245 9.84097859,16 9.44954128,16 C9.01529052,16 8.72324159,15.917309 8.5733945,15.7519271 C8.4235474,15.5865452 8.34862385,15.3552908 8.34862385,15.058164 C8.34862385,14.721794 8.43272171,14.4793273 8.60091743,14.3307638 C8.76911315,14.1822004 9.05198777,14.1079187 9.44954128,14.1079187 Z M9.82568807,4 C11.0978593,4 12.1116208,4.26489138 12.8669725,4.79467414 C13.6223242,5.3244569 14,6.07428171 14,7.04414856 C14,7.58234057 13.8761468,8.06447092 13.6284404,8.49053959 C13.3807339,8.91660827 13.029052,9.30903994 12.5733945,9.66783462 C12.117737,10.0266293 11.3394495,10.4779257 10.2385321,11.0217239 L10.2385321,11.0217239 L10.2385321,12.6951647 L8.64220183,12.6951647 L8.64220183,10.3910301 L8.92791612,10.2646125 C10.1376147,9.72080002 10.9781564,9.22895185 11.4495413,8.78906797 C11.9571865,8.31534688 12.2110092,7.79257183 12.2110092,7.22074282 C12.2110092,6.64330764 12.0076453,6.19201121 11.6009174,5.86685354 C11.1941896,5.54169587 10.6085627,5.37911703 9.8440367,5.37911703 C9.18348624,5.37911703 8.66207951,5.49404345 8.27981651,5.72389629 C7.89755352,5.95374912 7.59938838,6.23405746 7.3853211,6.5648213 L7.3853211,6.5648213 L6,5.74071479 L6.12399656,5.55183514 C6.42971139,5.12169324 6.85015291,4.76559215 7.3853211,4.48353189 C7.9969419,4.1611773 8.81039755,4 9.82568807,4 Z"/>
</svg>
