<?xml version="1.0" encoding="UTF-8"?>
<svg width="24px" height="24px" viewBox="0 0 24 24" version="1.1" xmlns="http://www.w3.org/2000/svg" xmlns:xlink="http://www.w3.org/1999/xlink">
    <!-- Generator: Sketch 55.1 (78136) - https://sketchapp.com -->
    <title>web/ic_thumbnail</title>
    <desc>Created with Sketch.</desc>
    <g id="web/ic_thumbnail" stroke="none" stroke-width="1" fill="none" fill-rule="evenodd">
        <g id="round-view_stream-24px">
            <polygon id="Path" points="0 0 24 0 24 24 0 24"></polygon>
            <path d="M5,18 L20,18 C20.55,18 21,17.55 21,17 L21,13 C21,12.45 20.55,12 20,12 L5,12 C4.45,12 4,12.45 4,13 L4,17 C4,17.55 4.45,18 5,18 Z M4,6 L4,10 C4,10.55 4.45,11 5,11 L20,11 C20.55,11 21,10.55 21,10 L21,6 C21,5.45 20.55,5 20,5 L5,5 C4.45,5 4,5.45 4,6 Z" id="Shape" fill-opacity="0.56" fill="#000000" fill-rule="nonzero"></path>
        </g>
    </g>
</svg>