<svg xmlns="http://www.w3.org/2000/svg" width="40" height="68" viewBox="0 0 40 68">
    <path fill="#F7BA3E" fill-rule="nonzero" d="M23.252 64.485l11.92-1.255c.872-.092 1.605.48 1.639 1.277.034.796-.645 1.516-1.516 1.608L17.393 68l-2.321-15.78c-.116-.784.491-1.555 1.355-1.721.864-.166 1.658.335 1.774 1.12l1.738 11.819c8.698-6.095 15.185-17.425 16.605-28.602 1.166-9.176-1.224-16.52-6.832-20.434.399 4.183-1.642 8.032-6.055 9.728-6.13 2.354-13.13-1.575-15.036-7.094-2.22-6.432 3.773-10.286 15.232-8.156C19.63 3.804 11.733 1.493 1.81 3.647c-.866.188-1.67-.278-1.795-1.04-.125-.763.476-1.534 1.342-1.722 11.73-2.545 21.203.568 25.885 7.175.512.723.945 1.463 1.3 2.213 8.772 3.762 12.625 12.996 11.15 24.608-1.437 11.305-7.714 22.756-16.441 29.604zm-.592-42.954c3.543-1.36 4.807-5.106 3.332-9.043-.91-.33-1.876-.593-2.895-.788-9.48-1.807-12.804.307-11.44 4.257 1.443 4.18 6.802 7.188 11.003 5.574z"/>
</svg>
