<?xml version="1.0" encoding="UTF-8"?>
<svg xmlns="http://www.w3.org/2000/svg" xmlns:xlink="http://www.w3.org/1999/xlink" width="30px" height="30px" viewBox="0 0 30 30" version="1.1">
<g id="surface1">
<path style=" stroke:none;fill-rule:nonzero;fill:rgb(100%,100%,100%);fill-opacity:1;" d="M 14.042969 30.058594 C 9.363281 30.058594 4.710938 30.058594 0.0585938 30.058594 C 0.0585938 20.0625 0.0585938 10.066406 0.0585938 0.0625 C 10.050781 0.0625 20.046875 0.0625 30.050781 0.0625 C 30.050781 10.058594 30.050781 20.058594 30.050781 30.058594 C 24.726562 30.058594 19.398438 30.058594 14.042969 30.058594 M 20.546875 22.367188 C 20.78125 22.355469 20.847656 22.199219 20.75 22.035156 C 20.640625 21.851562 20.511719 21.691406 20.21875 21.691406 C 17.300781 21.707031 14.382812 21.703125 11.464844 21.703125 C 11.121094 21.703125 10.964844 21.824219 10.96875 22.082031 C 10.96875 22.339844 11.121094 22.457031 11.46875 22.457031 C 12.984375 22.457031 14.503906 22.457031 16.019531 22.457031 C 17.507812 22.453125 18.996094 22.449219 20.511719 22.449219 C 20.53125 22.4375 20.539062 22.421875 20.546875 22.367188 M 14.796875 16.507812 C 14.796875 15.601562 14.796875 14.691406 14.796875 13.789062 C 14.144531 13.550781 13.726562 13.058594 13.757812 12.53125 C 13.804688 11.71875 14.570312 11.09375 15.359375 11.316406 C 15.847656 11.453125 16.273438 11.953125 16.304688 12.453125 C 16.335938 12.9375 15.996094 13.523438 15.539062 13.683594 C 15.351562 13.75 15.316406 13.835938 15.316406 14.007812 C 15.320312 16.066406 15.320312 18.125 15.316406 20.183594 C 15.316406 20.347656 15.324219 20.5 15.523438 20.539062 C 15.722656 20.578125 15.871094 20.492188 15.949219 20.320312 C 16.285156 19.609375 16.605469 18.890625 16.941406 18.179688 C 17.628906 16.71875 18.320312 15.261719 19.007812 13.804688 C 19.339844 13.09375 19.488281 12.328125 19.363281 11.574219 C 19.15625 10.34375 18.832031 9.136719 18.582031 7.914062 C 18.523438 7.625 18.386719 7.539062 18.113281 7.539062 C 16.132812 7.546875 14.152344 7.542969 12.167969 7.542969 C 11.597656 7.542969 11.574219 7.539062 11.457031 8.078125 C 11.203125 9.242188 10.976562 10.410156 10.730469 11.578125 C 10.582031 12.285156 10.734375 12.964844 10.992188 13.609375 C 11.289062 14.359375 11.65625 15.078125 12 15.804688 C 12.699219 17.292969 13.402344 18.773438 14.101562 20.261719 C 14.199219 20.472656 14.324219 20.597656 14.566406 20.535156 C 14.789062 20.476562 14.800781 20.296875 14.796875 20.105469 C 14.796875 18.925781 14.796875 17.746094 14.796875 16.507812 M 10.210938 22.273438 C 10.210938 22.1875 10.242188 22.082031 10.207031 22.019531 C 10.125 21.871094 10.03125 21.667969 9.898438 21.625 C 9.761719 21.578125 9.523438 21.640625 9.414062 21.746094 C 9.3125 21.839844 9.253906 22.070312 9.289062 22.210938 C 9.40625 22.652344 9.835938 22.695312 10.210938 22.273438 Z M 10.210938 22.273438 "/>
<path style=" stroke:none;fill-rule:nonzero;fill:rgb(29.411766%,37.254903%,90.196079%);fill-opacity:1;" d="M 14.796875 16.539062 C 14.796875 17.746094 14.796875 18.925781 14.796875 20.105469 C 14.800781 20.296875 14.789062 20.476562 14.566406 20.535156 C 14.324219 20.597656 14.199219 20.472656 14.101562 20.261719 C 13.402344 18.773438 12.699219 17.292969 12 15.804688 C 11.65625 15.078125 11.289062 14.359375 10.992188 13.609375 C 10.734375 12.964844 10.582031 12.285156 10.730469 11.578125 C 10.976562 10.410156 11.203125 9.242188 11.457031 8.078125 C 11.574219 7.539062 11.597656 7.542969 12.167969 7.542969 C 14.152344 7.542969 16.132812 7.546875 18.113281 7.539062 C 18.386719 7.539062 18.523438 7.625 18.582031 7.914062 C 18.832031 9.136719 19.15625 10.34375 19.363281 11.574219 C 19.488281 12.328125 19.339844 13.09375 19.007812 13.804688 C 18.320312 15.261719 17.628906 16.71875 16.941406 18.179688 C 16.605469 18.890625 16.285156 19.609375 15.949219 20.320312 C 15.871094 20.492188 15.722656 20.578125 15.523438 20.539062 C 15.324219 20.5 15.316406 20.347656 15.316406 20.183594 C 15.320312 18.125 15.320312 16.066406 15.316406 14.007812 C 15.316406 13.835938 15.351562 13.75 15.539062 13.683594 C 15.996094 13.523438 16.335938 12.9375 16.304688 12.453125 C 16.273438 11.953125 15.847656 11.453125 15.359375 11.316406 C 14.570312 11.09375 13.804688 11.71875 13.757812 12.53125 C 13.726562 13.058594 14.144531 13.550781 14.796875 13.789062 C 14.796875 14.691406 14.796875 15.601562 14.796875 16.539062 Z M 14.796875 16.539062 "/>
<path style=" stroke:none;fill-rule:nonzero;fill:rgb(52.941179%,56.862748%,56.862748%);fill-opacity:1;" d="M 20.484375 22.445312 C 18.996094 22.449219 17.507812 22.453125 16.019531 22.457031 C 14.503906 22.457031 12.984375 22.457031 11.46875 22.457031 C 11.121094 22.457031 10.96875 22.339844 10.96875 22.082031 C 10.964844 21.824219 11.121094 21.703125 11.464844 21.703125 C 14.382812 21.703125 17.300781 21.707031 20.21875 21.691406 C 20.511719 21.691406 20.640625 21.851562 20.75 22.035156 C 20.847656 22.199219 20.78125 22.355469 20.53125 22.390625 C 20.5 22.421875 20.492188 22.433594 20.484375 22.445312 Z M 20.484375 22.445312 "/>
<path style=" stroke:none;fill-rule:nonzero;fill:rgb(52.941179%,56.862748%,56.862748%);fill-opacity:1;" d="M 10.203125 22.296875 C 9.835938 22.695312 9.40625 22.652344 9.289062 22.210938 C 9.253906 22.070312 9.3125 21.839844 9.414062 21.746094 C 9.523438 21.640625 9.761719 21.578125 9.898438 21.625 C 10.03125 21.667969 10.125 21.871094 10.207031 22.019531 C 10.242188 22.082031 10.210938 22.1875 10.203125 22.296875 Z M 10.203125 22.296875 "/>
<path style=" stroke:none;fill-rule:nonzero;fill:rgb(52.941179%,56.862748%,56.862748%);fill-opacity:1;" d="M 20.5 22.445312 C 20.492188 22.433594 20.5 22.421875 20.523438 22.40625 C 20.539062 22.421875 20.53125 22.4375 20.5 22.445312 Z M 20.5 22.445312 "/>
</g>
</svg>
