<svg width="28" height="28" viewBox="0 0 28 28" xmlns="http://www.w3.org/2000/svg" xmlns:xlink="http://www.w3.org/1999/xlink">
    <defs>
        <path d="M5.038 0A5.039 5.039 0 0 0 0 5.039v13.888A5.073 5.073 0 0 0 5.073 24h13.854A5.073 5.073 0 0 0 24 18.927V5.073A5.073 5.073 0 0 0 18.927 0H5.038z" id="a"/>
        <path id="d" d="M0 0h15.728v18.609H0z"/>
        <path id="f" d="M0 0h5.766v18.61H0z"/>
        <path id="h" d="M0 0h5.766v18.61H0z"/>
        <linearGradient x1="82.278%" y1="101.656%" x2="17.693%" y2="-1.703%" id="b">
            <stop stop-color="#596BE8" offset="0%"/>
            <stop stop-color="#3344C6" offset="100%"/>
        </linearGradient>
    </defs>
    <g fill="none" fill-rule="evenodd">
        <path fill="#FFF" d="M0 0h28v28H0z"/>
        <g transform="translate(2 2)">
            <mask id="c" fill="#fff">
                <use xlink:href="#a"/>
            </mask>
            <path d="M5.038 0A5.039 5.039 0 0 0 0 5.039v13.888A5.073 5.073 0 0 0 5.073 24h13.854A5.073 5.073 0 0 0 24 18.927V5.073A5.073 5.073 0 0 0 18.927 0H5.038z" fill="url(#b)" mask="url(#c)"/>
        </g>
        <g transform="translate(2 2)">
            <mask id="e" fill="#fff">
                <use xlink:href="#d"/>
            </mask>
            <path d="m12.495 18.609-.017-.42 3.25-11.88-1.755-6.31H5.04a5.039 5.039 0 0 0-5.04 5.04v1.968L11.55 18.61h.945z" fill="#3546B9" mask="url(#e)"/>
        </g>
        <path d="M17.96 23.461c-.234 0-.422-.224-.422-.5s.188-.5.422-.5h4.455c.234 0 .422.224.422.5s-.188.5-.422.5H17.96zm-6.188 0c-.233 0-.422-.224-.422-.5s.189-.5.422-.5h4.5c.233 0 .422.224.422.5s-.189.5-.422.5h-4.5zm-6.187 0c-.233 0-.422-.224-.422-.5s.189-.5.422-.5h4.5c.233 0 .422.224.422.5s-.19.5-.422.5h-4.5zM7.84 19.543l.843-.843a.381.381 0 0 1 .54 0l.017.017a.381.381 0 0 1 0 .54l-.843.842.843.844a.38.38 0 0 1 0 .539l-.017.017a.381.381 0 0 1-.54 0l-.843-.843-.843.843a.38.38 0 0 1-.539 0l-.017-.017a.38.38 0 0 1 0-.54l.843-.843-.843-.842a.381.381 0 0 1 0-.54l.017-.017a.38.38 0 0 1 .54 0l.842.843z" fill="#FFF"/>
        <g transform="translate(8.256 2)">
            <mask id="g" fill="#fff">
                <use xlink:href="#f"/>
            </mask>
            <path d="M0 7.131a6.71 6.71 0 0 0 .866 3.297l4.346 7.704.035.056a.212.212 0 1 0 .247.21V6.782a1.928 1.928 0 0 1-1.698-2.028c.06-1.02.95-1.816 1.97-1.815V0H0V7.13z" fill="#BDC7CE" mask="url(#g)"/>
        </g>
        <g transform="translate(14.022 2)">
            <mask id="i" fill="#fff">
                <use xlink:href="#h"/>
            </mask>
            <path d="M0 2.94c1.02 0 1.91.796 1.97 1.815A1.928 1.928 0 0 1 .27 6.783v11.6h.001v.013a.212.212 0 1 0 .247-.209l.036-.055L4.9 10.428a6.715 6.715 0 0 0 .866-3.297V0H0v2.94z" fill="#FFF" mask="url(#i)"/>
        </g>
    </g>
</svg>
