<svg xmlns="http://www.w3.org/2000/svg" width="68" height="88" viewBox="0 0 68 88">
    <defs>
        <linearGradient id="a" x1="50.486%" x2="49.86%" y1="132.903%" y2="41.27%">
            <stop offset="0%" stop-color="#91A3FA"/>
            <stop offset="100%" stop-color="#586AF2"/>
        </linearGradient>
        <linearGradient id="b" x1="37.821%" x2="84.034%" y1="-15.668%" y2="86.451%">
            <stop offset="0%" stop-color="#364494"/>
            <stop offset="30%" stop-color="#334191"/>
            <stop offset="60%" stop-color="#354393" stop-opacity=".4"/>
            <stop offset="90%" stop-color="#354393" stop-opacity=".3"/>
        </linearGradient>
    </defs>
    <g fill="none" fill-rule="evenodd">
        <path fill="url(#a)" d="M56.777 10.133L49.4.723 46.649 0H2.093A2.093 2.093 0 0 0 0 2.093v83.814C0 87.063.937 88 2.093 88h63.815A2.092 2.092 0 0 0 68 85.908l-.013-64.522L67 19.063l-10.223-8.93z"/>
        <path fill="url(#b)" d="M49.711 17.738L68 35.691l-.013-14.3s-.9-3.868-4.208-3.868c-3.308 0-14.068.215-14.068.215z"/>
        <path fill="#7285F2" d="M66.786 17.738l-6.813-7.063-9.3-9.183-.013-.013a.312.312 0 0 0-.026-.026l-.017-.017-.076-.076-.086-.085-.023-.022-.31-.306-.112-.111-.16-.158-.142-.14C49.187.02 46.649 0 46.649 0c3 1.093 3.062 3.218 3.062 3.376v14.362h13.732c.832.043 3.154.461 4.544 3.648 0 0 .225-2.17-1.201-3.648z"/>
        <path fill="#FFF" fill-rule="nonzero" d="M15.12 52.935V39.559h5.43c3.355 0 5.976 1.012 5.976 4.1 0 3.235-2.873 4.193-6.06 4.193H17.72v5.08l-2.6.003zm2.6-7.05h2.872c2.307 0 3.355-.614 3.355-2.151 0-1.482-1.048-2.115-3.376-2.115H17.72v4.266zM28.34 52.935V39.559h4.424c4.864 0 8.051 1.952 8.051 6.634 0 4.771-3.249 6.742-8.051 6.742H28.34zm2.621-2.025H33c3.543 0 5.2-1.337 5.2-4.717 0-3.218-1.678-4.537-5.242-4.537h-1.997v9.254z"/>
        <path fill="#FFF" d="M43.11 52.935V39.559h9.77v2.1h-7.149v3.578h5.179v2.007h-5.179v5.694z"/>
    </g>
</svg>
