<svg xmlns="http://www.w3.org/2000/svg" xmlns:xlink="http://www.w3.org/1999/xlink" width="237" height="219" viewBox="0 0 237 219">
    <defs>
        <path id="a" d="M4.331 92.204c0-25.372.001-50.744-.002-76.116 0-1.139.167-2.237.703-3.239 1.147-2.144 2.903-3.287 5.274-3.379.133-.004.266-.001.398-.001 21.627 0 43.254 0 64.88-.003.718 0 1.422.056 2.11.28 2.478.808 4.175 3.148 4.26 5.877.006.207.003.414.003.62 0 50.658 0 101.316.003 151.973 0 .815-.061 1.618-.304 2.396-.803 2.576-3.088 4.319-5.699 4.351-.149.002-.298.002-.447.002-21.61 0-43.22-.001-64.831.004-.804 0-1.587-.084-2.343-.373-2.379-.905-3.951-3.209-4.003-5.863-.004-.224-.002-.448-.002-.672V92.204"/>
    </defs>
    <g fill="none" fill-rule="evenodd">
        <g>
            <path fill="#494949" d="M6.5 0h130c3.59 0 6.5 2.909 6.5 6.497v206.006a6.499 6.499 0 0 1-6.5 6.497H6.5c-3.59 0-6.5-2.909-6.5-6.497V6.497A6.499 6.499 0 0 1 6.5 0z"/>
            <path fill="#494949" d="M6.5.916h130c1.542 0 2.938.625 3.948 1.635a5.562 5.562 0 0 1 1.635 3.946v206.006a5.562 5.562 0 0 1-1.635 3.946 5.567 5.567 0 0 1-3.948 1.635H6.5a5.567 5.567 0 0 1-3.948-1.635 5.562 5.562 0 0 1-1.635-3.946V6.497c0-1.54.625-2.936 1.635-3.946A5.567 5.567 0 0 1 6.5.916z"/>
            <ellipse cx="71.5" cy="4.204" fill="#FFF" rx="1" ry="1"/>
            <rect width="127.706" height="205.241" x="7.647" y="6.88" fill="#FFF" rx="7"/>
            <path fill="#B5B5B5" d="M7.647 194.54h127.706V42.423H7.647z"/>
            <path fill="#FFF" d="M17.206 48.539h108.588v141.796H17.206z"/>
            <g fill-rule="nonzero">
                <path fill="#94D3F2" d="M45.968 126.126h-8.583c-.794 0-1.444-.628-1.444-1.395v-8.294c0-.768.65-1.395 1.444-1.395h8.583c.794 0 1.444.627 1.444 1.395v8.294c0 .767-.65 1.395-1.444 1.395zM45.968 108.545h-8.583c-.794 0-1.444-.628-1.444-1.395v-8.294c0-.768.65-1.395 1.444-1.395h8.583c.794 0 1.444.627 1.444 1.395v8.294c0 .767-.65 1.395-1.444 1.395z" opacity=".5"/>
                <path fill="#94D357" d="M106.506 146H68.612c-.935 0-1.7-.758-1.7-1.686v-14.21c0-.927.765-1.685 1.7-1.685h37.894c.935 0 1.7.758 1.7 1.685v14.21c0 .928-.765 1.686-1.7 1.686z" opacity=".5"/>
                <g fill="#A8B2FF" transform="translate(34.794 57.33)">
                    <ellipse cx="4.722" cy="4.513" rx="4.355" ry="4.43"/>
                    <path d="M71.75 8.247H14.182c-1.072 0-1.95-.892-1.95-1.982V2.762c0-1.09.878-1.983 1.95-1.983H71.75c1.072 0 1.95.892 1.95 1.983v3.503c0 1.09-.878 1.982-1.95 1.982z"/>
                </g>
                <path fill="#EF95CF" d="M106.375 78.733H37.007c-.589 0-1.066-.463-1.066-1.034v-1.372c0-.57.477-1.034 1.066-1.034h69.368c.589 0 1.066.463 1.066 1.034V77.7c0 .57-.477 1.034-1.066 1.034z"/>
                <path fill="#B7B7B7" d="M107.448 150.204h-4.602a.761.761 0 0 1-.758-.764c0-.422.34-.765.758-.765h4.602c.418 0 .758.343.758.765s-.34.764-.758.764zM99.418 150.204h-4.601a.761.761 0 0 1-.758-.764c0-.422.34-.765.758-.765h4.601c.419 0 .758.343.758.765s-.339.764-.758.764zM91.771 150.204H87.17a.761.761 0 0 1-.758-.764c0-.422.34-.765.758-.765h4.601c.419 0 .758.343.758.765s-.339.764-.758.764zM83.742 150.204H79.14a.761.761 0 0 1-.759-.764c0-.422.34-.765.759-.765h4.6c.42 0 .759.343.759.765s-.34.764-.758.764zM76.095 150.204h-4.602a.761.761 0 0 1-.758-.764c0-.422.34-.765.758-.765h4.602c.418 0 .758.343.758.765s-.34.764-.758.764zM68.065 150.204h-4.6a.761.761 0 0 1-.76-.764c0-.422.34-.765.76-.765h4.6c.42 0 .759.343.759.765s-.34.764-.759.764zM60.036 150.204h-4.601a.761.761 0 0 1-.759-.764c0-.422.34-.765.759-.765h4.6c.42 0 .76.343.76.765s-.34.764-.76.764zM62.145 140.458l2.312-2.31a.55.55 0 1 0-.778-.778l-2.311 2.31-2.312-2.31a.55.55 0 0 0-.777.778l2.311 2.31-2.311 2.31a.55.55 0 1 0 .777.778l2.312-2.31 2.311 2.31a.55.55 0 0 0 .778-.777l-2.312-2.31z"/>
                <path fill="#DDD" d="M106.33 182.691H37.053a1.11 1.11 0 0 1-1.11-1.11v-2.367c0-.612.496-1.11 1.11-1.11h69.279c.613 0 1.11.498 1.11 1.11v2.367a1.11 1.11 0 0 1-1.11 1.11zM106.33 172.754H37.053a1.11 1.11 0 0 1-1.11-1.11v-2.367c0-.613.496-1.11 1.11-1.11h69.279c.613 0 1.11.497 1.11 1.11v2.367a1.11 1.11 0 0 1-1.11 1.11zM104.811 105.487H53.866a1.102 1.102 0 0 1-1.101-1.103v-2.38c0-.61.493-1.103 1.1-1.103h50.946c.608 0 1.1.493 1.1 1.102v2.381c0 .61-.492 1.103-1.1 1.103zM95.575 122.304h-41.65a1.16 1.16 0 0 1-1.16-1.16v-2.268c0-.64.52-1.159 1.16-1.159h41.65c.64 0 1.16.52 1.16 1.16v2.268c0 .64-.52 1.159-1.16 1.159z"/>
                <path fill="#B7B7B7" d="M44.533 108.927h-6.096a2.881 2.881 0 0 1-2.878-2.877v-6.094a2.881 2.881 0 0 1 2.878-2.877h6.096a2.881 2.881 0 0 1 2.879 2.877v6.094a2.881 2.881 0 0 1-2.879 2.877zm-6.096-10.824a1.855 1.855 0 0 0-1.853 1.852v6.094c0 1.022.831 1.853 1.853 1.853h6.096a1.855 1.855 0 0 0 1.854-1.853v-6.094a1.855 1.855 0 0 0-1.854-1.852h-6.096zM44.533 126.508h-6.096a2.881 2.881 0 0 1-2.878-2.877v-6.094a2.881 2.881 0 0 1 2.878-2.877h6.096a2.881 2.881 0 0 1 2.879 2.877v6.094a2.881 2.881 0 0 1-2.879 2.877zm-6.096-10.824a1.855 1.855 0 0 0-1.853 1.852v6.094c0 1.022.831 1.853 1.853 1.853h6.096a1.855 1.855 0 0 0 1.854-1.853v-6.094a1.855 1.855 0 0 0-1.854-1.852h-6.096z"/>
                <path fill="#000" d="M71.25 144.853a.52.52 0 0 1-.488-.684c.013-.039 1.323-3.974 3.013-7.876 3.163-7.304 4.863-8.21 5.867-8.255.718-.03 1.36.433 1.911 1.385 1.204 2.075 1.934 6.633 1.757 10.24.085.03.166.064.245.102.042-1.427.463-3.172 2.138-3.806.682-.258 1.134-.043 1.394.183.26.227.439.588.554 1.031.146-.212.306-.37.482-.46.308-.159.649-.139.959.055 1.15.716.868 1.978.662 2.9-.122.55-.25 1.117-.06 1.373.117.158.352.417.615.367.27-.052.647-.436.899-1.36.099-.362.247-.91.73-.948.455-.034.646.386.829.794.311.695.643 1.32 1.265 1.32 1.842 0 9.005-.065 9.076-.066h.005c.282 0 .512.23.515.515a.517.517 0 0 1-.51.524c-.073 0-7.24.065-9.086.065-1.064 0-1.638-.795-1.98-1.46-.46 1.243-1.154 1.56-1.552 1.637-.593.113-1.186-.167-1.63-.766-.473-.639-.285-1.48-.12-2.223.22-.984.273-1.483-.185-1.78-.243.182-.52.991-.758 2.117-.093 1.588-.405 3.171-.514 3.687a.513.513 0 0 1-.577.405.518.518 0 0 1-.44-.555c.07-.885.22-2.375.508-3.724.072-1.317-.022-2.37-.359-2.661-.032-.028-.107-.094-.36.002-1.682.636-1.536 3.166-1.396 4.224a2.4 2.4 0 0 1 .088.579.518.518 0 0 1-.46.516.517.517 0 0 1-.557-.406 6.965 6.965 0 0 1-.083-.486 1.125 1.125 0 0 0-.423-.591c-.142 1.278-.42 2.368-.86 3.08-.548.89-1.222 1.035-1.694 1.001-2.218-.162-2.559-1.333-2.602-1.829-.119-1.358 1.32-2.855 3.208-3.338a4.824 4.824 0 0 1 1.004-.155c.145-3.302-.461-7.591-1.615-9.58-.193-.333-.577-.896-.977-.871-1.984.09-5.843 9.073-7.95 15.423a.514.514 0 0 1-.488.355zm10.955-4.281a4.003 4.003 0 0 0-.677.117c-1.473.376-2.5 1.492-2.435 2.24.06.693 1.174.849 1.65.884.178.012.447-.027.747-.514.36-.584.595-1.556.715-2.727z"/>
                <path fill="#EA0000" d="M40.03 123.45a.653.653 0 0 1-.567-.332l-2.67-4.712a.662.662 0 0 1 .242-.899.65.65 0 0 1 .892.245l2.224 3.925 6.124-6.801a.65.65 0 0 1 .923-.045.663.663 0 0 1 .044.93l-6.728 7.474a.652.652 0 0 1-.484.215z"/>
            </g>
            <rect width="56.588" height="3.44" x="43.206" y="17.199" fill="#1F2E4E" rx="1.72"/>
            <ellipse cx="19.5" cy="34.016" fill="#C9E9AB" rx="3.441" ry="3.44"/>
            <path fill="#D8D8D8" d="M29.824 32.487H123.5v3.058H29.824z"/>
        </g>
        <g transform="translate(151 36)">
            <path fill="#323232" d="M.675 76.26A.896.896 0 0 1 0 75.391V61.97c0-.417.287-.767.675-.866V52.32A.896.896 0 0 1 0 51.455V27.293c0-.417.287-.767.675-.866V10.738C.675 4.808 5.514 0 11.482 0h63.036c5.968 0 10.807 4.808 10.807 10.738v38.955c.388.1.675.45.675.867v13.423a.896.896 0 0 1-.675.867v107.412c0 5.93-4.839 10.738-10.807 10.738H11.482C5.514 183 .675 178.192.675 172.262V76.259z"/>
            <path fill="#FFF" d="M58.842 4.59c.62 0 1.124.513 1.124 1.147 0 .633-.503 1.147-1.124 1.147-.62 0-1.124-.514-1.124-1.147 0-.634.503-1.148 1.124-1.148zm-10.402.573a.574.574 0 0 1 0 1.147H37.225a.574.574 0 0 1 0-1.147H48.44z"/>
            <mask id="b" fill="#fff">
                <use xlink:href="#a"/>
            </mask>
            <use fill="#FFF" xlink:href="#a"/>
            <rect width="42.711" height="2.582" x="21.933" y="15.776" fill="#1F2E4E" mask="url(#b)" rx="1.291"/>
            <ellipse cx="8.946" cy="28.397" fill="#C9E9AB" mask="url(#b)" rx="2.597" ry="2.582"/>
            <path fill="#D8D8D8" d="M16.738 27.249h58.295v2.295H16.738zM4.329 35.281H81.96v123.052H4.329z" mask="url(#b)"/>
            <path fill="#FFF" d="M5.772 41.017h74.456v111.578H5.772z" mask="url(#b)"/>
            <g fill-rule="nonzero" mask="url(#b)">
                <path fill="#94D3F2" d="M24.559 102.113h-6.695c-.62 0-1.126-.487-1.126-1.083v-6.44c0-.595.507-1.082 1.126-1.082h6.695c.62 0 1.126.487 1.126 1.083v6.439c0 .596-.507 1.083-1.126 1.083zM24.559 88.058h-6.695c-.62 0-1.126-.487-1.126-1.083v-6.44c0-.595.507-1.082 1.126-1.082h6.695c.62 0 1.126.487 1.126 1.083v6.44c0 .595-.507 1.082-1.126 1.082z" opacity=".5"/>
                <path fill="#94D357" d="M72.537 117.602H42.61a1.335 1.335 0 0 1-1.343-1.32v-11.128c0-.726.605-1.32 1.343-1.32h29.926c.738 0 1.342.594 1.342 1.32v11.128c0 .726-.604 1.32-1.342 1.32z" opacity=".5"/>
                <g fill="#A8B2FF" transform="translate(15.872 47.901)">
                    <ellipse cx="3.73" cy="3.528" rx="3.441" ry="3.463"/>
                    <path d="M56.68 6.447H11.204a1.55 1.55 0 0 1-1.54-1.55V2.16c0-.852.693-1.55 1.54-1.55h45.478c.847 0 1.54.698 1.54 1.55v2.738a1.55 1.55 0 0 1-1.54 1.55z"/>
                </g>
                <path fill="#EF95CF" d="M72.459 64.824H17.58c-.465 0-.843-.347-.843-.776V63.02c0-.428.378-.776.843-.776H72.46c.465 0 .843.348.843.776v1.03c0 .428-.377.775-.843.775z"/>
                <path fill="#B7B7B7" d="M73.271 121.044h-3.69c-.336 0-.608-.257-.608-.574 0-.317.272-.573.608-.573h3.69c.336 0 .608.256.608.573 0 .317-.272.574-.608.574zM66.922 121.044h-3.69c-.336 0-.608-.257-.608-.574 0-.317.272-.573.608-.573h3.69c.336 0 .608.256.608.573 0 .317-.272.574-.608.574zM60.862 121.044h-3.69c-.336 0-.608-.257-.608-.574 0-.317.272-.573.608-.573h3.69c.336 0 .608.256.608.573 0 .317-.272.574-.608.574zM54.513 121.044h-3.69c-.336 0-.608-.257-.608-.574 0-.317.272-.573.608-.573h3.69c.336 0 .608.256.608.573 0 .317-.272.574-.608.574zM48.452 121.044h-3.69c-.335 0-.608-.257-.608-.574 0-.317.273-.573.608-.573h3.69c.336 0 .608.256.608.573 0 .317-.272.574-.608.574zM42.103 121.044h-3.69c-.335 0-.608-.257-.608-.574 0-.317.273-.573.608-.573h3.69c.336 0 .608.256.608.573 0 .317-.272.574-.608.574zM35.754 121.044h-3.69c-.335 0-.608-.257-.608-.574 0-.317.273-.573.608-.573h3.69c.336 0 .608.256.608.573 0 .317-.272.574-.608.574zM37.561 113.3l1.847-1.837a.435.435 0 0 0 0-.617.441.441 0 0 0-.621 0l-1.847 1.836-1.848-1.836a.441.441 0 0 0-.621 0 .435.435 0 0 0 0 .617l1.847 1.836-1.847 1.836a.435.435 0 0 0 0 .618c.172.17.45.17.621 0l1.848-1.836 1.847 1.836c.171.17.45.17.621 0a.435.435 0 0 0 0-.618l-1.847-1.836z"/>
                <path fill="#DDD" d="M72.423 146.572H17.617a.89.89 0 0 1-.879-.902v-1.925a.89.89 0 0 1 .879-.902h54.806a.89.89 0 0 1 .879.902v1.925a.89.89 0 0 1-.879.902zM72.423 138.828H17.617a.89.89 0 0 1-.879-.903v-1.924a.89.89 0 0 1 .879-.902h54.806a.89.89 0 0 1 .879.902v1.924a.89.89 0 0 1-.879.903zM70.993 85.763H30.88c-.479 0-.867-.401-.867-.896V82.93c0-.495.388-.897.867-.897h40.112c.479 0 .867.402.867.897v1.936c0 .495-.388.896-.866.896zM63.73 99.245H30.927c-.504 0-.914-.422-.914-.943v-1.844c0-.52.41-.942.914-.942H63.73c.505 0 .914.422.914.942v1.844c0 .52-.409.943-.914.943z"/>
                <path fill="#B7B7B7" d="M23.442 88.632h-4.75c-1.236 0-2.242-1.032-2.242-2.299v-4.868c0-1.268 1.006-2.299 2.242-2.299h4.75c1.237 0 2.243 1.031 2.243 2.299v4.868c0 1.267-1.006 2.299-2.243 2.299zm-4.75-8.648c-.796 0-1.444.664-1.444 1.48v4.869c0 .816.648 1.48 1.444 1.48h4.75c.796 0 1.444-.664 1.444-1.48v-4.869c0-.816-.648-1.48-1.444-1.48h-4.75zM23.442 102.4h-4.75c-1.236 0-2.242-1.031-2.242-2.299v-4.868c0-1.268 1.006-2.299 2.242-2.299h4.75c1.237 0 2.243 1.031 2.243 2.299v4.868c0 1.268-1.006 2.299-2.243 2.299zm-4.75-8.648c-.796 0-1.444.664-1.444 1.48v4.869c0 .816.648 1.48 1.444 1.48h4.75c.796 0 1.444-.664 1.444-1.48v-4.869c0-.816-.648-1.48-1.444-1.48h-4.75z"/>
                <path fill="#000" d="M44.561 116.741a.407.407 0 0 1-.385-.537c.01-.03 1.045-3.118 2.38-6.18 2.498-5.73 3.84-6.44 4.633-6.476.568-.023 1.074.34 1.51 1.086.951 1.629 1.528 5.205 1.388 8.035.067.023.131.05.193.08.034-1.12.366-2.489 1.69-2.986.538-.203.895-.034 1.1.144.206.178.347.46.438.808.115-.166.242-.29.38-.361a.749.749 0 0 1 .758.043c.908.562.685 1.553.523 2.275-.096.432-.197.878-.047 1.078.092.124.278.327.485.288.213-.04.512-.342.71-1.067.078-.284.196-.714.577-.744.36-.026.51.303.655.623.246.546.508 1.035 1 1.035 1.454 0 7.112-.05 7.168-.05h.004a.407.407 0 0 1 .004.814c-.057 0-5.718.051-7.177.051-.84 0-1.294-.624-1.564-1.145-.363.975-.911 1.224-1.225 1.284-.469.089-.938-.13-1.289-.601-.373-.5-.224-1.162-.094-1.744.174-.772.216-1.164-.146-1.396-.192.143-.41.777-.599 1.66-.073 1.246-.32 2.489-.406 2.893a.407.407 0 0 1-.803-.117c.055-.695.173-1.864.401-2.922.057-1.034-.018-1.86-.283-2.088-.025-.022-.085-.074-.285.001-1.329.5-1.214 2.484-1.103 3.315.068.248.07.438.07.454a.407.407 0 0 1-.804.086 5.432 5.432 0 0 1-.065-.381.883.883 0 0 0-.334-.464c-.112 1.003-.332 1.858-.679 2.417-.433.698-.965.812-1.339.785-1.752-.127-2.02-1.046-2.055-1.435-.093-1.066 1.043-2.24 2.534-2.619.284-.072.548-.112.793-.122.115-2.59-.364-5.956-1.275-7.516-.153-.261-.456-.703-.772-.684-1.567.071-4.615 7.12-6.28 12.102a.406.406 0 0 1-.385.278zm8.653-3.36a3.181 3.181 0 0 0-.535.093c-1.163.295-1.975 1.17-1.923 1.757.048.545.927.667 1.304.694.14.01.352-.021.59-.403.284-.459.47-1.22.564-2.14z"/>
                <path fill="#EA0000" d="M19.914 99.818a.51.51 0 0 1-.443-.26l-2.088-3.69a.519.519 0 0 1 .19-.704.508.508 0 0 1 .697.192l1.739 3.074 4.787-5.327a.507.507 0 0 1 .721-.035.52.52 0 0 1 .035.73l-5.26 5.851a.51.51 0 0 1-.378.17z"/>
            </g>
        </g>
    </g>
</svg>
