<svg xmlns="http://www.w3.org/2000/svg" xmlns:xlink="http://www.w3.org/1999/xlink" width="254" height="157" viewBox="0 0 254 157">
    <defs>
        <path id="a" d="M0 0h219.959v123.638H0z"/>
    </defs>
    <g fill="none" fill-rule="evenodd">
        <path fill="#494949" d="M14.402 0h225.682a5.235 5.235 0 0 1 5.237 5.233V145.67H9.165V5.233A5.235 5.235 0 0 1 14.402 0zM0 146.318h253.973v2.832c0 4.335-3.517 7.85-7.856 7.85H7.856C3.517 157 0 153.485 0 149.15v-2.832z"/>
        <path fill="#FFF" d="M79.367 146.965h95.887v.62a2.618 2.618 0 0 1-2.618 2.617h-90.65a2.618 2.618 0 0 1-2.62-2.617v-.62z"/>
        <use fill="#8291FF" transform="translate(17.17 11)" xlink:href="#a"/>
        <ellipse cx="126.177" cy="5.341" fill="#FFF" rx="1.458" ry="1.457"/>
        <path fill="#B5B5B5" d="M55.644 20.279h172.825v108.265H55.644z"/>
        <path fill="#FFF" d="M55.644 20.279h172.825v11.775H55.644z"/>
        <path fill="#586AF2" fill-rule="nonzero" d="M213.067 31.037c-2.497 0-4.564-2.066-4.564-4.561 0-2.491 2.063-4.561 4.56-4.561 2.492 0 4.569 2.07 4.569 4.56 0 2.496-2.072 4.562-4.565 4.562zm0-7.137c-.86 0-1.544.751-1.535 1.655 0 .961.671 1.677 1.535 1.686.86.008 1.535-.725 1.535-1.686 0-.904-.68-1.655-1.535-1.655zm2.721 5.223c-.385-.536-1.347-1.122-2.72-1.122-1.38 0-2.337.586-2.726 1.122l-.014.058c.69.734 1.71 1.154 2.74 1.154 1.024 0 2.044-.42 2.733-1.154l-.013-.058z"/>
        <path fill="#586AF2" d="M178.39 23.877h19.966c.723 0 1.309.586 1.309 1.308v2.617c0 .723-.586 1.308-1.31 1.308H178.39c-.723 0-1.31-.585-1.31-1.308v-2.617c0-.722.587-1.308 1.31-1.308z"/>
        <path fill="#979797" fill-rule="nonzero" d="M152.204 23.714h19.966c.814 0 1.473.659 1.473 1.471v2.617c0 .813-.66 1.472-1.473 1.472h-19.966a1.472 1.472 0 0 1-1.473-1.472v-2.617c0-.812.66-1.471 1.473-1.471zm0 .327c-.633 0-1.146.512-1.146 1.144v2.617c0 .632.513 1.145 1.146 1.145h19.966c.633 0 1.146-.513 1.146-1.145v-2.617c0-.632-.513-1.144-1.146-1.144h-19.966z"/>
        <path fill="#FFF" fill-rule="nonzero" d="M41.425 24.04c1.596 0 2.401.79 2.401 2.37v.582H26.212v-2.047c0-1.548.775-2.315 2.118-2.315h2.286c.76 0 1.15.146 1.657.567l.468.391c.383.322.698.453 1.22.453h7.464zM28.621 36.859c-1.595 0-2.409-.79-2.409-2.376v-6.447h17.614v6.447c0 1.579-.798 2.376-2.17 2.376H28.62zM41.398 48.838c1.596 0 2.401.79 2.401 2.368v.583H26.186v-2.047c0-1.548.774-2.315 2.117-2.315h2.286c.76 0 1.15.146 1.657.567l.468.391c.384.322.698.453 1.22.453h7.464zM28.594 61.655c-1.595 0-2.408-.79-2.408-2.376v-6.447h17.613v6.447c0 1.579-.797 2.376-2.17 2.376H28.593z"/>
        <rect width="140.093" height="87.985" x="72.01" y="36.96" fill="#FFF" rx="1"/>
        <g fill-rule="nonzero">
            <path fill="#94D3F2" d="M109.517 84.06H98.985a1.776 1.776 0 0 1-1.771-1.77V71.766c0-.974.797-1.77 1.771-1.77h10.532c.975 0 1.772.796 1.772 1.77V82.29c0 .974-.798 1.77-1.772 1.77zM109.517 62.146H98.985a1.776 1.776 0 0 1-1.771-1.77V49.85c0-.973.797-1.77 1.771-1.77h10.532c.975 0 1.772.797 1.772 1.77v10.525c0 .974-.798 1.77-1.772 1.77z" opacity=".5"/>
            <path fill="#94D357" d="M185.752 109.246h-47.458a2.137 2.137 0 0 1-2.13-2.133V89.137c0-1.173.959-2.133 2.13-2.133h47.458c1.171 0 2.13.96 2.13 2.133v17.976a2.137 2.137 0 0 1-2.13 2.133z" opacity=".5"/>
            <path fill="#B7B7B7" d="M186.908 114.152h-5.909a.977.977 0 0 1-.973-.981c0-.542.436-.981.973-.981h5.909c.538 0 .973.439.973.98a.977.977 0 0 1-.973.982zM177.088 114.152h-5.908a.977.977 0 0 1-.974-.981c0-.542.436-.981.974-.981h5.908c.538 0 .974.439.974.98a.977.977 0 0 1-.974.982zM166.941 114.152h-5.908a.977.977 0 0 1-.974-.981c0-.542.436-.981.974-.981h5.908c.538 0 .974.439.974.98a.977.977 0 0 1-.974.982zM157.122 114.152h-5.909a.977.977 0 0 1-.973-.981c0-.542.436-.981.973-.981h5.909c.537 0 .973.439.973.98a.977.977 0 0 1-.973.982zM147.302 114.152h-5.908a.977.977 0 0 1-.974-.981c0-.542.436-.981.974-.981h5.908c.538 0 .974.439.974.98a.977.977 0 0 1-.974.982zM137.483 114.152h-5.909a.977.977 0 0 1-.973-.981c0-.542.435-.981.973-.981h5.909c.537 0 .973.439.973.98a.977.977 0 0 1-.973.982zM127.663 114.152h-5.908a.977.977 0 0 1-.974-.981c0-.542.436-.981.974-.981h5.908c.538 0 .974.439.974.98a.977.977 0 0 1-.974.982zM129.982 102.377l3.026-3.024a.719.719 0 1 0-1.018-1.017l-3.026 3.024-3.026-3.024a.72.72 0 0 0-1.018 1.017l3.026 3.024-3.026 3.024a.719.719 0 1 0 1.018 1.017l3.026-3.024 3.026 3.024a.72.72 0 0 0 1.018-1.017l-3.026-3.024z"/>
            <path fill="#DDD" d="M183.553 57.894h-64.007c-.764 0-1.384-.634-1.384-1.416v-3.056c0-.782.62-1.416 1.384-1.416h64.006c.764 0 1.384.634 1.384 1.416v3.056c0 .782-.62 1.416-1.383 1.416zM171.7 79.481h-52.086c-.802 0-1.452-.666-1.452-1.488v-2.911c0-.822.65-1.488 1.452-1.488H171.7c.801 0 1.451.666 1.451 1.488v2.911c0 .822-.65 1.488-1.451 1.488z"/>
            <path fill="#B7B7B7" d="M107.96 62.473h-7.744a3.66 3.66 0 0 1-3.657-3.654v-7.738a3.66 3.66 0 0 1 3.657-3.654h7.744a3.66 3.66 0 0 1 3.656 3.654v7.738a3.66 3.66 0 0 1-3.656 3.654zm-7.744-13.745a2.356 2.356 0 0 0-2.355 2.352v7.739a2.356 2.356 0 0 0 2.355 2.352h7.744a2.356 2.356 0 0 0 2.354-2.352V51.08a2.356 2.356 0 0 0-2.354-2.352h-7.744zM107.96 84.715h-7.744a3.66 3.66 0 0 1-3.657-3.654v-7.739a3.66 3.66 0 0 1 3.657-3.653h7.744a3.66 3.66 0 0 1 3.656 3.653v7.739a3.66 3.66 0 0 1-3.656 3.654zm-7.744-13.746a2.356 2.356 0 0 0-2.355 2.353v7.738a2.356 2.356 0 0 0 2.355 2.353h7.744a2.356 2.356 0 0 0 2.354-2.353v-7.738a2.356 2.356 0 0 0-2.354-2.353h-7.744z"/>
            <path fill="#000" d="M141.398 107.61a.645.645 0 0 1-.617-.852c.017-.048 1.673-4.947 3.81-9.804 3.998-9.09 6.147-10.218 7.416-10.275.908-.037 1.719.539 2.416 1.723 1.522 2.583 2.445 8.258 2.221 12.748.107.036.21.079.31.127.053-1.777.585-3.95 2.703-4.739.862-.32 1.434-.053 1.762.229.33.282.555.731.701 1.283.184-.264.387-.461.61-.573.388-.197.819-.172 1.211.068 1.454.892 1.097 2.463.838 3.61-.155.684-.316 1.392-.077 1.71.148.197.446.519.778.457.34-.065.818-.543 1.136-1.693.125-.451.313-1.133.923-1.18.575-.042.817.48 1.047.988.395.865.814 1.642 1.6 1.642 2.329 0 11.384-.08 11.475-.08h.005a.65.65 0 0 1 .651.64.649.649 0 0 1-.645.652c-.091 0-9.15.08-11.485.08-1.346 0-2.072-.989-2.505-1.816-.58 1.547-1.457 1.943-1.96 2.038-.75.14-1.5-.208-2.062-.954-.597-.795-.36-1.843-.15-2.767.277-1.225.344-1.847-.235-2.215-.308.226-.657 1.233-.958 2.635-.118 1.976-.513 3.947-.65 4.588a.648.648 0 0 1-.73.505.647.647 0 0 1-.555-.69c.088-1.102.276-2.957.642-4.636.09-1.64-.029-2.95-.454-3.313-.04-.035-.136-.117-.456.002-2.126.793-1.942 3.941-1.764 5.259.108.394.11.695.11.72 0 .33-.25.608-.58.643a.652.652 0 0 1-.705-.506 8.55 8.55 0 0 1-.105-.605 1.4 1.4 0 0 0-.466-.687 1.103 1.103 0 0 0-.069-.048c-.179 1.591-.531 2.947-1.086 3.834-.693 1.107-1.545 1.289-2.143 1.246-2.804-.201-3.234-1.66-3.289-2.277-.15-1.69 1.67-3.555 4.055-4.155a6.187 6.187 0 0 1 1.27-.193c.183-4.11-.583-9.45-2.041-11.925-.245-.415-.73-1.116-1.235-1.085-2.508.113-7.387 11.295-10.05 19.2a.65.65 0 0 1-.618.441zm13.85-5.33c-.262.02-.548.069-.857.146-1.861.469-3.16 1.858-3.078 2.788.077.864 1.484 1.058 2.087 1.101.224.016.564-.033.943-.639.457-.728.753-1.937.904-3.395z"/>
            <path fill="#EA0000" d="M102.363 80.462a.82.82 0 0 1-.71-.407l-3.349-5.786a.804.804 0 0 1 .305-1.104.825.825 0 0 1 1.117.301l2.789 4.82 7.676-8.352a.826.826 0 0 1 1.157-.055c.334.3.36.812.055 1.143l-8.434 9.176a.825.825 0 0 1-.606.264z"/>
        </g>
        <path fill="#1F2E4E" d="M60.881 25.512h25.858v1.635H60.881z"/>
    </g>
</svg>
