<?xml version="1.0" encoding="UTF-8"?>
<svg width="45px" height="45px" viewBox="0 0 45 45" version="1.1" xmlns="http://www.w3.org/2000/svg" xmlns:xlink="http://www.w3.org/1999/xlink">
    <!-- Generator: Sketch 51.3 (57544) - http://www.bohemiancoding.com/sketch -->
    <title>ic-goodboy-del</title>
    <desc>Created with Sketch.</desc>
    <defs></defs>
    <g id="Page-3" stroke="none" stroke-width="1" fill="none" fill-rule="evenodd">
        <g id="task/cc" transform="translate(-756.000000, -1475.000000)">
            <g id="ic-goodboy-del" transform="translate(756.000000, 1475.000000)">
                <circle id="Oval-4" fill-opacity="0.01" fill="#D8D8D8" fill-rule="nonzero" cx="22.5" cy="22.5" r="22.5"></circle>
                <g id="Group-7" transform="translate(3.000000, 13.000000)">
                    <g id="Group" transform="translate(0.000000, 3.000000)">
                        <g id="Rectangle">
                            <g id="path-1-link" transform="translate(1.000000, 1.000000)" fill="#FFFFFF">
                                <rect id="path-1" x="0" y="0" width="35" height="15" rx="2"></rect>
                            </g>
                            <rect id="Rectangle-path" stroke="#FFFFFF" stroke-width="2" x="0" y="0" width="37" height="17" rx="2"></rect>
                            <rect id="Rectangle-path" stroke="#586AF2" x="1.5" y="1.5" width="34" height="14" rx="2"></rect>
                        </g>
                        <g id="Goodboy" transform="translate(7.000000, 5.000000)" fill="#000000" fill-rule="nonzero">
                            <path d="M4.8818359,4.59814453 L4.8818359,4.83105469 C4.5478499,5.11230609 4.2167985,5.38110223 3.88867188,5.63745117 C3.56054523,5.89380011 3.16211172,6.1801742 2.69335938,6.496582 C2.4531238,6.8247087 2.2465829,7.0935048 2.07373047,7.3029785 C1.90087804,7.5124522 1.75146547,7.6860345 1.62548828,7.8237305 C1.49951109,7.9614265 1.43505861,8.0317383 1.43212891,8.034668 C1.39111308,8.0844729 1.32226611,8.1342771 1.22558594,8.184082 C1.12890577,8.233887 1.04834017,8.2587891 0.98388672,8.2587891 C0.89306595,8.2587891 0.81762725,8.2258304 0.75756836,8.1599121 C0.69750947,8.0939938 0.66748047,8.0156255 0.66748047,7.9248047 C0.66748047,7.6904285 0.79052611,7.4406752 1.03662109,7.1755371 C1.28271607,6.9103991 1.64306403,6.6386733 2.11767578,6.3603516 C2.35205195,6.0234358 2.57617081,5.68432788 2.79003906,5.34301758 C3.00390732,5.00170728 3.19067303,4.69043109 3.3503418,4.40917969 C3.51001056,4.12792828 3.65722589,3.85107558 3.79199219,3.57861328 C3.58105363,3.75439541 3.37158307,3.92358317 3.16357422,4.08618164 C2.95556537,4.24878011 2.75195412,4.40405199 2.55273438,4.55200195 C2.35351463,4.69995191 2.23046898,4.79150373 2.18359375,4.82666016 L2.06054688,4.91894531 C1.5507787,5.36426004 1.16992313,5.58691406 0.91796875,5.58691406 C0.67773317,5.58691406 0.47558676,5.47265739 0.31152344,5.24414062 C0.14746012,5.01562386 0.06542969,4.72705252 0.06542969,4.37841797 C0.06542969,4.15869031 0.10058559,3.92944455 0.17089844,3.69067383 C0.24121129,3.4519031 0.34887623,3.20654423 0.49389648,2.95458984 C0.63891674,2.70263546 0.81249899,2.45947383 1.01464844,2.22509766 C1.21679789,1.99072148 1.43945191,1.77539161 1.68261719,1.57910156 C2.05761906,1.28027194 2.47802501,1.01294063 2.94384766,0.77709961 C3.4096703,0.54125859 3.84325971,0.36108461 4.2446289,0.23657227 C4.6459981,0.11205992 4.9418936,0.04980469 5.1323242,0.04980469 C5.2436529,0.04980469 5.3322751,0.07690403 5.3981934,0.13110352 C5.4641117,0.18530301 5.5109862,0.25854446 5.5388184,0.35083008 C5.5666505,0.4431157 5.5805664,0.54052683 5.5805664,0.64306641 C5.5805664,0.73681687 5.5512698,0.83056594 5.4926758,0.92431641 C5.4077144,1.0502936 5.2583019,1.18286063 5.0444336,1.32202148 C4.8305653,1.46118234 4.6152355,1.58422798 4.3984375,1.69116211 C4.1816395,1.79809624 4.0571291,1.8515625 4.0249023,1.8515625 C4.0073241,1.8515625 3.99853516,1.84570318 3.99853516,1.83398438 C3.99853516,1.80761706 4.0322262,1.76513701 4.0996094,1.70654297 C4.1669925,1.64794893 4.2416988,1.58789093 4.3237305,1.52636719 C4.505372,1.38867119 4.6123045,1.24218828 4.6445312,1.08691406 C4.3603501,1.16601602 4.0776381,1.27001889 3.79638672,1.39892578 C3.51513531,1.52783268 3.23681778,1.68163973 2.96142578,1.86035156 C2.68603378,2.03906339 2.41064591,2.24267464 2.13525391,2.47119141 C1.82470548,2.7319349 1.56030383,3.0036607 1.34204102,3.28637695 C1.12377821,3.56909321 0.95825252,3.83056521 0.84545898,4.07080078 C0.73266545,4.31103636 0.67626953,4.49560482 0.67626953,4.62451172 C0.67626953,4.72119189 0.70703094,4.80541956 0.76855469,4.87719727 C0.83007843,4.94897497 0.91357369,4.98486328 1.01904297,4.98486328 C1.14209046,4.98486328 1.29443269,4.9306646 1.47607422,4.82226562 C1.67236426,4.70507754 1.88842656,4.55493256 2.12426758,4.37182617 C2.3601086,4.18871979 2.57763572,4.01513754 2.77685547,3.85107422 C2.97607521,3.6870109 3.19140509,3.50683692 3.42285156,3.31054688 C3.63671982,3.13183504 3.80297792,2.98754938 3.92163086,2.87768555 C4.0402838,2.76782172 4.128906,2.67187541 4.1875,2.58984375 C4.3105475,2.41992103 4.4328607,2.32177748 4.5544434,2.29541016 C4.676026,2.26904284 4.7800289,2.29321252 4.8664551,2.36791992 C4.9528813,2.44262733 4.9960938,2.53417915 4.9960938,2.64257812 C4.9960938,2.67773455 4.9323737,2.81469607 4.8049316,3.0534668 C4.6774896,3.29223752 4.4826673,3.63793719 4.220459,4.09057617 C3.95825064,4.54321515 3.63525583,5.07714536 3.25146484,5.69238281 C3.59131029,5.51074128 4.1347619,5.14599883 4.8818359,4.59814453 Z M7.6855469,4.60693359 L7.6855469,4.90136719 C7.4921865,5.07714932 7.3369146,5.19433564 7.2197266,5.25292969 C7.1025385,5.31152373 6.9340831,5.334961 6.7143555,5.32324219 C6.3334942,5.77441632 5.9980483,6 5.7080078,6 C5.5439445,6 5.3945319,5.94580132 5.2597656,5.83740234 C5.1249993,5.72900336 5.0173344,5.58105563 4.9367676,5.39355469 C4.8562008,5.20605375 4.815918,4.99658319 4.815918,4.76513672 C4.815918,4.57763578 4.8781732,4.36963005 5.0026855,4.14111328 C5.1271979,3.91259651 5.2883291,3.69946388 5.486084,3.50170898 C5.6838389,3.30395409 5.8955067,3.14428772 6.1210938,3.02270508 C6.3466808,2.90112244 6.5561514,2.84033203 6.7495117,2.84033203 C6.8872077,2.84033203 6.9956051,2.86157205 7.074707,2.90405273 C7.153809,2.94653342 7.1933594,3.00585899 7.1933594,3.08203125 C7.1933594,3.14062529 7.1596683,3.20800743 7.0922852,3.28417969 C7.2036138,3.3076173 7.279785,3.34643528 7.3208008,3.40063477 C7.3618166,3.45483426 7.3823242,3.55371022 7.3823242,3.69726562 C7.3823242,3.83789133 7.3493656,4.01513565 7.2834473,4.22900391 C7.217529,4.44287216 7.127442,4.64355375 7.0131836,4.83105469 L7.0922852,4.91015625 L7.1582031,4.91015625 C7.2080081,4.91015625 7.2570798,4.8977052 7.3054199,4.87280273 C7.35376,4.84790027 7.3969725,4.82153334 7.4350586,4.79370117 C7.4731447,4.765869 7.55664,4.70361376 7.6855469,4.60693359 Z M6.7802734,3.45117188 C6.5371082,3.59765698 6.3291024,3.73022402 6.15625,3.84887695 C5.9833976,3.96752989 5.8369147,4.08764588 5.7167969,4.20922852 C5.5966791,4.33081115 5.5161135,4.45312438 5.4750977,4.57617188 C5.4018551,4.90429852 5.3652344,5.08154284 5.3652344,5.10791016 C5.3652344,5.3012705 5.4999987,5.39794922 5.7695312,5.39794922 C5.8955084,5.39794922 6.1064438,5.28955187 6.4023438,5.07275391 C6.3525388,4.93505791 6.3276367,4.80322329 6.3276367,4.67724609 C6.3276367,4.49267486 6.3657223,4.30444432 6.4418945,4.11254883 C6.5180668,3.92065334 6.6308586,3.70019656 6.7802734,3.45117188 Z M10.5024414,4.60693359 L10.5024414,4.90136719 C10.3090811,5.07714932 10.1538092,5.19433564 10.0366211,5.25292969 C9.919433,5.31152373 9.7509777,5.334961 9.53125,5.32324219 C9.1503887,5.77441632 8.8149429,6 8.5249023,6 C8.360839,6 8.2114265,5.94580132 8.0766602,5.83740234 C7.9418939,5.72900336 7.8342289,5.58105563 7.7536621,5.39355469 C7.6730953,5.20605375 7.6328125,4.99658319 7.6328125,4.76513672 C7.6328125,4.57763578 7.6950677,4.36963005 7.8195801,4.14111328 C7.9440924,3.91259651 8.1052236,3.69946388 8.3029785,3.50170898 C8.5007334,3.30395409 8.7124012,3.14428772 8.9379883,3.02270508 C9.1635753,2.90112244 9.3730459,2.84033203 9.5664062,2.84033203 C9.7041023,2.84033203 9.8124996,2.86157205 9.8916016,2.90405273 C9.9707035,2.94653342 10.0102539,3.00585899 10.0102539,3.08203125 C10.0102539,3.14062529 9.9765628,3.20800743 9.9091797,3.28417969 C10.0205084,3.3076173 10.0966795,3.34643528 10.1376953,3.40063477 C10.1787111,3.45483426 10.1992188,3.55371022 10.1992188,3.69726562 C10.1992188,3.83789133 10.1662601,4.01513565 10.1003418,4.22900391 C10.0344235,4.44287216 9.9443365,4.64355375 9.8300781,4.83105469 L9.9091797,4.91015625 L9.9750977,4.91015625 C10.0249026,4.91015625 10.0739744,4.8977052 10.1223145,4.87280273 C10.1706545,4.84790027 10.213867,4.82153334 10.2519531,4.79370117 C10.2900393,4.765869 10.3735345,4.70361376 10.5024414,4.60693359 Z M9.597168,3.45117188 C9.3540027,3.59765698 9.145997,3.73022402 8.9731445,3.84887695 C8.8002921,3.96752989 8.6538092,4.08764588 8.5336914,4.20922852 C8.4135736,4.33081115 8.333008,4.45312438 8.2919922,4.57617188 C8.2187496,4.90429852 8.1821289,5.08154284 8.1821289,5.10791016 C8.1821289,5.3012705 8.3168932,5.39794922 8.5864258,5.39794922 C8.712403,5.39794922 8.9233384,5.28955187 9.2192383,5.07275391 C9.1694333,4.93505791 9.1445312,4.80322329 9.1445312,4.67724609 C9.1445312,4.49267486 9.1826168,4.30444432 9.2587891,4.11254883 C9.3349613,3.92065334 9.4477532,3.70019656 9.597168,3.45117188 Z M12.5019531,4.62451172 C12.2441393,4.91748193 12.0134288,5.16650288 11.8098145,5.37158203 C11.6062002,5.57666118 11.4406745,5.72973582 11.3132324,5.83081055 C11.1857904,5.93188527 11.098633,5.98242188 11.0517578,5.98242188 C10.9755856,5.98242188 10.8898931,5.92089905 10.7946777,5.79785156 C10.6994624,5.67480407 10.6181644,5.51806736 10.5507812,5.32763672 C10.4833981,5.13720608 10.449707,4.94384864 10.449707,4.74755859 C10.449707,4.46337749 10.587401,4.1770034 10.862793,3.88842773 C11.138185,3.59985207 11.4516584,3.36035251 11.8032227,3.16992188 C12.1547869,2.97949124 12.4184562,2.88427734 12.5942383,2.88427734 C12.7377937,2.88427734 12.8784173,2.97509675 13.0161133,3.15673828 C13.2417003,2.68505624 13.4562978,2.26611511 13.6599121,1.89990234 C13.8635264,1.53368958 14.034179,1.26123136 14.171875,1.08251953 C14.309571,0.9038077 14.4077146,0.81445312 14.4663086,0.81445312 C14.530762,0.81445312 14.5900876,0.84594695 14.6442871,0.90893555 C14.6984866,0.97192414 14.7255859,1.04296835 14.7255859,1.12207031 C14.7255859,1.27441482 14.6142589,1.53588682 14.3916016,1.90649414 C14.1689442,2.27710146 13.9492198,2.63818184 13.7324219,2.98974609 C13.5156239,3.34131035 13.3295906,3.68774243 13.1743164,4.02905273 C13.0190422,4.37036303 12.9414062,4.68603371 12.9414062,4.97607422 C12.9414062,5.23974741 13.0263663,5.37158203 13.1962891,5.37158203 C13.2988286,5.37158203 13.4277336,5.31372128 13.5830078,5.19799805 C13.738282,5.08227481 13.9594712,4.88818496 14.246582,4.61572266 L14.246582,4.93652344 C13.6137664,5.75391034 13.1259783,6.1625977 12.7832031,6.1625977 C12.6455071,6.1625977 12.5466312,6.1098638 12.4865723,6.0043945 C12.4265134,5.89892525 12.3964844,5.74218854 12.3964844,5.53417969 C12.3964844,5.25292828 12.4316403,4.94970866 12.5019531,4.62451172 Z M12.8271484,3.55224609 C12.5664049,3.64013716 12.2602557,3.78149317 11.9086914,3.97631836 C11.5571271,4.17114355 11.3447269,4.30517542 11.2714844,4.37841797 C11.2070309,4.43701201 11.1499026,4.54687419 11.1000977,4.70800781 C11.0502927,4.86914143 11.0253906,4.99072225 11.0253906,5.07275391 C11.0253906,5.12255884 11.0400389,5.16357406 11.0693359,5.19580078 C11.098633,5.2280275 11.1352537,5.24414062 11.1791992,5.24414062 C11.220215,5.24414062 11.2670896,5.22656268 11.3198242,5.19140625 C11.3725589,5.15624982 11.4567865,5.08740286 11.5725098,4.98486328 C11.688233,4.88232371 11.7636717,4.8164064 11.7988281,4.78710938 C11.8486331,4.74316384 11.9592277,4.64868237 12.1306152,4.50366211 C12.3020028,4.35864185 12.4272457,4.2451176 12.5063477,4.16308594 C12.5854496,4.08105428 12.6528318,3.98950246 12.7084961,3.88842773 C12.7641604,3.78735301 12.8037108,3.67529358 12.8271484,3.55224609 Z M17.1557617,4.62451172 L17.1557617,4.91015625 C16.8510727,5.10351659 16.6108407,5.20019531 16.4350586,5.20019531 C16.3383784,5.20019531 16.2358404,5.18408219 16.1274414,5.15185547 C15.8637682,5.48584151 15.6374521,5.73046797 15.4484863,5.88574219 C15.2595205,6.0410164 15.0698252,6.1186523 14.8793945,6.1186523 C14.6596669,6.1186523 14.4904791,6.0029308 14.3718262,5.77148438 C14.2531732,5.54003791 14.1938477,5.2529314 14.1938477,4.91015625 C14.1938477,4.44433361 14.3344712,3.93677032 14.6157227,3.38745117 C14.8969741,2.83813202 15.236082,2.323977 15.6330566,1.8449707 C16.0300313,1.3659644 16.4145489,0.96972813 16.7866211,0.65625 C17.1586933,0.34277187 17.4106439,0.18603516 17.5424805,0.18603516 C17.6684577,0.18603516 17.7314453,0.27246007 17.7314453,0.4453125 C17.7314453,1.21289446 16.7470802,2.55174826 14.7783203,4.46191406 C14.7724609,4.5146487 14.7695312,4.61865157 14.7695312,4.77392578 C14.7695312,5.17822468 14.8779286,5.38037109 15.0947266,5.38037109 C15.1796879,5.38037109 15.2653804,5.34594761 15.3518066,5.27709961 C15.4382329,5.20825161 15.5707999,5.0771494 15.7495117,4.88378906 C15.6791989,4.72558515 15.644043,4.60839882 15.644043,4.53222656 C15.644043,4.37109294 15.7099603,4.19677828 15.8417969,4.00927734 C15.9736335,3.82177641 16.1237785,3.65991279 16.2922363,3.52368164 C16.4606942,3.38745049 16.5830074,3.31933594 16.6591797,3.31933594 C16.7792975,3.31933594 16.8393555,3.40576085 16.8393555,3.57861328 C16.8393555,3.71044988 16.804932,3.86865142 16.736084,4.05322266 C16.667236,4.23779389 16.5668952,4.44872928 16.4350586,4.68603516 C16.4848635,4.72705099 16.5244139,4.75707998 16.5537109,4.77612305 C16.583008,4.79516611 16.6269528,4.8046875 16.6855469,4.8046875 C16.8203132,4.8046875 16.9770499,4.74462951 17.1557617,4.62451172 Z M14.9233398,3.96533203 C15.0756844,3.83349543 15.228759,3.67749114 15.3825684,3.49731445 C15.5363777,3.31713777 15.761229,3.04101749 16.0571289,2.66894531 C16.34131,2.31152165 16.5646965,2.01342893 16.7272949,1.7746582 C16.8898934,1.53588748 17.0122066,1.33740313 17.0942383,1.17919922 C17.1762699,1.0209953 17.2172852,0.91259795 17.2172852,0.85400391 C17.2172852,0.81005837 17.2055665,0.78808594 17.1821289,0.78808594 C17.1176755,0.78808594 16.9836436,0.89428605 16.7800293,1.10668945 C16.576415,1.31909286 16.3442396,1.60986144 16.0834961,1.97900391 C15.7231427,2.48877208 15.4624031,2.8725573 15.3012695,3.13037109 C15.1401359,3.38818488 15.0141606,3.66650241 14.9233398,3.96533203 Z M19.9814453,4.60693359 L19.9814453,4.90136719 C19.788085,5.07714932 19.6328131,5.19433564 19.515625,5.25292969 C19.3984369,5.31152373 19.2299816,5.334961 19.0102539,5.32324219 C18.6293926,5.77441632 18.2939468,6 18.0039062,6 C17.8398429,6 17.6904304,5.94580132 17.5556641,5.83740234 C17.4208978,5.72900336 17.3132328,5.58105563 17.232666,5.39355469 C17.1520992,5.20605375 17.1118164,4.99658319 17.1118164,4.76513672 C17.1118164,4.57763578 17.1740716,4.36963005 17.298584,4.14111328 C17.4230963,3.91259651 17.5842275,3.69946388 17.7819824,3.50170898 C17.9797373,3.30395409 18.1914051,3.14428772 18.4169922,3.02270508 C18.6425793,2.90112244 18.8520498,2.84033203 19.0454102,2.84033203 C19.1831062,2.84033203 19.2915035,2.86157205 19.3706055,2.90405273 C19.4497074,2.94653342 19.4892578,3.00585899 19.4892578,3.08203125 C19.4892578,3.14062529 19.4555667,3.20800743 19.3881836,3.28417969 C19.4995123,3.3076173 19.5756834,3.34643528 19.6166992,3.40063477 C19.657715,3.45483426 19.6782227,3.55371022 19.6782227,3.69726562 C19.6782227,3.83789133 19.645264,4.01513565 19.5793457,4.22900391 C19.5134274,4.44287216 19.4233404,4.64355375 19.309082,4.83105469 L19.3881836,4.91015625 L19.4541016,4.91015625 C19.5039065,4.91015625 19.5529783,4.8977052 19.6013184,4.87280273 C19.6496584,4.84790027 19.6928709,4.82153334 19.730957,4.79370117 C19.7690432,4.765869 19.8525384,4.70361376 19.9814453,4.60693359 Z M19.0761719,3.45117188 C18.8330066,3.59765698 18.6250009,3.73022402 18.4521484,3.84887695 C18.279296,3.96752989 18.1328131,4.08764588 18.0126953,4.20922852 C17.8925775,4.33081115 17.8120119,4.45312438 17.7709961,4.57617188 C17.6977535,4.90429852 17.6611328,5.08154284 17.6611328,5.10791016 C17.6611328,5.3012705 17.7958971,5.39794922 18.0654297,5.39794922 C18.1914069,5.39794922 18.4023423,5.28955187 18.6982422,5.07275391 C18.6484373,4.93505791 18.6235352,4.80322329 18.6235352,4.67724609 C18.6235352,4.49267486 18.6616207,4.30444432 18.737793,4.11254883 C18.8139652,3.92065334 18.9267571,3.70019656 19.0761719,3.45117188 Z M21.9985352,4.78710938 L21.2163086,5.45068359 C20.8442364,5.77588053 20.5952155,5.93847656 20.4692383,5.93847656 C20.3549799,5.93847656 20.2348639,5.80737436 20.1088867,5.54516602 C19.9829095,5.28295767 19.9199219,5.05371192 19.9199219,4.85742188 C19.9199219,4.69042885 19.9455564,4.54907284 19.9968262,4.43334961 C20.048096,4.31762637 20.1367181,4.16748139 20.2626953,3.98291016 C20.4414071,3.73388547 20.6127921,3.52295008 20.7768555,3.35009766 C20.9409188,3.17724523 21.0859369,3.04321337 21.2119141,2.94799805 C21.3378913,2.85278273 21.425781,2.80517578 21.4755859,2.80517578 C21.5546879,2.80517578 21.6315914,2.846191 21.7062988,2.92822266 C21.7810062,3.01025432 21.8183594,3.0952144 21.8183594,3.18310547 C21.8183594,3.23876981 21.7780766,3.32812438 21.6975098,3.45117188 C21.616943,3.57421937 21.4895028,3.73022366 21.3151855,3.91918945 C21.1408683,4.10815524 20.8984391,4.33447134 20.5878906,4.59814453 L20.5043945,4.83984375 C20.4809569,4.88671898 20.4692383,4.9277342 20.4692383,4.96289062 C20.4692383,5.04199258 20.5087887,5.08154297 20.5878906,5.08154297 C20.6699223,5.08154297 20.8625473,4.9775401 21.1657715,4.76953125 C21.4689957,4.5615224 21.7978498,4.28174004 22.1523438,3.93017578 C22.2900398,3.79247978 22.4042964,3.67089896 22.4951172,3.56542969 C22.585938,3.45996041 22.6679684,3.36108445 22.7412109,3.26879883 C22.8144535,3.17651321 22.8752439,3.10693383 22.923584,3.06005859 C22.9719241,3.01318336 23.0151365,2.98828126 23.0532227,2.98535156 C23.1264652,2.97656246 23.1835935,3.00732387 23.2246094,3.07763672 C23.2656252,3.14794957 23.2861328,3.25195244 23.2861328,3.38964844 C23.2861328,3.4687504 23.2509769,3.56762636 23.1806641,3.6862793 C23.1103512,3.80493223 22.9785166,4.00707865 22.7851562,4.29272461 C22.5917959,4.57837057 22.3991709,4.87426605 22.2072754,5.18041992 C22.0153799,5.4865738 21.8198252,5.83154105 21.6206055,6.215332 C21.6293946,6.2065429 21.7194816,6.1186532 21.8908691,5.95166016 C22.0622567,5.78466713 22.2431631,5.61035247 22.4335938,5.42871094 C22.6240244,5.2470694 22.7807611,5.10131891 22.9038086,4.99145508 C23.0268561,4.88159125 23.1806631,4.7534187 23.3652344,4.60693359 L23.3652344,4.90136719 C22.9697246,5.326174 22.6115739,5.729002 22.2907715,6.1098633 C21.9699691,6.4907246 21.722413,6.795409 21.5480957,7.0239258 C21.3737784,7.2524425 21.2719728,7.385742 21.2426758,7.4238281 C21.1635738,7.5263677 21.0925296,7.622314 21.029541,7.7116699 C20.9665524,7.8010258 20.9138186,7.8698728 20.8713379,7.9182129 C20.8288572,7.966553 20.7944337,7.9907227 20.7680664,7.9907227 C20.7065427,7.9907227 20.6516116,7.9299322 20.6032715,7.8083496 C20.5549314,7.686767 20.5307617,7.579102 20.5307617,7.4853516 C20.5307617,7.4003902 20.5468748,7.3256839 20.5791016,7.2612305 C20.7900401,6.7866187 21.2631799,5.96191994 21.9985352,4.78710938 Z" id="path-2"></path>
                            <path d="M4.8818359,4.59814453 L4.8818359,4.83105469 C4.5478499,5.11230609 4.2167985,5.38110223 3.88867188,5.63745117 C3.56054523,5.89380011 3.16211172,6.1801742 2.69335938,6.496582 C2.4531238,6.8247087 2.2465829,7.0935048 2.07373047,7.3029785 C1.90087804,7.5124522 1.75146547,7.6860345 1.62548828,7.8237305 C1.49951109,7.9614265 1.43505861,8.0317383 1.43212891,8.034668 C1.39111308,8.0844729 1.32226611,8.1342771 1.22558594,8.184082 C1.12890577,8.233887 1.04834017,8.2587891 0.98388672,8.2587891 C0.89306595,8.2587891 0.81762725,8.2258304 0.75756836,8.1599121 C0.69750947,8.0939938 0.66748047,8.0156255 0.66748047,7.9248047 C0.66748047,7.6904285 0.79052611,7.4406752 1.03662109,7.1755371 C1.28271607,6.9103991 1.64306403,6.6386733 2.11767578,6.3603516 C2.35205195,6.0234358 2.57617081,5.68432788 2.79003906,5.34301758 C3.00390732,5.00170728 3.19067303,4.69043109 3.3503418,4.40917969 C3.51001056,4.12792828 3.65722589,3.85107558 3.79199219,3.57861328 C3.58105363,3.75439541 3.37158307,3.92358317 3.16357422,4.08618164 C2.95556537,4.24878011 2.75195412,4.40405199 2.55273438,4.55200195 C2.35351463,4.69995191 2.23046898,4.79150373 2.18359375,4.82666016 L2.06054688,4.91894531 C1.5507787,5.36426004 1.16992313,5.58691406 0.91796875,5.58691406 C0.67773317,5.58691406 0.47558676,5.47265739 0.31152344,5.24414062 C0.14746012,5.01562386 0.06542969,4.72705252 0.06542969,4.37841797 C0.06542969,4.15869031 0.10058559,3.92944455 0.17089844,3.69067383 C0.24121129,3.4519031 0.34887623,3.20654423 0.49389648,2.95458984 C0.63891674,2.70263546 0.81249899,2.45947383 1.01464844,2.22509766 C1.21679789,1.99072148 1.43945191,1.77539161 1.68261719,1.57910156 C2.05761906,1.28027194 2.47802501,1.01294063 2.94384766,0.77709961 C3.4096703,0.54125859 3.84325971,0.36108461 4.2446289,0.23657227 C4.6459981,0.11205992 4.9418936,0.04980469 5.1323242,0.04980469 C5.2436529,0.04980469 5.3322751,0.07690403 5.3981934,0.13110352 C5.4641117,0.18530301 5.5109862,0.25854446 5.5388184,0.35083008 C5.5666505,0.4431157 5.5805664,0.54052683 5.5805664,0.64306641 C5.5805664,0.73681687 5.5512698,0.83056594 5.4926758,0.92431641 C5.4077144,1.0502936 5.2583019,1.18286063 5.0444336,1.32202148 C4.8305653,1.46118234 4.6152355,1.58422798 4.3984375,1.69116211 C4.1816395,1.79809624 4.0571291,1.8515625 4.0249023,1.8515625 C4.0073241,1.8515625 3.99853516,1.84570318 3.99853516,1.83398438 C3.99853516,1.80761706 4.0322262,1.76513701 4.0996094,1.70654297 C4.1669925,1.64794893 4.2416988,1.58789093 4.3237305,1.52636719 C4.505372,1.38867119 4.6123045,1.24218828 4.6445312,1.08691406 C4.3603501,1.16601602 4.0776381,1.27001889 3.79638672,1.39892578 C3.51513531,1.52783268 3.23681778,1.68163973 2.96142578,1.86035156 C2.68603378,2.03906339 2.41064591,2.24267464 2.13525391,2.47119141 C1.82470548,2.7319349 1.56030383,3.0036607 1.34204102,3.28637695 C1.12377821,3.56909321 0.95825252,3.83056521 0.84545898,4.07080078 C0.73266545,4.31103636 0.67626953,4.49560482 0.67626953,4.62451172 C0.67626953,4.72119189 0.70703094,4.80541956 0.76855469,4.87719727 C0.83007843,4.94897497 0.91357369,4.98486328 1.01904297,4.98486328 C1.14209046,4.98486328 1.29443269,4.9306646 1.47607422,4.82226562 C1.67236426,4.70507754 1.88842656,4.55493256 2.12426758,4.37182617 C2.3601086,4.18871979 2.57763572,4.01513754 2.77685547,3.85107422 C2.97607521,3.6870109 3.19140509,3.50683692 3.42285156,3.31054688 C3.63671982,3.13183504 3.80297792,2.98754938 3.92163086,2.87768555 C4.0402838,2.76782172 4.128906,2.67187541 4.1875,2.58984375 C4.3105475,2.41992103 4.4328607,2.32177748 4.5544434,2.29541016 C4.676026,2.26904284 4.7800289,2.29321252 4.8664551,2.36791992 C4.9528813,2.44262733 4.9960938,2.53417915 4.9960938,2.64257812 C4.9960938,2.67773455 4.9323737,2.81469607 4.8049316,3.0534668 C4.6774896,3.29223752 4.4826673,3.63793719 4.220459,4.09057617 C3.95825064,4.54321515 3.63525583,5.07714536 3.25146484,5.69238281 C3.59131029,5.51074128 4.1347619,5.14599883 4.8818359,4.59814453 Z M7.6855469,4.60693359 L7.6855469,4.90136719 C7.4921865,5.07714932 7.3369146,5.19433564 7.2197266,5.25292969 C7.1025385,5.31152373 6.9340831,5.334961 6.7143555,5.32324219 C6.3334942,5.77441632 5.9980483,6 5.7080078,6 C5.5439445,6 5.3945319,5.94580132 5.2597656,5.83740234 C5.1249993,5.72900336 5.0173344,5.58105563 4.9367676,5.39355469 C4.8562008,5.20605375 4.815918,4.99658319 4.815918,4.76513672 C4.815918,4.57763578 4.8781732,4.36963005 5.0026855,4.14111328 C5.1271979,3.91259651 5.2883291,3.69946388 5.486084,3.50170898 C5.6838389,3.30395409 5.8955067,3.14428772 6.1210938,3.02270508 C6.3466808,2.90112244 6.5561514,2.84033203 6.7495117,2.84033203 C6.8872077,2.84033203 6.9956051,2.86157205 7.074707,2.90405273 C7.153809,2.94653342 7.1933594,3.00585899 7.1933594,3.08203125 C7.1933594,3.14062529 7.1596683,3.20800743 7.0922852,3.28417969 C7.2036138,3.3076173 7.279785,3.34643528 7.3208008,3.40063477 C7.3618166,3.45483426 7.3823242,3.55371022 7.3823242,3.69726562 C7.3823242,3.83789133 7.3493656,4.01513565 7.2834473,4.22900391 C7.217529,4.44287216 7.127442,4.64355375 7.0131836,4.83105469 L7.0922852,4.91015625 L7.1582031,4.91015625 C7.2080081,4.91015625 7.2570798,4.8977052 7.3054199,4.87280273 C7.35376,4.84790027 7.3969725,4.82153334 7.4350586,4.79370117 C7.4731447,4.765869 7.55664,4.70361376 7.6855469,4.60693359 Z M6.7802734,3.45117188 C6.5371082,3.59765698 6.3291024,3.73022402 6.15625,3.84887695 C5.9833976,3.96752989 5.8369147,4.08764588 5.7167969,4.20922852 C5.5966791,4.33081115 5.5161135,4.45312438 5.4750977,4.57617188 C5.4018551,4.90429852 5.3652344,5.08154284 5.3652344,5.10791016 C5.3652344,5.3012705 5.4999987,5.39794922 5.7695312,5.39794922 C5.8955084,5.39794922 6.1064438,5.28955187 6.4023438,5.07275391 C6.3525388,4.93505791 6.3276367,4.80322329 6.3276367,4.67724609 C6.3276367,4.49267486 6.3657223,4.30444432 6.4418945,4.11254883 C6.5180668,3.92065334 6.6308586,3.70019656 6.7802734,3.45117188 Z M10.5024414,4.60693359 L10.5024414,4.90136719 C10.3090811,5.07714932 10.1538092,5.19433564 10.0366211,5.25292969 C9.919433,5.31152373 9.7509777,5.334961 9.53125,5.32324219 C9.1503887,5.77441632 8.8149429,6 8.5249023,6 C8.360839,6 8.2114265,5.94580132 8.0766602,5.83740234 C7.9418939,5.72900336 7.8342289,5.58105563 7.7536621,5.39355469 C7.6730953,5.20605375 7.6328125,4.99658319 7.6328125,4.76513672 C7.6328125,4.57763578 7.6950677,4.36963005 7.8195801,4.14111328 C7.9440924,3.91259651 8.1052236,3.69946388 8.3029785,3.50170898 C8.5007334,3.30395409 8.7124012,3.14428772 8.9379883,3.02270508 C9.1635753,2.90112244 9.3730459,2.84033203 9.5664062,2.84033203 C9.7041023,2.84033203 9.8124996,2.86157205 9.8916016,2.90405273 C9.9707035,2.94653342 10.0102539,3.00585899 10.0102539,3.08203125 C10.0102539,3.14062529 9.9765628,3.20800743 9.9091797,3.28417969 C10.0205084,3.3076173 10.0966795,3.34643528 10.1376953,3.40063477 C10.1787111,3.45483426 10.1992188,3.55371022 10.1992188,3.69726562 C10.1992188,3.83789133 10.1662601,4.01513565 10.1003418,4.22900391 C10.0344235,4.44287216 9.9443365,4.64355375 9.8300781,4.83105469 L9.9091797,4.91015625 L9.9750977,4.91015625 C10.0249026,4.91015625 10.0739744,4.8977052 10.1223145,4.87280273 C10.1706545,4.84790027 10.213867,4.82153334 10.2519531,4.79370117 C10.2900393,4.765869 10.3735345,4.70361376 10.5024414,4.60693359 Z M9.597168,3.45117188 C9.3540027,3.59765698 9.145997,3.73022402 8.9731445,3.84887695 C8.8002921,3.96752989 8.6538092,4.08764588 8.5336914,4.20922852 C8.4135736,4.33081115 8.333008,4.45312438 8.2919922,4.57617188 C8.2187496,4.90429852 8.1821289,5.08154284 8.1821289,5.10791016 C8.1821289,5.3012705 8.3168932,5.39794922 8.5864258,5.39794922 C8.712403,5.39794922 8.9233384,5.28955187 9.2192383,5.07275391 C9.1694333,4.93505791 9.1445312,4.80322329 9.1445312,4.67724609 C9.1445312,4.49267486 9.1826168,4.30444432 9.2587891,4.11254883 C9.3349613,3.92065334 9.4477532,3.70019656 9.597168,3.45117188 Z M12.5019531,4.62451172 C12.2441393,4.91748193 12.0134288,5.16650288 11.8098145,5.37158203 C11.6062002,5.57666118 11.4406745,5.72973582 11.3132324,5.83081055 C11.1857904,5.93188527 11.098633,5.98242188 11.0517578,5.98242188 C10.9755856,5.98242188 10.8898931,5.92089905 10.7946777,5.79785156 C10.6994624,5.67480407 10.6181644,5.51806736 10.5507812,5.32763672 C10.4833981,5.13720608 10.449707,4.94384864 10.449707,4.74755859 C10.449707,4.46337749 10.587401,4.1770034 10.862793,3.88842773 C11.138185,3.59985207 11.4516584,3.36035251 11.8032227,3.16992188 C12.1547869,2.97949124 12.4184562,2.88427734 12.5942383,2.88427734 C12.7377937,2.88427734 12.8784173,2.97509675 13.0161133,3.15673828 C13.2417003,2.68505624 13.4562978,2.26611511 13.6599121,1.89990234 C13.8635264,1.53368958 14.034179,1.26123136 14.171875,1.08251953 C14.309571,0.9038077 14.4077146,0.81445312 14.4663086,0.81445312 C14.530762,0.81445312 14.5900876,0.84594695 14.6442871,0.90893555 C14.6984866,0.97192414 14.7255859,1.04296835 14.7255859,1.12207031 C14.7255859,1.27441482 14.6142589,1.53588682 14.3916016,1.90649414 C14.1689442,2.27710146 13.9492198,2.63818184 13.7324219,2.98974609 C13.5156239,3.34131035 13.3295906,3.68774243 13.1743164,4.02905273 C13.0190422,4.37036303 12.9414062,4.68603371 12.9414062,4.97607422 C12.9414062,5.23974741 13.0263663,5.37158203 13.1962891,5.37158203 C13.2988286,5.37158203 13.4277336,5.31372128 13.5830078,5.19799805 C13.738282,5.08227481 13.9594712,4.88818496 14.246582,4.61572266 L14.246582,4.93652344 C13.6137664,5.75391034 13.1259783,6.1625977 12.7832031,6.1625977 C12.6455071,6.1625977 12.5466312,6.1098638 12.4865723,6.0043945 C12.4265134,5.89892525 12.3964844,5.74218854 12.3964844,5.53417969 C12.3964844,5.25292828 12.4316403,4.94970866 12.5019531,4.62451172 Z M12.8271484,3.55224609 C12.5664049,3.64013716 12.2602557,3.78149317 11.9086914,3.97631836 C11.5571271,4.17114355 11.3447269,4.30517542 11.2714844,4.37841797 C11.2070309,4.43701201 11.1499026,4.54687419 11.1000977,4.70800781 C11.0502927,4.86914143 11.0253906,4.99072225 11.0253906,5.07275391 C11.0253906,5.12255884 11.0400389,5.16357406 11.0693359,5.19580078 C11.098633,5.2280275 11.1352537,5.24414062 11.1791992,5.24414062 C11.220215,5.24414062 11.2670896,5.22656268 11.3198242,5.19140625 C11.3725589,5.15624982 11.4567865,5.08740286 11.5725098,4.98486328 C11.688233,4.88232371 11.7636717,4.8164064 11.7988281,4.78710938 C11.8486331,4.74316384 11.9592277,4.64868237 12.1306152,4.50366211 C12.3020028,4.35864185 12.4272457,4.2451176 12.5063477,4.16308594 C12.5854496,4.08105428 12.6528318,3.98950246 12.7084961,3.88842773 C12.7641604,3.78735301 12.8037108,3.67529358 12.8271484,3.55224609 Z M17.1557617,4.62451172 L17.1557617,4.91015625 C16.8510727,5.10351659 16.6108407,5.20019531 16.4350586,5.20019531 C16.3383784,5.20019531 16.2358404,5.18408219 16.1274414,5.15185547 C15.8637682,5.48584151 15.6374521,5.73046797 15.4484863,5.88574219 C15.2595205,6.0410164 15.0698252,6.1186523 14.8793945,6.1186523 C14.6596669,6.1186523 14.4904791,6.0029308 14.3718262,5.77148438 C14.2531732,5.54003791 14.1938477,5.2529314 14.1938477,4.91015625 C14.1938477,4.44433361 14.3344712,3.93677032 14.6157227,3.38745117 C14.8969741,2.83813202 15.236082,2.323977 15.6330566,1.8449707 C16.0300313,1.3659644 16.4145489,0.96972813 16.7866211,0.65625 C17.1586933,0.34277187 17.4106439,0.18603516 17.5424805,0.18603516 C17.6684577,0.18603516 17.7314453,0.27246007 17.7314453,0.4453125 C17.7314453,1.21289446 16.7470802,2.55174826 14.7783203,4.46191406 C14.7724609,4.5146487 14.7695312,4.61865157 14.7695312,4.77392578 C14.7695312,5.17822468 14.8779286,5.38037109 15.0947266,5.38037109 C15.1796879,5.38037109 15.2653804,5.34594761 15.3518066,5.27709961 C15.4382329,5.20825161 15.5707999,5.0771494 15.7495117,4.88378906 C15.6791989,4.72558515 15.644043,4.60839882 15.644043,4.53222656 C15.644043,4.37109294 15.7099603,4.19677828 15.8417969,4.00927734 C15.9736335,3.82177641 16.1237785,3.65991279 16.2922363,3.52368164 C16.4606942,3.38745049 16.5830074,3.31933594 16.6591797,3.31933594 C16.7792975,3.31933594 16.8393555,3.40576085 16.8393555,3.57861328 C16.8393555,3.71044988 16.804932,3.86865142 16.736084,4.05322266 C16.667236,4.23779389 16.5668952,4.44872928 16.4350586,4.68603516 C16.4848635,4.72705099 16.5244139,4.75707998 16.5537109,4.77612305 C16.583008,4.79516611 16.6269528,4.8046875 16.6855469,4.8046875 C16.8203132,4.8046875 16.9770499,4.74462951 17.1557617,4.62451172 Z M14.9233398,3.96533203 C15.0756844,3.83349543 15.228759,3.67749114 15.3825684,3.49731445 C15.5363777,3.31713777 15.761229,3.04101749 16.0571289,2.66894531 C16.34131,2.31152165 16.5646965,2.01342893 16.7272949,1.7746582 C16.8898934,1.53588748 17.0122066,1.33740313 17.0942383,1.17919922 C17.1762699,1.0209953 17.2172852,0.91259795 17.2172852,0.85400391 C17.2172852,0.81005837 17.2055665,0.78808594 17.1821289,0.78808594 C17.1176755,0.78808594 16.9836436,0.89428605 16.7800293,1.10668945 C16.576415,1.31909286 16.3442396,1.60986144 16.0834961,1.97900391 C15.7231427,2.48877208 15.4624031,2.8725573 15.3012695,3.13037109 C15.1401359,3.38818488 15.0141606,3.66650241 14.9233398,3.96533203 Z M19.9814453,4.60693359 L19.9814453,4.90136719 C19.788085,5.07714932 19.6328131,5.19433564 19.515625,5.25292969 C19.3984369,5.31152373 19.2299816,5.334961 19.0102539,5.32324219 C18.6293926,5.77441632 18.2939468,6 18.0039062,6 C17.8398429,6 17.6904304,5.94580132 17.5556641,5.83740234 C17.4208978,5.72900336 17.3132328,5.58105563 17.232666,5.39355469 C17.1520992,5.20605375 17.1118164,4.99658319 17.1118164,4.76513672 C17.1118164,4.57763578 17.1740716,4.36963005 17.298584,4.14111328 C17.4230963,3.91259651 17.5842275,3.69946388 17.7819824,3.50170898 C17.9797373,3.30395409 18.1914051,3.14428772 18.4169922,3.02270508 C18.6425793,2.90112244 18.8520498,2.84033203 19.0454102,2.84033203 C19.1831062,2.84033203 19.2915035,2.86157205 19.3706055,2.90405273 C19.4497074,2.94653342 19.4892578,3.00585899 19.4892578,3.08203125 C19.4892578,3.14062529 19.4555667,3.20800743 19.3881836,3.28417969 C19.4995123,3.3076173 19.5756834,3.34643528 19.6166992,3.40063477 C19.657715,3.45483426 19.6782227,3.55371022 19.6782227,3.69726562 C19.6782227,3.83789133 19.645264,4.01513565 19.5793457,4.22900391 C19.5134274,4.44287216 19.4233404,4.64355375 19.309082,4.83105469 L19.3881836,4.91015625 L19.4541016,4.91015625 C19.5039065,4.91015625 19.5529783,4.8977052 19.6013184,4.87280273 C19.6496584,4.84790027 19.6928709,4.82153334 19.730957,4.79370117 C19.7690432,4.765869 19.8525384,4.70361376 19.9814453,4.60693359 Z M19.0761719,3.45117188 C18.8330066,3.59765698 18.6250009,3.73022402 18.4521484,3.84887695 C18.279296,3.96752989 18.1328131,4.08764588 18.0126953,4.20922852 C17.8925775,4.33081115 17.8120119,4.45312438 17.7709961,4.57617188 C17.6977535,4.90429852 17.6611328,5.08154284 17.6611328,5.10791016 C17.6611328,5.3012705 17.7958971,5.39794922 18.0654297,5.39794922 C18.1914069,5.39794922 18.4023423,5.28955187 18.6982422,5.07275391 C18.6484373,4.93505791 18.6235352,4.80322329 18.6235352,4.67724609 C18.6235352,4.49267486 18.6616207,4.30444432 18.737793,4.11254883 C18.8139652,3.92065334 18.9267571,3.70019656 19.0761719,3.45117188 Z M21.9985352,4.78710938 L21.2163086,5.45068359 C20.8442364,5.77588053 20.5952155,5.93847656 20.4692383,5.93847656 C20.3549799,5.93847656 20.2348639,5.80737436 20.1088867,5.54516602 C19.9829095,5.28295767 19.9199219,5.05371192 19.9199219,4.85742188 C19.9199219,4.69042885 19.9455564,4.54907284 19.9968262,4.43334961 C20.048096,4.31762637 20.1367181,4.16748139 20.2626953,3.98291016 C20.4414071,3.73388547 20.6127921,3.52295008 20.7768555,3.35009766 C20.9409188,3.17724523 21.0859369,3.04321337 21.2119141,2.94799805 C21.3378913,2.85278273 21.425781,2.80517578 21.4755859,2.80517578 C21.5546879,2.80517578 21.6315914,2.846191 21.7062988,2.92822266 C21.7810062,3.01025432 21.8183594,3.0952144 21.8183594,3.18310547 C21.8183594,3.23876981 21.7780766,3.32812438 21.6975098,3.45117188 C21.616943,3.57421937 21.4895028,3.73022366 21.3151855,3.91918945 C21.1408683,4.10815524 20.8984391,4.33447134 20.5878906,4.59814453 L20.5043945,4.83984375 C20.4809569,4.88671898 20.4692383,4.9277342 20.4692383,4.96289062 C20.4692383,5.04199258 20.5087887,5.08154297 20.5878906,5.08154297 C20.6699223,5.08154297 20.8625473,4.9775401 21.1657715,4.76953125 C21.4689957,4.5615224 21.7978498,4.28174004 22.1523438,3.93017578 C22.2900398,3.79247978 22.4042964,3.67089896 22.4951172,3.56542969 C22.585938,3.45996041 22.6679684,3.36108445 22.7412109,3.26879883 C22.8144535,3.17651321 22.8752439,3.10693383 22.923584,3.06005859 C22.9719241,3.01318336 23.0151365,2.98828126 23.0532227,2.98535156 C23.1264652,2.97656246 23.1835935,3.00732387 23.2246094,3.07763672 C23.2656252,3.14794957 23.2861328,3.25195244 23.2861328,3.38964844 C23.2861328,3.4687504 23.2509769,3.56762636 23.1806641,3.6862793 C23.1103512,3.80493223 22.9785166,4.00707865 22.7851562,4.29272461 C22.5917959,4.57837057 22.3991709,4.87426605 22.2072754,5.18041992 C22.0153799,5.4865738 21.8198252,5.83154105 21.6206055,6.215332 C21.6293946,6.2065429 21.7194816,6.1186532 21.8908691,5.95166016 C22.0622567,5.78466713 22.2431631,5.61035247 22.4335938,5.42871094 C22.6240244,5.2470694 22.7807611,5.10131891 22.9038086,4.99145508 C23.0268561,4.88159125 23.1806631,4.7534187 23.3652344,4.60693359 L23.3652344,4.90136719 C22.9697246,5.326174 22.6115739,5.729002 22.2907715,6.1098633 C21.9699691,6.4907246 21.722413,6.795409 21.5480957,7.0239258 C21.3737784,7.2524425 21.2719728,7.385742 21.2426758,7.4238281 C21.1635738,7.5263677 21.0925296,7.622314 21.029541,7.7116699 C20.9665524,7.8010258 20.9138186,7.8698728 20.8713379,7.9182129 C20.8288572,7.966553 20.7944337,7.9907227 20.7680664,7.9907227 C20.7065427,7.9907227 20.6516116,7.9299322 20.6032715,7.8083496 C20.5549314,7.686767 20.5307617,7.579102 20.5307617,7.4853516 C20.5307617,7.4003902 20.5468748,7.3256839 20.5791016,7.2612305 C20.7900401,6.7866187 21.2631799,5.96191994 21.9985352,4.78710938 Z" id="path-2"></path>
                        </g>
                    </g>
                    <g id="Group-4" transform="translate(30.000000, 0.000000)" stroke="#FFFFFF">
                        <circle id="Oval-3" fill="#586AF2" fill-rule="nonzero" cx="5" cy="5" r="5"></circle>
                        <g id="Group-5" transform="translate(5.120657, 5.120657) rotate(45.000000) translate(-5.120657, -5.120657) translate(2.043734, 2.043734)" stroke-linecap="round">
                            <path d="M0,3.07692308 L6.15384615,3.07692308" id="Path-61"></path>
                            <path d="M3.07692308,0 L3.07692308,6.15384615" id="Path-61-Copy"></path>
                        </g>
                    </g>
                </g>
            </g>
        </g>
    </g>
</svg>