<?xml version="1.0" encoding="UTF-8"?>
<svg width="45px" height="45px" viewBox="0 0 45 45" version="1.1" xmlns="http://www.w3.org/2000/svg" xmlns:xlink="http://www.w3.org/1999/xlink">
    <!-- Generator: Sketch 51.3 (57544) - http://www.bohemiancoding.com/sketch -->
    <title>ic-goodboy-copy</title>
    <desc>Created with Sketch.</desc>
    <defs></defs>
    <g id="Page-3" stroke="none" stroke-width="1" fill="none" fill-rule="evenodd">
        <g id="task/cc" transform="translate(-756.000000, -1551.000000)">
            <g id="ic-goodboy-copy" transform="translate(756.000000, 1551.000000)">
                <g id="Group-8" transform="translate(2.000000, 12.000000)">
                    <rect id="Rectangle" stroke="#586AF2" fill="#586AF2" fill-rule="nonzero" x="7.5" y="0.5" width="34" height="14" rx="2"></rect>
                    <g id="Group-2" transform="translate(0.000000, 5.000000)">
                        <g id="Rectangle">
                            <g id="path-1-link" transform="translate(1.000000, 1.000000)" fill="#FFFFFF">
                                <rect id="path-1" x="0" y="0" width="35" height="15" rx="2"></rect>
                            </g>
                            <rect id="Rectangle-path" stroke="#FFFFFF" stroke-width="2" x="0" y="0" width="37" height="17" rx="2"></rect>
                            <rect id="Rectangle-path" stroke="#586AF2" x="1.5" y="1.5" width="34" height="14" rx="2"></rect>
                        </g>
                        <path d="M11.8818359,9.59814453 L11.8818359,9.83105469 C11.5478499,10.1123061 11.2167985,10.3811022 10.8886719,10.6374512 C10.5605452,10.8938001 10.1621117,11.1801742 9.69335938,11.496582 C9.4531238,11.8247087 9.2465829,12.0935048 9.07373047,12.3029785 C8.90087804,12.5124522 8.75146547,12.6860345 8.62548828,12.8237305 C8.49951109,12.9614265 8.43505861,13.0317383 8.43212891,13.034668 C8.39111308,13.0844729 8.32226611,13.1342771 8.22558594,13.184082 C8.12890577,13.233887 8.04834017,13.2587891 7.98388672,13.2587891 C7.89306595,13.2587891 7.81762725,13.2258304 7.75756836,13.1599121 C7.69750947,13.0939938 7.66748047,13.0156255 7.66748047,12.9248047 C7.66748047,12.6904285 7.79052611,12.4406752 8.03662109,12.1755371 C8.28271607,11.9103991 8.64306403,11.6386733 9.11767578,11.3603516 C9.35205195,11.0234358 9.57617081,10.6843279 9.79003906,10.3430176 C10.0039073,10.0017073 10.190673,9.69043109 10.3503418,9.40917969 C10.5100106,9.12792828 10.6572259,8.85107558 10.7919922,8.57861328 C10.5810536,8.75439541 10.3715831,8.92358317 10.1635742,9.08618164 C9.95556537,9.24878011 9.75195412,9.40405199 9.55273438,9.55200195 C9.35351463,9.69995191 9.23046898,9.79150373 9.18359375,9.82666016 L9.06054688,9.91894531 C8.5507787,10.36426 8.16992313,10.5869141 7.91796875,10.5869141 C7.67773317,10.5869141 7.47558676,10.4726574 7.31152344,10.2441406 C7.14746012,10.0156239 7.06542969,9.72705252 7.06542969,9.37841797 C7.06542969,9.15869031 7.10058559,8.92944455 7.17089844,8.69067383 C7.24121129,8.4519031 7.34887623,8.20654423 7.49389648,7.95458984 C7.63891674,7.70263546 7.81249899,7.45947383 8.01464844,7.22509766 C8.21679789,6.99072148 8.43945191,6.77539161 8.68261719,6.57910156 C9.05761906,6.28027194 9.47802501,6.01294063 9.94384766,5.77709961 C10.4096703,5.54125859 10.8432597,5.36108461 11.2446289,5.23657227 C11.6459981,5.11205992 11.9418936,5.04980469 12.1323242,5.04980469 C12.2436529,5.04980469 12.3322751,5.07690403 12.3981934,5.13110352 C12.4641117,5.18530301 12.5109862,5.25854446 12.5388184,5.35083008 C12.5666505,5.4431157 12.5805664,5.54052683 12.5805664,5.64306641 C12.5805664,5.73681687 12.5512698,5.83056594 12.4926758,5.92431641 C12.4077144,6.0502936 12.2583019,6.18286063 12.0444336,6.32202148 C11.8305653,6.46118234 11.6152355,6.58422798 11.3984375,6.69116211 C11.1816395,6.79809624 11.0571291,6.8515625 11.0249023,6.8515625 C11.0073241,6.8515625 10.9985352,6.84570318 10.9985352,6.83398438 C10.9985352,6.80761706 11.0322262,6.76513701 11.0996094,6.70654297 C11.1669925,6.64794893 11.2416988,6.58789093 11.3237305,6.52636719 C11.505372,6.38867119 11.6123045,6.24218828 11.6445312,6.08691406 C11.3603501,6.16601602 11.0776381,6.27001889 10.7963867,6.39892578 C10.5151353,6.52783268 10.2368178,6.68163973 9.96142578,6.86035156 C9.68603378,7.03906339 9.41064591,7.24267464 9.13525391,7.47119141 C8.82470548,7.7319349 8.56030383,8.0036607 8.34204102,8.28637695 C8.12377821,8.56909321 7.95825252,8.83056521 7.84545898,9.07080078 C7.73266545,9.31103636 7.67626953,9.49560482 7.67626953,9.62451172 C7.67626953,9.72119189 7.70703094,9.80541956 7.76855469,9.87719727 C7.83007843,9.94897497 7.91357369,9.98486328 8.01904297,9.98486328 C8.14209046,9.98486328 8.29443269,9.9306646 8.47607422,9.82226562 C8.67236426,9.70507754 8.88842656,9.55493256 9.12426758,9.37182617 C9.3601086,9.18871979 9.57763572,9.01513754 9.77685547,8.85107422 C9.97607521,8.6870109 10.1914051,8.50683692 10.4228516,8.31054688 C10.6367198,8.13183504 10.8029779,7.98754938 10.9216309,7.87768555 C11.0402838,7.76782172 11.128906,7.67187541 11.1875,7.58984375 C11.3105475,7.41992103 11.4328607,7.32177748 11.5544434,7.29541016 C11.676026,7.26904284 11.7800289,7.29321252 11.8664551,7.36791992 C11.9528813,7.44262733 11.9960938,7.53417915 11.9960938,7.64257812 C11.9960938,7.67773455 11.9323737,7.81469607 11.8049316,8.0534668 C11.6774896,8.29223752 11.4826673,8.63793719 11.220459,9.09057617 C10.9582506,9.54321515 10.6352558,10.0771454 10.2514648,10.6923828 C10.5913103,10.5107413 11.1347619,10.1459988 11.8818359,9.59814453 Z M14.6855469,9.60693359 L14.6855469,9.90136719 C14.4921865,10.0771493 14.3369146,10.1943356 14.2197266,10.2529297 C14.1025385,10.3115237 13.9340831,10.334961 13.7143555,10.3232422 C13.3334942,10.7744163 12.9980483,11 12.7080078,11 C12.5439445,11 12.3945319,10.9458013 12.2597656,10.8374023 C12.1249993,10.7290034 12.0173344,10.5810556 11.9367676,10.3935547 C11.8562008,10.2060538 11.815918,9.99658319 11.815918,9.76513672 C11.815918,9.57763578 11.8781732,9.36963005 12.0026855,9.14111328 C12.1271979,8.91259651 12.2883291,8.69946388 12.486084,8.50170898 C12.6838389,8.30395409 12.8955067,8.14428772 13.1210938,8.02270508 C13.3466808,7.90112244 13.5561514,7.84033203 13.7495117,7.84033203 C13.8872077,7.84033203 13.9956051,7.86157205 14.074707,7.90405273 C14.153809,7.94653342 14.1933594,8.00585899 14.1933594,8.08203125 C14.1933594,8.14062529 14.1596683,8.20800743 14.0922852,8.28417969 C14.2036138,8.3076173 14.279785,8.34643528 14.3208008,8.40063477 C14.3618166,8.45483426 14.3823242,8.55371022 14.3823242,8.69726562 C14.3823242,8.83789133 14.3493656,9.01513565 14.2834473,9.22900391 C14.217529,9.44287216 14.127442,9.64355375 14.0131836,9.83105469 L14.0922852,9.91015625 L14.1582031,9.91015625 C14.2080081,9.91015625 14.2570798,9.8977052 14.3054199,9.87280273 C14.35376,9.84790027 14.3969725,9.82153334 14.4350586,9.79370117 C14.4731447,9.765869 14.55664,9.70361376 14.6855469,9.60693359 Z M13.7802734,8.45117188 C13.5371082,8.59765698 13.3291024,8.73022402 13.15625,8.84887695 C12.9833976,8.96752989 12.8369147,9.08764588 12.7167969,9.20922852 C12.5966791,9.33081115 12.5161135,9.45312438 12.4750977,9.57617188 C12.4018551,9.90429852 12.3652344,10.0815428 12.3652344,10.1079102 C12.3652344,10.3012705 12.4999987,10.3979492 12.7695312,10.3979492 C12.8955084,10.3979492 13.1064438,10.2895519 13.4023438,10.0727539 C13.3525388,9.93505791 13.3276367,9.80322329 13.3276367,9.67724609 C13.3276367,9.49267486 13.3657223,9.30444432 13.4418945,9.11254883 C13.5180668,8.92065334 13.6308586,8.70019656 13.7802734,8.45117188 Z M17.5024414,9.60693359 L17.5024414,9.90136719 C17.3090811,10.0771493 17.1538092,10.1943356 17.0366211,10.2529297 C16.919433,10.3115237 16.7509777,10.334961 16.53125,10.3232422 C16.1503887,10.7744163 15.8149429,11 15.5249023,11 C15.360839,11 15.2114265,10.9458013 15.0766602,10.8374023 C14.9418939,10.7290034 14.8342289,10.5810556 14.7536621,10.3935547 C14.6730953,10.2060538 14.6328125,9.99658319 14.6328125,9.76513672 C14.6328125,9.57763578 14.6950677,9.36963005 14.8195801,9.14111328 C14.9440924,8.91259651 15.1052236,8.69946388 15.3029785,8.50170898 C15.5007334,8.30395409 15.7124012,8.14428772 15.9379883,8.02270508 C16.1635753,7.90112244 16.3730459,7.84033203 16.5664062,7.84033203 C16.7041023,7.84033203 16.8124996,7.86157205 16.8916016,7.90405273 C16.9707035,7.94653342 17.0102539,8.00585899 17.0102539,8.08203125 C17.0102539,8.14062529 16.9765628,8.20800743 16.9091797,8.28417969 C17.0205084,8.3076173 17.0966795,8.34643528 17.1376953,8.40063477 C17.1787111,8.45483426 17.1992188,8.55371022 17.1992188,8.69726562 C17.1992188,8.83789133 17.1662601,9.01513565 17.1003418,9.22900391 C17.0344235,9.44287216 16.9443365,9.64355375 16.8300781,9.83105469 L16.9091797,9.91015625 L16.9750977,9.91015625 C17.0249026,9.91015625 17.0739744,9.8977052 17.1223145,9.87280273 C17.1706545,9.84790027 17.213867,9.82153334 17.2519531,9.79370117 C17.2900393,9.765869 17.3735345,9.70361376 17.5024414,9.60693359 Z M16.597168,8.45117188 C16.3540027,8.59765698 16.145997,8.73022402 15.9731445,8.84887695 C15.8002921,8.96752989 15.6538092,9.08764588 15.5336914,9.20922852 C15.4135736,9.33081115 15.333008,9.45312438 15.2919922,9.57617188 C15.2187496,9.90429852 15.1821289,10.0815428 15.1821289,10.1079102 C15.1821289,10.3012705 15.3168932,10.3979492 15.5864258,10.3979492 C15.712403,10.3979492 15.9233384,10.2895519 16.2192383,10.0727539 C16.1694333,9.93505791 16.1445312,9.80322329 16.1445312,9.67724609 C16.1445312,9.49267486 16.1826168,9.30444432 16.2587891,9.11254883 C16.3349613,8.92065334 16.4477532,8.70019656 16.597168,8.45117188 Z M19.5019531,9.62451172 C19.2441393,9.91748193 19.0134288,10.1665029 18.8098145,10.371582 C18.6062002,10.5766612 18.4406745,10.7297358 18.3132324,10.8308106 C18.1857904,10.9318853 18.098633,10.9824219 18.0517578,10.9824219 C17.9755856,10.9824219 17.8898931,10.920899 17.7946777,10.7978516 C17.6994624,10.6748041 17.6181644,10.5180674 17.5507812,10.3276367 C17.4833981,10.1372061 17.449707,9.94384864 17.449707,9.74755859 C17.449707,9.46337749 17.587401,9.1770034 17.862793,8.88842773 C18.138185,8.59985207 18.4516584,8.36035251 18.8032227,8.16992188 C19.1547869,7.97949124 19.4184562,7.88427734 19.5942383,7.88427734 C19.7377937,7.88427734 19.8784173,7.97509675 20.0161133,8.15673828 C20.2417003,7.68505624 20.4562978,7.26611511 20.6599121,6.89990234 C20.8635264,6.53368958 21.034179,6.26123136 21.171875,6.08251953 C21.309571,5.9038077 21.4077146,5.81445312 21.4663086,5.81445312 C21.530762,5.81445312 21.5900876,5.84594695 21.6442871,5.90893555 C21.6984866,5.97192414 21.7255859,6.04296835 21.7255859,6.12207031 C21.7255859,6.27441482 21.6142589,6.53588682 21.3916016,6.90649414 C21.1689442,7.27710146 20.9492198,7.63818184 20.7324219,7.98974609 C20.5156239,8.34131035 20.3295906,8.68774243 20.1743164,9.02905273 C20.0190422,9.37036303 19.9414062,9.68603371 19.9414062,9.97607422 C19.9414062,10.2397474 20.0263663,10.371582 20.1962891,10.371582 C20.2988286,10.371582 20.4277336,10.3137213 20.5830078,10.1979981 C20.738282,10.0822748 20.9594712,9.88818496 21.246582,9.61572266 L21.246582,9.93652344 C20.6137664,10.7539103 20.1259783,11.1625977 19.7832031,11.1625977 C19.6455071,11.1625977 19.5466312,11.1098638 19.4865723,11.0043945 C19.4265134,10.8989252 19.3964844,10.7421885 19.3964844,10.5341797 C19.3964844,10.2529283 19.4316403,9.94970866 19.5019531,9.62451172 Z M19.8271484,8.55224609 C19.5664049,8.64013716 19.2602557,8.78149317 18.9086914,8.97631836 C18.5571271,9.17114355 18.3447269,9.30517542 18.2714844,9.37841797 C18.2070309,9.43701201 18.1499026,9.54687419 18.1000977,9.70800781 C18.0502927,9.86914143 18.0253906,9.99072225 18.0253906,10.0727539 C18.0253906,10.1225588 18.0400389,10.1635741 18.0693359,10.1958008 C18.098633,10.2280275 18.1352537,10.2441406 18.1791992,10.2441406 C18.220215,10.2441406 18.2670896,10.2265627 18.3198242,10.1914062 C18.3725589,10.1562498 18.4567865,10.0874029 18.5725098,9.98486328 C18.688233,9.88232371 18.7636717,9.8164064 18.7988281,9.78710938 C18.8486331,9.74316384 18.9592277,9.64868237 19.1306152,9.50366211 C19.3020028,9.35864185 19.4272457,9.2451176 19.5063477,9.16308594 C19.5854496,9.08105428 19.6528318,8.98950246 19.7084961,8.88842773 C19.7641604,8.78735301 19.8037108,8.67529358 19.8271484,8.55224609 Z M24.1557617,9.62451172 L24.1557617,9.91015625 C23.8510727,10.1035166 23.6108407,10.2001953 23.4350586,10.2001953 C23.3383784,10.2001953 23.2358404,10.1840822 23.1274414,10.1518555 C22.8637682,10.4858415 22.6374521,10.730468 22.4484863,10.8857422 C22.2595205,11.0410164 22.0698252,11.1186523 21.8793945,11.1186523 C21.6596669,11.1186523 21.4904791,11.0029308 21.3718262,10.7714844 C21.2531732,10.5400379 21.1938477,10.2529314 21.1938477,9.91015625 C21.1938477,9.44433361 21.3344712,8.93677032 21.6157227,8.38745117 C21.8969741,7.83813202 22.236082,7.323977 22.6330566,6.8449707 C23.0300313,6.3659644 23.4145489,5.96972813 23.7866211,5.65625 C24.1586933,5.34277187 24.4106439,5.18603516 24.5424805,5.18603516 C24.6684577,5.18603516 24.7314453,5.27246007 24.7314453,5.4453125 C24.7314453,6.21289446 23.7470802,7.55174826 21.7783203,9.46191406 C21.7724609,9.5146487 21.7695312,9.61865157 21.7695312,9.77392578 C21.7695312,10.1782247 21.8779286,10.3803711 22.0947266,10.3803711 C22.1796879,10.3803711 22.2653804,10.3459476 22.3518066,10.2770996 C22.4382329,10.2082516 22.5707999,10.0771494 22.7495117,9.88378906 C22.6791989,9.72558515 22.644043,9.60839882 22.644043,9.53222656 C22.644043,9.37109294 22.7099603,9.19677828 22.8417969,9.00927734 C22.9736335,8.82177641 23.1237785,8.65991279 23.2922363,8.52368164 C23.4606942,8.38745049 23.5830074,8.31933594 23.6591797,8.31933594 C23.7792975,8.31933594 23.8393555,8.40576085 23.8393555,8.57861328 C23.8393555,8.71044988 23.804932,8.86865142 23.736084,9.05322266 C23.667236,9.23779389 23.5668952,9.44872928 23.4350586,9.68603516 C23.4848635,9.72705099 23.5244139,9.75707998 23.5537109,9.77612305 C23.583008,9.79516611 23.6269528,9.8046875 23.6855469,9.8046875 C23.8203132,9.8046875 23.9770499,9.74462951 24.1557617,9.62451172 Z M21.9233398,8.96533203 C22.0756844,8.83349543 22.228759,8.67749114 22.3825684,8.49731445 C22.5363777,8.31713777 22.761229,8.04101749 23.0571289,7.66894531 C23.34131,7.31152165 23.5646965,7.01342893 23.7272949,6.7746582 C23.8898934,6.53588748 24.0122066,6.33740313 24.0942383,6.17919922 C24.1762699,6.0209953 24.2172852,5.91259795 24.2172852,5.85400391 C24.2172852,5.81005837 24.2055665,5.78808594 24.1821289,5.78808594 C24.1176755,5.78808594 23.9836436,5.89428605 23.7800293,6.10668945 C23.576415,6.31909286 23.3442396,6.60986144 23.0834961,6.97900391 C22.7231427,7.48877208 22.4624031,7.8725573 22.3012695,8.13037109 C22.1401359,8.38818488 22.0141606,8.66650241 21.9233398,8.96533203 Z M26.9814453,9.60693359 L26.9814453,9.90136719 C26.788085,10.0771493 26.6328131,10.1943356 26.515625,10.2529297 C26.3984369,10.3115237 26.2299816,10.334961 26.0102539,10.3232422 C25.6293926,10.7744163 25.2939468,11 25.0039062,11 C24.8398429,11 24.6904304,10.9458013 24.5556641,10.8374023 C24.4208978,10.7290034 24.3132328,10.5810556 24.232666,10.3935547 C24.1520992,10.2060538 24.1118164,9.99658319 24.1118164,9.76513672 C24.1118164,9.57763578 24.1740716,9.36963005 24.298584,9.14111328 C24.4230963,8.91259651 24.5842275,8.69946388 24.7819824,8.50170898 C24.9797373,8.30395409 25.1914051,8.14428772 25.4169922,8.02270508 C25.6425793,7.90112244 25.8520498,7.84033203 26.0454102,7.84033203 C26.1831062,7.84033203 26.2915035,7.86157205 26.3706055,7.90405273 C26.4497074,7.94653342 26.4892578,8.00585899 26.4892578,8.08203125 C26.4892578,8.14062529 26.4555667,8.20800743 26.3881836,8.28417969 C26.4995123,8.3076173 26.5756834,8.34643528 26.6166992,8.40063477 C26.657715,8.45483426 26.6782227,8.55371022 26.6782227,8.69726562 C26.6782227,8.83789133 26.645264,9.01513565 26.5793457,9.22900391 C26.5134274,9.44287216 26.4233404,9.64355375 26.309082,9.83105469 L26.3881836,9.91015625 L26.4541016,9.91015625 C26.5039065,9.91015625 26.5529783,9.8977052 26.6013184,9.87280273 C26.6496584,9.84790027 26.6928709,9.82153334 26.730957,9.79370117 C26.7690432,9.765869 26.8525384,9.70361376 26.9814453,9.60693359 Z M26.0761719,8.45117188 C25.8330066,8.59765698 25.6250009,8.73022402 25.4521484,8.84887695 C25.279296,8.96752989 25.1328131,9.08764588 25.0126953,9.20922852 C24.8925775,9.33081115 24.8120119,9.45312438 24.7709961,9.57617188 C24.6977535,9.90429852 24.6611328,10.0815428 24.6611328,10.1079102 C24.6611328,10.3012705 24.7958971,10.3979492 25.0654297,10.3979492 C25.1914069,10.3979492 25.4023423,10.2895519 25.6982422,10.0727539 C25.6484373,9.93505791 25.6235352,9.80322329 25.6235352,9.67724609 C25.6235352,9.49267486 25.6616207,9.30444432 25.737793,9.11254883 C25.8139652,8.92065334 25.9267571,8.70019656 26.0761719,8.45117188 Z M28.9985352,9.78710938 L28.2163086,10.4506836 C27.8442364,10.7758805 27.5952155,10.9384766 27.4692383,10.9384766 C27.3549799,10.9384766 27.2348639,10.8073744 27.1088867,10.545166 C26.9829095,10.2829577 26.9199219,10.0537119 26.9199219,9.85742188 C26.9199219,9.69042885 26.9455564,9.54907284 26.9968262,9.43334961 C27.048096,9.31762637 27.1367181,9.16748139 27.2626953,8.98291016 C27.4414071,8.73388547 27.6127921,8.52295008 27.7768555,8.35009766 C27.9409188,8.17724523 28.0859369,8.04321337 28.2119141,7.94799805 C28.3378913,7.85278273 28.425781,7.80517578 28.4755859,7.80517578 C28.5546879,7.80517578 28.6315914,7.846191 28.7062988,7.92822266 C28.7810062,8.01025432 28.8183594,8.0952144 28.8183594,8.18310547 C28.8183594,8.23876981 28.7780766,8.32812438 28.6975098,8.45117188 C28.616943,8.57421937 28.4895028,8.73022366 28.3151855,8.91918945 C28.1408683,9.10815524 27.8984391,9.33447134 27.5878906,9.59814453 L27.5043945,9.83984375 C27.4809569,9.88671898 27.4692383,9.9277342 27.4692383,9.96289062 C27.4692383,10.0419926 27.5087887,10.081543 27.5878906,10.081543 C27.6699223,10.081543 27.8625473,9.9775401 28.1657715,9.76953125 C28.4689957,9.5615224 28.7978498,9.28174004 29.1523438,8.93017578 C29.2900398,8.79247978 29.4042964,8.67089896 29.4951172,8.56542969 C29.585938,8.45996041 29.6679684,8.36108445 29.7412109,8.26879883 C29.8144535,8.17651321 29.8752439,8.10693383 29.923584,8.06005859 C29.9719241,8.01318336 30.0151365,7.98828126 30.0532227,7.98535156 C30.1264652,7.97656246 30.1835935,8.00732387 30.2246094,8.07763672 C30.2656252,8.14794957 30.2861328,8.25195244 30.2861328,8.38964844 C30.2861328,8.4687504 30.2509769,8.56762636 30.1806641,8.6862793 C30.1103512,8.80493223 29.9785166,9.00707865 29.7851562,9.29272461 C29.5917959,9.57837057 29.3991709,9.87426605 29.2072754,10.1804199 C29.0153799,10.4865738 28.8198252,10.8315411 28.6206055,11.215332 C28.6293946,11.2065429 28.7194816,11.1186532 28.8908691,10.9516602 C29.0622567,10.7846671 29.2431631,10.6103525 29.4335938,10.4287109 C29.6240244,10.2470694 29.7807611,10.1013189 29.9038086,9.99145508 C30.0268561,9.88159125 30.1806631,9.7534187 30.3652344,9.60693359 L30.3652344,9.90136719 C29.9697246,10.326174 29.6115739,10.729002 29.2907715,11.1098633 C28.9699691,11.4907246 28.722413,11.795409 28.5480957,12.0239258 C28.3737784,12.2524425 28.2719728,12.385742 28.2426758,12.4238281 C28.1635738,12.5263677 28.0925296,12.622314 28.029541,12.7116699 C27.9665524,12.8010258 27.9138186,12.8698728 27.8713379,12.9182129 C27.8288572,12.966553 27.7944337,12.9907227 27.7680664,12.9907227 C27.7065427,12.9907227 27.6516116,12.9299322 27.6032715,12.8083496 C27.5549314,12.686767 27.5307617,12.579102 27.5307617,12.4853516 C27.5307617,12.4003902 27.5468748,12.3256839 27.5791016,12.2612305 C27.7900401,11.7866187 28.2631799,10.9619199 28.9985352,9.78710938 Z" id="Goodboy" fill="#000000" fill-rule="nonzero"></path>
                    </g>
                </g>
                <circle id="Oval-5" fill-opacity="0.01" fill="#D8D8D8" fill-rule="nonzero" cx="22.5" cy="22.5" r="22.5"></circle>
            </g>
        </g>
    </g>
</svg>