<?xml version="1.0" encoding="UTF-8"?>
<svg width="319px" height="506px" viewBox="0 0 319 506" version="1.1" xmlns="http://www.w3.org/2000/svg" xmlns:xlink="http://www.w3.org/1999/xlink">
    <!-- Generator: Sketch 58 (84663) - https://sketch.com -->
    <title>img/upgrade</title>
    <desc>Created with Sketch.</desc>
    <defs>
        <rect id="path-1" x="0" y="0" width="319" height="506"></rect>
        <linearGradient x1="73.4452389%" y1="0%" x2="42.7882471%" y2="91.7144377%" id="linearGradient-3">
            <stop stop-color="#00CAFC" offset="0%"></stop>
            <stop stop-color="#586AF2" offset="100%"></stop>
        </linearGradient>
        <path d="M7.84453575,0.999319526 C8.05704629,1.22610604 7.63202521,1.90633296 6.99449358,2.58655988 C6.35696195,3.2667868 5.71943033,3.72022721 5.50691978,3.4934407 C5.29440924,3.2667868 5.71943033,2.58655988 6.35696195,1.90633296 C6.99449358,1.22610604 7.63202521,0.772533011 7.84453575,0.999319526 Z M2.53177219,1.90633296 C3.16930382,2.58655988 3.5943249,3.2667868 3.38181436,3.4934407 C3.16930382,3.72022721 2.53177219,3.2667868 1.89424056,2.58655988 C1.25670894,1.90633296 0.831687851,1.22610604 1.04419839,0.999319526 C1.04419839,0.772533011 1.68173002,1.22610604 2.53177219,1.90633296 Z M6.35696195,7.34814833 C5.71943033,6.66792141 5.29440924,5.98769449 5.50691978,5.76090797 C5.71943033,5.53412146 6.35696195,5.98769449 6.99449358,6.66792141 C7.63202521,7.34814833 8.05704629,8.02837525 7.84453575,8.25502914 C7.63202521,8.48181566 6.99449358,8.02837525 6.35696195,7.34814833 Z M3.38181436,5.76090797 C3.38181436,5.98769449 3.16930382,6.66792141 2.53177219,7.34814833 C1.89424056,8.02837525 1.25670894,8.48181566 1.04419839,8.25502914 C0.831687851,8.02837525 1.25670894,7.34814833 1.89424056,6.66792141 C2.53177219,5.98769449 3.16930382,5.53412146 3.38181436,5.76090797 Z" id="path-4"></path>
        <polygon id="path-6" points="0.255510223 4.67749053 3.34454784 3.79742687 4.48254179 0.277265071 5.45806363 3.79742687 8.7096595 4.8534847 5.45806363 5.73354835 4.48254179 9.42970432 3.5071061 5.73354835"></polygon>
        <polygon id="path-8" points="0.295853943 5.77807654 3.87263434 4.69093908 5.19031155 0.342503912 6.31986315 4.69093908 10.0848689 5.9954811 6.31986315 7.08261855 5.19031155 11.6484583 4.06085969 7.08261855"></polygon>
        <polygon id="path-10" points="0.188270691 3.37054465 2.46440367 2.73638113 3.30292553 0.199793948 4.02173109 2.73638113 6.41764384 3.49736397 4.02173109 4.13152749 3.30292553 6.794934 2.58418344 4.13152749"></polygon>
        <path d="M27.7185457,9.36868232 L27.7185457,32.1929274 C27.7185457,32.8916282 27.1535662,33.4738891 26.4755428,33.4738891 L1.61572416,33.4738891 C0.937760673,33.4738891 0.372721248,32.8916282 0.372721248,32.1929274 L0.372721248,1.79941391 C0.372721248,1.10071316 0.937760673,0.518513709 1.61572416,0.518513709 L19.1306291,0.518513709 C19.1306291,0.518513709 19.243613,0.634953599 19.3565969,0.634953599 C19.6956086,0.751393489 20.0346203,0.98427327 20.4866159,1.21721446 C21.616575,2.03235511 22.8595779,2.96393564 24.1025808,4.24489726 C25.3455837,5.52585888 26.3625589,6.8068205 27.0405823,7.97128081 C27.2665501,8.43710179 27.4925779,8.78642146 27.6055618,9.13580254 C27.6055618,9.25224243 27.7185457,9.25224243 27.7185457,9.36868232 Z" id="path-12"></path>
        <path d="M0.204772156,0.499352715 C0.204772156,0.499352715 2.80376191,1.19805347 5.96773121,4.45861605 C9.13170051,7.71924004 9.80972387,10.3976032 9.80972387,10.3976032 L1.67380281,10.3976032 C0.882795515,10.3976032 0.204772156,9.69890241 0.204772156,8.88376177 L0.204772156,0.499352715 Z" id="path-14"></path>
        <path d="M0.117414677,0.433947397 C0.117414677,0.433947397 2.71640443,1.13264815 5.88037373,4.39321073 C9.04434304,7.65383472 9.72230652,10.3321978 9.72230652,10.3321978 L1.58638546,10.3321978 C0.795378162,10.3321978 0.117414677,9.63349709 0.117414677,8.81835645 L0.117414677,0.433947397 Z" id="path-16"></path>
        <path d="M27.8059631,9.43408764 L27.8059631,32.2583328 C27.8059631,32.9570335 27.2409237,33.5392944 26.5629602,33.5392944 L1.70314151,33.5392944 C1.02511815,33.5392944 0.460138601,32.9570335 0.460138601,32.2583328 L0.460138601,1.86481923 C0.460138601,1.16611848 1.02511815,0.583919027 1.70314151,0.583919027 L19.2179865,0.583919027 C19.2179865,0.583919027 19.3310304,0.700358917 19.4440143,0.700358917 C19.783026,0.816798808 20.1219778,1.04967859 20.5739734,1.28261978 C21.7039924,2.09776043 22.9469953,3.02934096 24.1899982,4.31030258 C25.4329412,5.5912642 26.4499763,6.87222582 27.1279397,8.03668613 C27.3539675,8.50250711 27.5799354,8.85188819 27.6929193,9.20120786 C27.6929193,9.31764775 27.8059631,9.31764775 27.8059631,9.43408764 Z" id="path-18"></path>
        <path d="M0.202315363,6.30901336 C0.0625244109,6.1582972 0.342106315,5.55543257 0.901344203,4.95248844 C1.46058209,4.34954432 2.01981998,4.048112 2.15961093,4.19882816 C2.29947596,4.34954432 2.01981998,4.95248844 1.46058209,5.55543257 C0.901344203,6.1582972 0.342106315,6.45980901 0.202315363,6.30901336 Z M4.67621847,5.55543257 C4.11698058,4.95248844 3.83739868,4.34954432 3.97718963,4.19882816 C4.11698058,4.048112 4.67621847,4.34954432 5.23545636,4.95248844 C5.79469425,5.55543257 6.07435023,6.1582972 5.9344852,6.30901336 C5.79469425,6.45980901 5.23545636,6.1582972 4.67621847,5.55543257 Z M1.46058209,1.03355036 C2.01981998,1.636415 2.29947596,2.23935912 2.15961093,2.39007528 C2.01981998,2.54079144 1.46058209,2.23935912 0.901344203,1.636415 C0.342106315,1.03355036 0.0625244109,0.430606239 0.202315363,0.279890081 C0.342106315,0.129173923 0.901344203,0.430606239 1.46058209,1.03355036 Z M3.97718963,2.39007528 C3.83739868,2.23935912 4.11698058,1.636415 4.67621847,1.03355036 C5.23545636,0.430606239 5.79469425,0.129173923 5.9344852,0.279890081 C6.07435023,0.430606239 5.79469425,1.03355036 5.23545636,1.636415 C4.67621847,2.23935912 4.11698058,2.54079144 3.97718963,2.39007528 Z" id="path-20"></path>
    </defs>
    <g id="img/upgrade" stroke="none" stroke-width="1" fill="none" fill-rule="evenodd">
        <g>
            <mask id="mask-2" fill="white">
                <use xlink:href="#path-1"></use>
            </mask>
            <g id="Mask"></g>
            <g mask="url(#mask-2)">
                <g transform="translate(-49.000000, -1.000000)">
                    <rect id="Rectangle" fill="url(#linearGradient-3)" x="48.6630435" y="0" width="320.733696" height="508.75"></rect>
                    <g id="Group-36" stroke-width="1" fill="none" transform="translate(0.000000, 80.736413)">
                        <g id="Group-9" fill-rule="nonzero">
                            <rect id="Rectangle" fill="#000000" x="23.5554498" y="5.68434189e-14" width="230.311655" height="321.34862"></rect>
                            <rect id="Rectangle" fill="#3F58EF" x="12.0938887" y="9.63528261" width="230.311655" height="321.34862"></rect>
                            <polygon id="Path" fill="#A3ADEC" points="-5.68434189e-13 18.2751848 -5.68434189e-13 339.623804 230.311655 339.623804 230.311655 62.3556073 204.854244 18.2751848"></polygon>
                            <polyline id="Path" fill="#000000" points="204.854244 18.2751848 204.854244 61.8728478 230.311655 61.8728478"></polyline>
                            <rect id="Rectangle" fill="#FFFFFF" x="42.7941431" y="75.7932432" width="144.723369" height="4.63349592"></rect>
                            <rect id="Rectangle" fill="#FFFFFF" x="42.7941431" y="101.29489" width="87.1267842" height="4.63349592"></rect>
                            <rect id="Rectangle" fill="#FFFFFF" x="42.7941431" y="126.796537" width="144.723369" height="4.63349592"></rect>
                            <rect id="Rectangle" fill="#FFFFFF" x="42.7941431" y="152.298183" width="144.723369" height="4.63349592"></rect>
                            <rect id="Rectangle" fill="#FFFFFF" x="42.7941431" y="193.208319" width="87.1267842" height="4.63349592"></rect>
                            <rect id="Rectangle" fill="#FFFFFF" x="42.7941431" y="218.709966" width="144.723369" height="4.63349592"></rect>
                            <rect id="Rectangle" fill="#FFFFFF" x="42.7941431" y="244.211613" width="144.723369" height="4.63349592"></rect>
                            <rect id="Rectangle" fill="#FFFFFF" x="108.461619" y="316.635493" width="74.027146" height="1.25915625"></rect>
                            <polygon id="Path" fill="#FFFFFF" points="110.039948 313.450276 117.154879 306.338283 124.264831 313.450276 125.843161 311.872598 118.733209 304.765582 125.843161 297.653588 124.264831 296.07591 117.154879 303.187904 110.039948 296.07591 108.466598 297.653588 115.57655 304.765582 108.466598 311.872598"></polygon>
                            <path d="M189.369685,304.690928 L188.91162,306.507497 C188.637778,307.607393 190.340581,308.080198 190.614424,306.975326 C190.763793,306.373121 190.918141,305.765939 191.067509,305.158757 C191.346331,304.058861 189.643527,303.591033 189.369685,304.690928 Z" id="Path" fill="#000000"></path>
                            <path d="M183.165903,301.734648 C181.099636,304.009092 178.923831,306.497543 175.981267,307.632277 C174.486376,308.247787 172.837406,308.385144 171.261215,308.025452 C169.966686,307.682046 168.995789,306.71155 167.736113,306.303444 C165.639971,305.626586 163.215219,306.507497 161.168867,306.955418 L152.356112,308.886457 C152.779323,305.671378 152.908776,301.859071 151.474836,299.03219 L151.385215,298.882883 C153.680514,294.199618 153.79503,288.471204 152.191806,283.454486 C151.280657,280.602721 149.582832,277.691234 146.376383,277.163682 C143.169934,276.63613 140.087959,278.686614 138.410051,281.314418 C135.920572,285.271056 135.367907,290.571457 134.660895,295.085507 C133.774641,300.704429 133.226955,306.363167 132.669312,312.006974 C132.559775,313.136731 134.327305,313.126777 134.431863,312.006974 C135.158791,304.442083 135.885719,296.852307 137.464049,289.411838 C138.185997,286.022568 139.017483,281.946485 142.124353,279.886048 C146.276804,277.163682 149.408569,280.383738 150.588582,284.320467 C151.863195,288.60558 151.823363,293.403314 150.090686,297.444558 C148.457588,296.399409 146.217057,296.986683 144.454505,298.255793 C142.691954,299.524904 139.873864,302.963943 140.859698,305.447417 C141.935153,308.134944 145.699245,305.36281 146.968879,304.362452 C148.25093,303.356712 149.365143,302.153926 150.269928,300.79899 C151.230867,303.491495 150.723013,308.075221 150.449171,309.757414 C150.373641,310.062192 150.463256,310.384251 150.685372,310.606275 C150.907488,310.8283 151.22968,310.917878 151.534584,310.842379 L162.114869,308.523143 C164.215989,308.065268 166.098035,307.423247 168.139408,308.438535 C169.314442,309.015856 170.195718,309.628015 171.515142,309.851976 C176.917311,310.767726 181.109593,306.592105 184.410643,302.958966 C185.172423,302.142754 183.932663,300.893552 183.165903,301.734648 Z M145.823719,303.038596 C145.375613,303.38698 144.733327,304.033977 144.155768,304.148446 C143.551654,304.712495 143.053759,304.546598 142.662081,303.650755 C142.791533,303.297395 142.925965,302.944035 143.060397,302.590675 C143.760662,301.054386 144.978286,299.812604 146.500857,299.081959 C147.690828,298.584269 148.567125,298.703715 149.20941,299.196428 C148.325861,300.678197 147.172424,301.981397 145.808782,303.038596 L145.823719,303.038596 Z" id="Shape" fill="#000000"></path>
                        </g>
                        <g id="Group-6" transform="translate(163.329528, 241.779740)">
                            <path d="M91.4586848,43.6008073 C91.4586848,43.6008073 100.017513,45.4024459 96.2036317,55.8191021 C92.38975,66.2357584 80.5149354,77.9165478 80.5149354,77.9165478 L65.8568833,80.1163386 C65.8568833,80.1163386 66.6784114,57.5112489 71.692222,49.5929975 C76.7060326,41.6747462 79.5689334,42.1873671 79.5689334,42.1873671 L91.4586848,43.6008073 Z" id="Path" fill="#3F58EF" fill-rule="nonzero"></path>
                            <path d="M85.3644404,29.8496266 C85.3644404,29.8496266 78.5034364,36.444022 81.4957901,39.5695165 C84.4881438,42.6950111 90.3583351,37.3647489 92.3100866,34.7070831 C95.0634504,30.9644527 89.9699764,25.8830356 85.3644404,29.8496266 Z" id="Path" fill="#FFFFFF" fill-rule="nonzero"></path>
                            <path d="M87.8539193,38.0117462 C87.8539193,38.0117462 87.7145085,41.3064554 90.5027249,43.1528861 C90.5027249,43.1528861 88.013246,46.9851008 84.9163342,46.4326646 C81.8194223,45.8802285 81.4310636,43.7550913 81.5854113,42.5656116 C81.5854113,42.5656116 83.6218051,40.5748508 83.1786779,39.1265722 L87.8539193,38.0117462 Z" id="Path" fill="#FFFFFF" fill-rule="nonzero"></path>
                            <path d="M90.0098081,33.7266334 C90.0098081,33.7266334 85.1403873,30.083541 85.9768522,27.3810831 C86.8133171,24.6786252 91.8072119,26.5598943 93.3058782,30.591185 C94.8045445,34.6224758 92.8378562,34.8066212 92.8378562,34.8066212 C92.8378562,34.8066212 93.1614884,36.4489989 90.9757259,37.8276008 C89.8175538,38.6066766 88.5160954,39.1480221 87.1469073,39.4202095 C87.1469073,39.4202095 87.0423492,34.9907665 90.0098081,33.7266334 Z" id="Path" fill="#000000" fill-rule="nonzero"></path>
                            <path d="M88.9194163,41.580185 L82.7206137,45.497007 L82.8351298,48.7917163 C82.8351298,48.7917163 89.1484484,46.3032652 91.4586848,43.6008073 L88.9194163,41.580185 Z" id="Path" fill="#DEE4FC" fill-rule="nonzero"></path>
                            <polygon id="Path" fill="#DEE4FC" fill-rule="nonzero" points="81.97377 42.142575 82.7305716 45.7558059 79.8875867 47.1344078 79.5689334 42.1873671"></polygon>
                            <path d="M89.6065125,45.1386701 C93.0170987,43.4216388 95.2974614,45.9349744 96.6616958,48.1546728 C99.3752279,52.5741619 103.701942,60.8358195 103.706921,68.5599717 C103.706921,79.8326551 98.3296467,76.7419989 96.3629584,75.1294826 C95.6360305,74.5322543 94.0178692,71.1479608 92.379792,67.2908616 C90.4728512,62.8116497 88.5310576,57.6008331 87.8987299,55.1521972 C86.6988011,50.7078236 87.4904554,46.1788426 89.6065125,45.1386701 Z" id="Path" fill="#3F58EF" fill-rule="nonzero"></path>
                            <path d="M86.3253792,100.531591 C86.3253792,100.531591 85.7428412,82.6147434 80.5149354,77.9165478 L75.7351358,78.6332217 L75.7351358,78.6332217 L71.0300206,79.280219 L65.8568833,80.1163386 C65.8568833,80.1163386 51.7465167,90.4533644 50.0735868,92.8422774 C48.400657,95.2311905 56.1678313,117.438128 56.1678313,117.438128 L60.0414605,117.438128 C60.0414605,117.438128 58.916216,102.452676 57.4822762,98.8394445 C57.4822762,98.8394445 66.9422962,94.8579228 71.5328953,90.6424866 C74.6347861,96.2365247 78.1250356,102.228715 79.5490175,103.582432 C82.3671077,106.255029 94.9041237,116.024688 94.9041237,116.024688 L99.1511748,115.278152 C99.1511748,115.278152 92.7034243,104.239383 86.3253792,100.531591 Z" id="Path" stroke="#A3ADEC" stroke-width="0.587274457" fill="#000000" fill-rule="nonzero" stroke-linecap="round" stroke-linejoin="round"></path>
                            <path d="M90.6620516,44.3921347 C90.6620516,44.3921347 86.0565155,48.7270165 82.8351298,48.7917163 L82.7305716,45.7558059" id="Path" stroke="#1B145C" stroke-width="0.55298913" stroke-linecap="round" stroke-linejoin="round"></path>
                            <path d="M79.5689334,42.1873671 L79.8875867,47.1344078 L82.7305716,45.7558059 C82.7305716,45.7558059 71.8266539,72.2130179 72.4938342,79.0662122" id="Path" stroke="#A3ADEC" stroke-width="0.587274457" stroke-linecap="round" stroke-linejoin="round"></path>
                            <polygon id="Path" fill="#F9F9F9" fill-rule="nonzero" points="98.2201097 115.44239 99.8880606 119.622988 98.4043311 120.075886 97.1944443 119.73248 95.8750205 115.855473"></polygon>
                            <polygon id="Path" fill="#F9F9F9" fill-rule="nonzero" points="59.1054164 117.438128 59.1054164 120.389431 56.5810848 120.389431 56.1678313 117.438128"></polygon>
                            <polygon id="Path" fill="#000000" fill-rule="nonzero" points="79.1755957 49.4586212 71.4930637 67.6442217 72.6631188 70.5009636 75.1675346 69.1472462 81.0725787 51.0910451"></polygon>
                            <polygon id="Path" fill="#1B145C" fill-rule="nonzero" points="82.8351298 48.7917163 80.2261558 46.9701701 79.1755957 49.4586212 81.0725787 51.0910451"></polygon>
                            <polygon id="Path" fill="#1B145C" fill-rule="nonzero" points="82.8351298 48.7917163 80.2261558 46.9701701 82.7206137 45.497007"></polygon>
                            <path d="M97.1048231,119.438843 C97.1048231,119.438843 97.9363091,120.269985 99.952787,119.438843 C100.2414,120.72593 100.408101,122.037328 100.450683,123.355665 L98.2549624,123.355665 L98.1952149,122.360284 C98.1952149,122.360284 95.8799994,123.310873 94.8145025,123.355665 C93.7490055,123.400457 88.9941007,123.355665 88.9941007,123.355665 C88.9941007,123.355665 88.7849844,122.728575 89.9450816,122.230885 C91.8171698,121.414673 97.1048231,119.438843 97.1048231,119.438843 Z" id="Path" fill="#000000" fill-rule="nonzero"></path>
                            <path d="M56.441674,119.926579 C56.441674,119.926579 57.2731599,120.757722 59.2946168,119.926579 C59.58323,121.213667 59.7499313,122.525064 59.7925126,123.843401 L57.5967922,123.843401 L57.5370447,122.848021 C57.5370447,122.848021 55.2218293,123.798609 54.1513533,123.843401 C53.0808774,123.888193 48.3359305,123.843401 48.3359305,123.843401 C48.3359305,123.843401 48.1268143,123.216311 49.2819325,122.718621 C51.1589996,121.897432 56.441674,119.926579 56.441674,119.926579 Z" id="Path" fill="#000000" fill-rule="nonzero"></path>
                            <path d="M77.5972661,42.8692027 C77.5972661,42.8692027 52.9265297,59.2929799 52.3937812,65.6634146 C51.8610327,72.0338494 55.8790517,72.5962394 57.0142541,72.4917244 C59.0058373,72.3125559 63.178204,68.59481 63.178204,68.59481 L69.7354915,61.627147 L77.5972661,42.8692027 Z" id="Path" fill="#3F58EF" fill-rule="nonzero"></path>
                            <polygon id="Path" fill="#3F58EF" fill-rule="nonzero" points="66.7182431 47.8560587 68.6102471 49.5233209 69.7354915 47.7117285 68.7446789 46.1240967"></polygon>
                            <path d="M66.7182431,47.8560587 C66.7182431,47.8560587 48.1218353,59.541825 52.8070347,69.6548902 L59.7775757,68.24145 C59.7775757,68.24145 65.6029565,61.1742489 69.1878062,48.7917163 L66.7182431,47.8560587 Z" id="Path" fill="#3F58EF" fill-rule="nonzero"></path>
                            <path d="M126.786765,-14.3777174 L130.350518,-14.3777174 C134.078494,-14.3755955 137.100977,-11.3568111 137.108592,-7.62791205 L137.096666,64.9344841 L120.009567,64.9372933 L120.021494,-7.62510286 C120.030341,-11.3559472 123.056845,-14.3765274 126.786765,-14.3777174 L126.786765,-14.3777174 Z" id="Path" fill="#000000" fill-rule="nonzero" transform="translate(128.559080, 25.279788) rotate(63.620000) translate(-128.559080, -25.279788) "></path>
                            <polygon id="Path" fill="#000000" fill-rule="nonzero" points="23.1025719 82.8237733 18.9202473 74.397878 90.1691347 37.0810655 95.934768 48.702132"></polygon>
                            <path d="M22.6594446,81.9677462 L19.3484376,75.2887434 L5.73098779,80.1362462 C5.6416393,80.1692907 5.55899141,80.2181846 5.48701885,80.2805763 C5.44071913,80.3075044 5.40147216,80.3450295 5.37250282,80.3900682 L0.318860556,88.2585505 C0.228826851,88.2080526 0.115564087,88.2289716 0.049527466,88.3082949 C-0.0165091553,88.3876181 -0.0165091553,88.5027505 0.049527466,88.5820738 C0.115564087,88.6613971 0.228826851,88.6823161 0.318860556,88.6318182 L0.318860556,88.6318182 L0.318860556,88.6318182 L10.9489357,83.3612788 C10.7419909,82.6855072 11.0899237,81.9643198 11.7477917,81.7054278 C12.4056598,81.4465358 13.1520648,81.7370665 13.4615426,82.3724881 C13.7710203,83.0079098 13.5394196,83.7743782 12.9297857,84.1323048 C12.3201518,84.4902313 11.5376503,84.3191598 11.1331571,83.7395233 L0.503081999,89.0150396 L0.503081999,89.0150396 C0.394464799,89.0686386 0.349881692,89.2001045 0.403502841,89.3086769 C0.45712399,89.4172492 0.588644157,89.4618139 0.697261357,89.4082149 C0.764459366,89.3721127 0.809262822,89.3049352 0.816756346,89.2290464 L10.0726391,89.9507348 L10.1473234,89.9507348 C10.2922443,89.9521657 10.4343389,89.9105941 10.555598,89.8312516 L22.6594446,81.9677462 Z" id="Path" fill="#C9D4F6" fill-rule="nonzero"></path>
                            <path d="M90.1691347,37.0810655 L95.934768,48.702132" id="Path" stroke="#A3ADEC" stroke-width="0.587274457" stroke-linecap="round" stroke-linejoin="round"></path>
                            <polygon id="Path" fill="#F9F9F9" fill-rule="nonzero" points="95.1182189 32.3331008 103.228941 47.3782761 107.177255 45.4223535 98.892269 30.4617856"></polygon>
                            <polygon id="Path" fill="#F9F9F9" fill-rule="nonzero" points="92.9523722 33.4031347 101.063095 48.4532869 102.272981 47.8560587 93.9929744 32.8905138"></polygon>
                            <polygon id="Path" fill="#F9F9F9" fill-rule="nonzero" points="145.624768 7.28932904 153.740469 22.3394812 154.945377 21.742253 146.66537 6.77670812"></polygon>
                            <path d="M136.810848,10.1891652 L137.473033,10.1890133 C138.1602,10.1883661 138.717386,10.7452971 138.717544,11.4324638 C138.717544,11.4326271 138.717544,11.4327904 138.717054,11.4329536 L138.710195,53.1642063 C138.709592,53.8511817 138.15274,54.4080697 137.465765,54.4087171 L136.80358,54.4088689 C136.116413,54.4095162 135.559227,53.8525852 135.559069,53.1654184 C135.559069,53.1652552 135.559069,53.1650919 135.559559,53.1649287 L135.566418,11.433676 C135.567021,10.7467006 136.123873,10.1898126 136.810848,10.1891652 Z" id="Rectangle" fill="#F9F9F9" fill-rule="nonzero" transform="translate(137.138307, 32.298941) rotate(63.620000) translate(-137.138307, -32.298941) "></path>
                            <path d="M68.7446789,46.1340505 C68.7446789,46.1340505 70.6864725,43.9790519 72.5635396,43.9591443 C74.4406067,43.9392366 76.3126949,45.0988549 76.8852751,46.362988 C77.4578552,47.6271212 75.6903252,48.498079 74.764239,48.1198345 C73.8381528,47.7415899 69.7354915,47.7216823 69.7354915,47.7216823 L68.7446789,46.1340505 Z" id="Path" fill="#FFFFFF" fill-rule="nonzero"></path>
                            <path d="M102.113655,75.7864337 C102.113655,75.7864337 97.7421297,60.8208888 91.7126117,52.8429146 L87.6796558,54.2065858 C87.6796558,54.2065858 91.0952209,67.7686443 94.401249,76.6026456 C95.5663251,79.7281402 99.6391127,78.5934065 101.869686,76.1049554 L102.113655,75.7864337 Z" id="Path" fill="#3F58EF" fill-rule="nonzero"></path>
                            <polygon id="Path" fill="#3F58EF" fill-rule="nonzero" points="88.1626147 56.082878 92.8179403 54.4305464 91.5781798 51.553897 87.1966969 53.2161823"></polygon>
                            <path d="M90.492767,52.2805247 C90.492767,52.2805247 91.6877169,51.19556 90.6471147,49.2943834 C89.6065125,47.3932068 89.551744,50.891969 89.551744,50.891969 C89.551744,50.891969 89.5865967,46.6118331 87.4556027,46.1489812 C85.3246087,45.6861293 85.2100927,49.6328127 87.6248873,53.3804201 L90.492767,52.2805247 Z" id="Path" fill="#FFFFFF" fill-rule="nonzero"></path>
                            <path d="M94.6501968,77.2496429 C93.0868041,73.5866429 88.1775516,56.082878 88.1775516,56.082878 L92.8328772,54.4305464 C97.8666036,61.6072394 100.102156,70.8941388 100.102156,70.8941388" id="Path" stroke="#A3ADEC" stroke-width="0.587274457" stroke-linecap="round" stroke-linejoin="round"></path>
                            <path d="M69.7354915,47.7117285 L68.7397,46.1240967 L66.7132641,47.8560587 C66.7132641,47.8560587 62.0479805,51.1059758 60.3551349,52.4945315" id="Path" stroke="#A3ADEC" stroke-width="0.587274457" stroke-linecap="round" stroke-linejoin="round"></path>
                            <path d="M67.8136138,48.7917163 L66.7182431,47.8560587" id="Path" stroke="#A3ADEC" stroke-width="0.587274457" stroke-linecap="round" stroke-linejoin="round"></path>
                            <polyline id="Path" stroke="#A3ADEC" stroke-width="0.587274457" stroke-linecap="round" stroke-linejoin="round" points="88.3070045 56.281954 87.1319704 53.3455818 91.8370856 51.5837584 93.0121197 54.5201307 88.3070045 56.281954"></polyline>
                        </g>
                        <g id="Group-11" transform="translate(56.436138, 131.278907)" fill="#3F58EF" fill-rule="nonzero">
                            <path d="M17.7005451,71.679201 C12.3020848,71.6695474 7.45841196,68.3614986 5.48716142,63.3378758 L0.886604322,51.4779179 C-1.72195219,44.7437694 1.6206206,37.1703993 8.35504117,34.5564505 L95.2328775,0.887707342 C101.969876,-1.72274337 109.548455,1.61936716 112.161334,8.3530606 L116.761891,20.2130185 C119.358599,26.9468897 116.019682,34.5119762 109.293455,37.1344859 L22.4156183,70.808206 C20.9113906,71.387691 19.3126141,71.6830135 17.7005451,71.679201 L17.7005451,71.679201 Z M99.9379927,2.00253343 C98.5753424,2.00614695 97.2250414,2.26091105 95.9548264,2.75404566 L9.06205319,36.4078582 C3.34913947,38.6301999 0.513792229,45.0555209 2.72383979,50.7711978 L7.32439688,62.6261788 C9.55831571,68.3238415 15.9724293,71.1528867 21.6886904,68.9617753 L108.566527,35.2880552 L108.920033,36.2087821 L108.566527,35.2880552 C114.266543,33.0550587 117.096757,26.6435934 114.90474,20.9296924 L110.304183,9.06973452 C108.639984,4.79779647 104.524286,1.98399511 99.9379927,1.98262582 L99.9379927,2.00253343 Z" id="Shape"></path>
                            <path d="M16.5902375,61.5760525 L15.9977415,47.0385212 L18.2283147,46.1775171 L27.5937345,57.3108473 L25.7863728,58.0125905 L23.3765571,55.1060796 L18.1436724,57.0968405 L18.3428307,60.8593785 L16.5902375,61.5760525 Z M18.0839249,55.3748323 L22.2612706,53.7573391 L17.7453558,48.3126082 L18.0839249,55.3748323 Z" id="Shape"></path>
                            <path d="M34.7285811,44.4704397 C35.3260561,46.0199152 35.3957615,47.2790715 34.9376974,48.2479084 C34.4796332,49.2167454 33.4340521,50.0196856 31.8009539,50.6567291 L29.7844759,51.4331258 L31.4723427,55.7829383 L29.7546022,56.4498432 L24.7756443,43.6144125 L28.5795681,42.1213419 C30.1827926,41.500888 31.4723427,41.3814424 32.4482184,41.7630049 C33.4240942,42.1445674 34.1842151,43.0470457 34.7285811,44.4704397 Z M32.9411353,45.2070212 C32.7254088,44.462852 32.2069279,43.8434599 31.5121743,43.4999438 C30.9047415,43.2544166 30.0632976,43.3423419 28.9878427,43.7637196 L27.0958387,44.4953242 L29.182022,49.8753554 L30.8350361,49.238312 C31.5186723,49.0106182 32.1548431,48.6597723 32.7121032,48.2031163 C33.0495183,47.8855229 33.2585775,47.4551805 33.2996202,46.9937291 C33.3211059,46.380402 33.2054404,45.7700084 32.9610511,45.2070212 L32.9411353,45.2070212 Z" id="Shape"></path>
                            <path d="M45.6972254,40.2201652 C46.2947003,41.7696408 46.3644057,43.028797 45.9063416,43.997634 C45.4482775,44.9681299 44.4126542,45.7694111 42.7646192,46.4014777 L40.773036,47.1828514 L42.4609027,51.5326639 L40.7431623,52.1995688 L35.7642044,39.364138 L39.5681282,37.8710674 C41.1713527,37.2539315 42.4592431,37.1361448 43.4317995,37.5177073 C44.404356,37.8992698 45.1594979,38.8000891 45.6972254,40.2201652 Z M43.9097795,40.9567467 C43.694053,40.2125775 43.1755721,39.5931854 42.4808186,39.2496693 C41.8733857,39.0041421 41.0319418,39.0920674 39.9564869,39.5134451 L38.0644829,40.2450497 L40.1506663,45.625081 L41.7987013,44.9880375 C42.4842738,44.7613127 43.1222484,44.4104028 43.6807474,43.9528419 C44.0181625,43.6352485 44.2272217,43.204906 44.2682645,42.7434546 C44.2825728,42.1292097 44.1619013,41.5193054 43.9147585,40.9567467 L43.9097795,40.9567467 Z" id="Shape"></path>
                            <path d="M58.9213376,45.1522753 L53.6137684,41.1707535 L51.3782163,42.0367345 L53.4096312,47.2774125 L51.6918907,47.9443174 L46.7129328,35.1088867 L50.6960991,33.5610701 C52.2943446,32.9439342 53.5540209,32.7896503 54.4701492,33.108172 C55.3862774,33.4266938 56.0932895,34.2030905 56.5712694,35.4323853 C56.9586882,36.291402 57.0733767,37.2484819 56.8998806,38.1746584 C56.6545827,39.0308631 56.084741,39.7576024 55.3115931,40.2002576 L60.9278576,44.3609478 L58.9213376,45.1522753 Z M54.8684658,36.2585511 C54.5398546,35.4075008 54.0967274,34.9098106 53.544063,34.7654804 C52.7752392,34.6374058 51.9856025,34.7504128 51.2836161,35.0889791 L49.0281482,35.9649139 L50.8006572,40.5287332 L52.9416091,39.6975905 C53.5247273,39.4971015 54.0687999,39.1973958 54.5498125,38.8117019 C54.8785056,38.5466315 55.0924666,38.1652251 55.1472875,37.7466448 C55.1722769,37.2356278 55.0767687,36.7258927 54.8684658,36.2585511 Z" id="Shape"></path>
                            <path d="M70.5422253,33.2574791 C71.4384377,35.5800334 71.6608312,37.4397359 71.2094056,38.8365864 C70.7579801,40.233437 69.6592901,41.2785864 67.9133355,41.9720348 C66.1441458,42.6588473 64.618925,42.620691 63.3376732,41.857566 C62.0564214,41.094441 60.9759875,39.5781448 60.0963716,37.3086775 C59.220075,35.0591177 58.9927026,33.2176639 59.4142544,31.784316 C59.8358062,30.3509682 60.9394752,29.2875701 62.7252614,28.5941217 C64.4878125,27.9106272 66.0097139,27.9438065 67.2909658,28.6936598 C68.5722176,29.443513 69.6559708,30.9647861 70.5422253,33.2574791 Z M68.7448215,33.9542454 C68.054406,32.1824682 67.2810079,30.9813758 66.4246271,30.3509682 C65.5632674,29.7238785 64.5276441,29.649225 63.3127784,30.1170538 C62.0979127,30.5848826 61.3909007,31.3413717 61.1817844,32.3865212 C60.9726682,33.4316707 61.1817844,34.8351571 61.8937754,36.6119111 C62.6057664,38.3886652 63.3874628,39.5980525 64.2289067,40.2201652 C65.0703506,40.842278 66.1209107,40.9119546 67.3208395,40.4491027 C68.5207684,39.9862508 69.2277804,39.2397155 69.4518335,38.2045198 C69.6758866,37.1693242 69.4418756,35.755884 68.7448215,33.9542454 L68.7448215,33.9542454 Z" id="Shape"></path>
                            <polygon id="Path" points="80.5598886 36.7612182 78.2546311 37.6520837 69.2526752 26.3744234 71.0401211 25.682634 78.8122743 35.5369003 77.9160619 23.0150144 79.6686551 22.3381557"></polygon>
                            <polygon id="Path" points="86.8134597 34.3374669 81.8345018 21.5020361 89.6813394 18.456172 90.2837933 20.0039886 84.1497172 22.3829478 85.6035729 26.1305552 90.8464156 24.0999791 91.4488695 25.6577495 86.2060268 27.6883255 87.9237673 32.1127916 94.0578434 29.7338323 94.6602973 31.2916027"></polygon>
                            <path d="M104.224875,20.2030647 C104.772347,21.4597284 105.060244,22.8139811 105.071298,24.1845864 C105.051051,25.2053264 104.666035,26.185125 103.985885,26.9467671 C103.045485,27.8620023 101.910173,28.5527763 100.664921,28.9673894 L97.3987242,30.2315226 L92.4197663,17.3960919 L95.6511099,16.1468894 C96.8440206,15.6189747 98.1413126,15.368813 99.4450759,15.4152848 C100.476037,15.5094259 101.438939,15.9703681 102.158608,16.7142563 C103.077695,17.7245265 103.780804,18.9116959 104.224875,20.2030647 Z M102.407556,20.8849003 C102.068907,19.8941798 101.552634,18.9733687 100.883995,18.1675117 C100.39257,17.6017668 99.7030802,17.2455886 98.957138,17.1721313 C97.995132,17.1424134 97.0387715,17.3295241 96.1589637,17.7195905 L94.7300027,18.2720266 L98.5040528,28.0018704 L99.9330137,27.4494342 C100.845811,27.1425648 101.676723,26.6319688 102.362745,25.9563636 C102.858132,25.4006444 103.128032,24.6800245 103.119547,23.9357413 C103.071529,22.883736 102.830177,21.8495545 102.407556,20.8849003 L102.407556,20.8849003 Z" id="Shape"></path>
                        </g>
                    </g>
                    <g id="Group-37" stroke-width="1" fill="none" transform="translate(269.858696, 26.543478)">
                        <g id="Group-2" transform="translate(25.437500, 245.527174)">
                            <g id="Group-5" transform="translate(31.520380, 5.371894)">
                                <g id="Group-279" transform="translate(0.352837, 0.000000)">
                                    <mask id="mask-5" fill="white">
                                        <use xlink:href="#path-4"></use>
                                    </mask>
                                    <g id="Clip-278"></g>
                                    <polygon id="Fill-277" fill="#FFFFFF" mask="url(#mask-5)" points="14.1428138 14.9452313 -5.25407968 14.9452313 -5.25407968 -5.69088266 14.1428138 -5.69088266"></polygon>
                                </g>
                            </g>
                            <g id="Group-147">
                                <mask id="mask-7" fill="white">
                                    <use xlink:href="#path-6"></use>
                                </mask>
                                <g id="Clip-146"></g>
                                <polygon id="Fill-145" fill="#FFFFFF" mask="url(#mask-7)" points="-4.05180979 -4.3639313 13.0169795 -4.3639313 13.0169795 14.0709007 -4.05180979 14.0709007"></polygon>
                            </g>
                            <path d="M17.0735394,18.8016304 C17.7988818,18.8016304 18.3868886,18.2003608 18.3868886,17.4586568 C18.3868886,16.7169529 17.7988818,16.1156832 17.0735394,16.1156832 C16.3481964,16.1156832 15.7601902,16.7169529 15.7601902,17.4586568 C15.7601902,18.2003608 16.3481964,18.8016304 17.0735394,18.8016304 Z" id="Stroke-148" stroke="#FFFFFF" stroke-width="1.5926087"></path>
                        </g>
                        <g id="Group-2-Copy-3" transform="translate(54.192935, 0.000000)">
                            <g id="Group-147">
                                <mask id="mask-9" fill="white">
                                    <use xlink:href="#path-8"></use>
                                </mask>
                                <g id="Clip-146"></g>
                                <polygon id="Fill-145" fill="#FFFFFF" mask="url(#mask-9)" points="-4.69156923 -5.39073867 15.0722921 -5.39073867 15.0722921 17.3817009 -4.69156923 17.3817009"></polygon>
                            </g>
                            <g id="Group-147-Copy" transform="translate(15.483696, 17.695652)">
                                <mask id="mask-11" fill="white">
                                    <use xlink:href="#path-10"></use>
                                </mask>
                                <g id="Clip-146"></g>
                                <polygon id="Fill-145" fill="#FFFFFF" mask="url(#mask-11)" points="-2.98554405 -3.14459756 9.59145859 -3.14459756 9.59145859 10.1393255 -2.98554405 10.1393255"></polygon>
                            </g>
                        </g>
                        <g id="Group-3" transform="translate(25.437500, 13.271739)">
                            <g id="Group-11" transform="translate(0.000000, -0.000000)">
                                <g id="Group-9" transform="translate(0.000000, 0.614134)">
                                    <g id="Group-23" transform="translate(0.000000, 0.000000)">
                                        <mask id="mask-13" fill="white">
                                            <use xlink:href="#path-12"></use>
                                        </mask>
                                        <g id="Clip-22"></g>
                                        <polygon id="Fill-21" fill="#000000" mask="url(#mask-13)" points="-2.62102372 -2.5521585 30.7122907 -2.5521585 30.7122907 36.5445613 -2.62102372 36.5445613"></polygon>
                                    </g>
                                    <path d="M38.583427,20.4885567 C38.583427,20.3721045 38.4704251,20.3721045 38.4704251,20.2556524 C38.3574292,19.906302 38.1314314,19.5569516 37.9054336,19.0911552 C37.2274342,17.9266519 36.2104411,16.6456983 34.9674501,15.3647459 C33.7244592,14.0837935 32.4814683,13.152192 31.3514792,12.3370403 C30.8994836,12.1041399 30.5604839,11.8712394 30.2214842,11.7547892 C30.1084883,11.7547892 29.9954864,11.638339 29.9954864,11.638339 L12.4806114,11.638339 C11.8026165,11.638339 11.2376205,12.2205901 11.2376205,12.9192914 L11.2376205,43.3128018 C11.2376205,44.0115026 11.8026165,44.5937512 12.4806114,44.5937512 L37.3404361,44.5937512 C38.0184295,44.5937512 38.583427,44.0115026 38.583427,43.3128018 L38.583427,20.4885567 Z" id="Stroke-34" stroke="#000000" stroke-width="1.15585169"></path>
                                    <g id="Group-38" transform="translate(29.338701, 10.440286)">
                                        <mask id="mask-15" fill="white">
                                            <use xlink:href="#path-14"></use>
                                        </mask>
                                        <g id="Clip-37"></g>
                                        <polygon id="Fill-36" fill="#000000" mask="url(#mask-15)" points="-2.78897281 -2.57131949 12.8034688 -2.57131949 12.8034688 13.4682754 -2.78897281 13.4682754"></polygon>
                                    </g>
                                </g>
                                <path d="M27.7185278,9.98286589 C27.7185278,9.86641372 27.6055259,9.86641372 27.6055259,9.74996155 C27.49253,9.40061117 27.2665322,9.05126079 27.0405344,8.58546439 C26.362535,7.42096108 25.3455418,6.14000745 24.1025509,4.85905504 C22.85956,3.57810263 21.616569,2.64650122 20.48658,1.83134952 C20.0345844,1.59844904 19.6955847,1.36554857 19.356585,1.24909836 C19.2435891,1.24909836 19.1305872,1.13264815 19.1305872,1.13264815 L1.61571218,1.13264815 C0.937717263,1.13264815 0.372721248,1.71489925 0.372721248,2.41360056 L0.372721248,32.807111 C0.372721248,33.5058118 0.937717263,34.0880603 1.61571218,34.0880603 L26.4755369,34.0880603 C27.1535303,34.0880603 27.7185278,33.5058118 27.7185278,32.807111 L27.7185278,9.98286589 Z" id="Stroke-24" stroke="#000000" stroke-width="1.15585169"></path>
                                <g id="Group-28" transform="translate(18.561219, 0.000000)">
                                    <mask id="mask-17" fill="white">
                                        <use xlink:href="#path-16"></use>
                                    </mask>
                                    <g id="Clip-27"></g>
                                    <polygon id="Fill-26" fill="#000000" mask="url(#mask-17)" points="-2.87633029 -2.63672481 12.7160515 -2.63672481 12.7160515 13.4028701 -2.87633029 13.4028701"></polygon>
                                </g>
                                <g id="Group-33" transform="translate(10.777482, 11.668554)">
                                    <mask id="mask-19" fill="white">
                                        <use xlink:href="#path-18"></use>
                                    </mask>
                                    <use id="Clip-32" stroke="#000000" stroke-width="2.54817391" xlink:href="#path-18"></use>
                                    <polygon id="Fill-31" fill="#FFFFFF" mask="url(#mask-19)" points="-2.53360636 -2.48675318 30.7997081 -2.48675318 30.7997081 36.6099666 -2.53360636 36.6099666"></polygon>
                                </g>
                            </g>
                            <g id="Group-7" transform="translate(18.618269, 20.503902)">
                                <path d="M6.20608957,1.99343491 C4.88780933,1.99343491 3.81913204,3.10904892 3.81913204,4.48522854 L3.81913204,7.4753809 C3.81913204,8.85156052 4.88780933,9.96717453 6.20608957,9.96717453 C7.52436981,9.96717453 8.59304709,8.85156052 8.59304709,7.4753809 L8.59304709,4.48522854 C8.59304709,3.10904892 7.52436981,1.99343491 6.20608957,1.99343491 Z M6.20608957,0 C8.578994,0 10.5026131,2.00810522 10.5026131,4.48522854 L10.5026131,7.4753809 C10.5026131,9.95250422 8.578994,11.9606094 6.20608957,11.9606094 C3.83318513,11.9606094 1.90956602,9.95250422 1.90956602,7.4753809 L1.90956602,4.48522854 C1.90956602,2.00810522 3.83318513,0 6.20608957,0 Z" id="Rectangle" fill="#586AF2" fill-rule="nonzero"></path>
                                <path d="M2.03853913,5.98030472 L10.37364,5.98030472 C11.4994941,5.98030472 12.4121791,6.89298978 12.4121791,8.01884385 L12.4121791,12.8445663 C12.4121791,15.6592015 10.1304665,17.9409142 7.31583131,17.9409142 L5.09634783,17.9409142 C2.28171264,17.9409142 1.23287182e-15,15.6592015 0,12.8445663 L0,8.01884385 C-1.37877359e-16,6.89298978 0.912685057,5.98030472 2.03853913,5.98030472 Z" id="Rectangle" fill="#A3ADEC"></path>
                                <path d="M6.20608957,8.97045708 C6.99705771,8.97045708 7.63826408,9.63982549 7.63826408,10.4655333 C7.63826408,11.1163853 7.23987302,11.6701013 6.68377212,11.8754293 L6.68348107,13.9540443 L5.72869806,13.9540443 L5.72741118,11.8750612 C5.17183056,11.6694401 4.77391505,11.1159967 4.77391505,10.4655333 C4.77391505,9.63982549 5.41512142,8.97045708 6.20608957,8.97045708 Z" id="Combined-Shape" fill="#000000"></path>
                            </g>
                        </g>
                        <g id="Group-21" transform="translate(0.000000, 103.961957)">
                            <path d="M1.65896739,21.013587 C2.57518935,21.013587 3.31793478,20.2708421 3.31793478,19.3546196 C3.31793478,18.438397 2.57518935,17.6956522 1.65896739,17.6956522 C0.742744698,17.6956522 0,18.438397 0,19.3546196 C0,20.2708421 0.742744698,21.013587 1.65896739,21.013587 Z" id="Stroke-148-Copy" stroke="#FFFFFF" stroke-width="1.65896739"></path>
                            <g id="Group-144" transform="translate(7.741848, 34.285326)">
                                <mask id="mask-21" fill="white">
                                    <use xlink:href="#path-20"></use>
                                </mask>
                                <g id="Clip-143"></g>
                                <polygon id="Fill-142" fill="#FFFFFF" mask="url(#mask-21)" points="-3.5373704 -3.73308661 9.67417096 -3.73308661 9.67417096 10.3220695 -3.5373704 10.3220695"></polygon>
                            </g>
                            <g id="Group-4" transform="translate(11.220652, 0.170151)">
                                <path d="M29.3433262,-7.10542736e-15 C30.0070523,-7.00530727e-15 30.5451087,0.538056362 30.5451087,1.20178252 L30.5451087,5.28254606 L30.5451087,5.28254606 L30.5451087,23.7123528 C30.5451087,24.3760789 30.0070523,24.9141353 29.3433262,24.9141353 L2.79891239,24.9141353 C2.13518623,24.9141353 1.59712987,24.3760789 1.59712987,23.7123528 L1.59712987,5.28254606 C1.59712987,4.6188199 2.13518623,4.08076354 2.79891239,4.08076354 L19.2721299,4.08 L20.1321786,0.889053114 C20.2735529,0.364484838 20.7492735,-6.78358292e-15 21.2925585,-7.10542736e-15 L29.3433262,-7.10542736e-15 Z" id="Combined-Shape-Copy" fill="#1D1D1D" transform="translate(16.071119, 12.457068) scale(-1, 1) translate(-16.071119, -12.457068) "></path>
                                <rect id="Rectangle" fill="#FFFFFF" x="2.59533603" y="5.15464868" width="27.5504902" height="16.7526082"></rect>
                                <path d="M29.3433262,2.57732434 C30.0070523,2.57732434 30.5451087,3.1153807 30.5451087,3.77910686 L30.5451087,7.8598704 L30.5451087,7.8598704 L30.5451087,26.2896771 C30.5451087,26.9534033 30.0070523,27.4914596 29.3433262,27.4914596 L1.20178252,27.4914596 C0.538056362,27.4914596 -5.84850803e-16,26.9534033 0,26.2896771 L0,7.8598704 C-8.12830117e-17,7.19614424 0.538056362,6.65808788 1.20178252,6.65808788 L18.599,6.65732434 L19.5155136,3.44907995 C19.6628777,2.933089 20.1344712,2.57732434 20.6710929,2.57732434 L29.3433262,2.57732434 Z" id="Combined-Shape" fill="#A3ADEC"></path>
                                <g id="Group-12" transform="translate(23.647826, 22.204640)">
                                    <g id="Group-13">
                                        <ellipse id="Oval" fill="#000000" cx="6.89728261" cy="7.40154682" rx="6.89728261" ry="7.40154682"></ellipse>
                                        <path d="M7.2550975,7.34379423 L10.1079715,10.2573506 C10.2612705,10.4139103 10.2672739,10.6741862 10.1213805,10.838693 C9.97548713,11.0031997 9.73294376,11.0096421 9.57964476,10.8530823 L6.60775175,7.81797538 C6.53175173,7.7403588 6.48873277,7.63269629 6.48873277,7.52010951 L6.48873277,2.46718227 C6.48873277,2.24008442 6.66028936,2.05598523 6.87191513,2.05598523 C7.08354091,2.05598523 7.2550975,2.24008442 7.2550975,2.46718227 L7.2550975,7.34379423 Z" id="Path-6" fill="#FFFFFF" fill-rule="nonzero"></path>
                                    </g>
                                </g>
                            </g>
                        </g>
                    </g>
                </g>
            </g>
        </g>
    </g>
</svg>