<?xml version="1.0" encoding="UTF-8"?>
<svg width="768px" height="226px" viewBox="0 0 768 226" version="1.1" xmlns="http://www.w3.org/2000/svg" xmlns:xlink="http://www.w3.org/1999/xlink">
    <!-- Generator: Sketch 58 (84663) - https://sketch.com -->
    <title>img/upgrade&lt;768</title>
    <desc>Created with Sketch.</desc>
    <defs>
        <rect id="path-1" x="0" y="0" width="768" height="225.6"></rect>
        <linearGradient x1="108.989448%" y1="33.46875%" x2="31.8548524%" y2="63.791836%" id="linearGradient-3">
            <stop stop-color="#00CAFC" offset="0%"></stop>
            <stop stop-color="#586AF2" offset="100%"></stop>
        </linearGradient>
        <path d="M8.48629359,0.19467868 C8.74327978,0.465800186 8.22930739,1.27900615 7.45834881,2.09221212 C6.68739022,2.90541808 5.91643164,3.44750254 5.65944544,3.17638104 C5.40245925,2.90541808 5.91643164,2.09221212 6.68739022,1.27900615 C7.45834881,0.465800186 8.22930739,-0.0764428251 8.48629359,0.19467868 Z M2.06163871,1.27900615 C2.83259729,2.09221212 3.34656968,2.90541808 3.08958349,3.17638104 C2.83259729,3.44750254 2.06163871,2.90541808 1.29068012,2.09221212 C0.519721537,1.27900615 0.00574914602,0.465800186 0.262735341,0.19467868 C0.262735341,-0.0764428251 1.03369393,0.465800186 2.06163871,1.27900615 Z M6.68739022,7.78465388 C5.91643164,6.97144791 5.40245925,6.15824195 5.65944544,5.88712044 C5.91643164,5.61599893 6.68739022,6.15824195 7.45834881,6.97144791 C8.22930739,7.78465388 8.74327978,8.59785984 8.48629359,8.8688228 C8.22930739,9.1399443 7.45834881,8.59785984 6.68739022,7.78465388 Z M3.08958349,5.88712044 C3.08958349,6.15824195 2.83259729,6.97144791 2.06163871,7.78465388 C1.29068012,8.59785984 0.519721537,9.1399443 0.262735341,8.8688228 C0.00574914602,8.59785984 0.519721537,7.78465388 1.29068012,6.97144791 C2.06163871,6.15824195 2.83259729,5.61599893 3.08958349,5.88712044 Z" id="path-4"></path>
        <polygon id="path-6" points="0.308985142 5.59190336 4.04451758 4.53979414 5.42067865 0.331468225 6.60036433 4.53979414 10.5324763 5.80230301 6.60036433 6.85441223 5.42067865 11.2731378 4.24109714 6.85441223"></polygon>
    </defs>
    <g id="img/upgrade&lt;768" stroke="none" stroke-width="1" fill="none" fill-rule="evenodd">
        <g>
            <mask id="mask-2" fill="white">
                <use xlink:href="#path-1"></use>
            </mask>
            <use id="Mask" fill="#D8D8D8" xlink:href="#path-1"></use>
            <rect id="Rectangle" fill="url(#linearGradient-3)" mask="url(#mask-2)" x="0" y="-216" width="768" height="441.6"></rect>
            <g id="Group-9" mask="url(#mask-2)" fill-rule="nonzero">
                <g transform="translate(-84.000000, -360.000000)">
                    <rect id="Rectangle" fill="#000000" x="37.6553832" y="5.68434189e-14" width="368.172704" height="514.047111"></rect>
                    <rect id="Rectangle" fill="#3F58EF" x="19.3331063" y="15.4131335" width="368.172704" height="514.047111"></rect>
                    <polygon id="Path" fill="#A3ADEC" points="-5.68434189e-13 29.2340012 -5.68434189e-13 543.281112 368.172704 543.281112 368.172704 99.7474949 327.476873 29.2340012"></polygon>
                    <rect id="Rectangle" fill="#FFFFFF" x="68.4100653" y="390.654468" width="231.352573" height="7.41199758"></rect>
                    <rect id="Rectangle" fill="#FFFFFF" x="173.385092" y="506.507732" width="118.338668" height="2.01421631"></rect>
                    <polygon id="Path" fill="#FFFFFF" points="175.908185 501.412481 187.282005 490.035741 198.647866 501.412481 201.17096 498.88874 189.805099 487.519961 201.17096 476.143222 198.647866 473.61948 187.282005 484.99622 175.908185 473.61948 173.393051 476.143222 184.758912 487.519961 173.393051 498.88874"></polygon>
                    <path d="M302.723493,487.400541 L301.991239,490.306427 C301.553478,492.06588 304.275554,492.822207 304.713315,491.054792 C304.952093,490.091471 305.198831,489.120189 305.43761,488.148906 C305.88333,486.389453 303.161254,485.641088 302.723493,487.400541 Z" id="Path" fill="#000000"></path>
                    <path d="M292.806222,482.671512 C289.503119,486.309839 286.024911,490.290504 281.320972,492.105687 C278.931262,493.09029 276.295244,493.310015 273.775569,492.734632 C271.706155,492.1853 270.154094,490.632841 268.140394,489.980012 C264.789535,488.897271 260.913362,490.306427 257.642096,491.022946 L243.554159,494.111942 C244.230698,488.968923 244.43764,482.870545 242.145365,478.34851 L242.002098,478.10967 C245.671329,470.618059 245.854393,461.454569 243.291503,453.429549 C241.834953,448.867708 239.120837,444.21033 233.995056,443.366429 C228.869276,442.522528 223.942478,445.802596 221.260198,450.006178 C217.280555,456.335434 216.397074,464.81425 215.266856,472.035176 C213.850103,481.023517 212.974581,490.075548 212.083141,499.103695 C211.908037,500.910917 214.733584,500.894995 214.900729,499.103695 C216.062784,487.002475 217.22484,474.861448 219.747934,462.95926 C220.90203,457.537595 222.231231,451.017266 227.197826,447.721276 C233.835871,443.366429 238.842262,448.517409 240.728612,454.814821 C242.76619,461.669525 242.702515,469.344247 239.932684,475.808846 C237.322038,474.136967 233.740359,475.076404 230.922772,477.106543 C228.105185,479.136682 223.600228,484.63796 225.176167,488.610663 C226.895373,492.909781 232.912593,488.475321 234.942211,486.875094 C236.991678,485.266256 238.772843,483.342212 240.219218,481.174782 C241.75536,485.481861 240.943513,492.814245 240.505752,495.505175 C240.385012,495.992714 240.528269,496.507898 240.88334,496.86306 C241.238411,497.218222 241.753462,497.361516 242.240877,497.240744 L259.15436,493.530765 C262.513179,492.798323 265.521789,491.771311 268.785097,493.395422 C270.663488,494.318937 272.072282,495.29818 274.181493,495.65644 C282.817318,497.121324 289.519037,490.441769 294.796044,484.629999 C296.013815,483.324341 294.031952,481.326047 292.806222,482.671512 Z M233.111576,484.75738 C232.39524,485.314673 231.368492,486.349646 230.445215,486.532756 C229.479488,487.43504 228.683559,487.169663 228.057429,485.736624 C228.26437,485.171369 228.479271,484.606115 228.694172,484.04086 C229.813604,481.583326 231.760079,479.596904 234.194038,478.428123 C236.096308,477.63199 237.497142,477.823062 238.52389,478.611234 C237.111462,480.981554 235.267595,483.066225 233.087698,484.75738 L233.111576,484.75738 Z" id="Shape" fill="#000000"></path>
                </g>
            </g>
            <g id="Group-6" mask="url(#mask-2)">
                <g transform="translate(177.096095, 26.764309)">
                    <path d="M146.20446,69.7462744 C146.20446,69.7462744 159.886473,72.6282756 153.78966,89.2913379 C147.692847,105.9544 128.709949,124.63964 128.709949,124.63964 L105.27781,128.158548 C105.27781,128.158548 106.591093,91.9981898 114.606094,79.3317149 C122.621095,66.66524 127.197685,67.4852569 127.197685,67.4852569 L146.20446,69.7462744 Z" id="Path" stroke="none" fill="#3F58EF" fill-rule="nonzero"></path>
                    <path d="M136.462294,47.7491216 C136.462294,47.7491216 125.494398,58.2978829 130.277929,63.2975977 C135.06146,68.2973125 144.445458,59.7707288 147.565498,55.519379 C151.966984,49.5324593 143.824634,41.4039421 136.462294,47.7491216 Z" id="Path" stroke="none" fill="#FFFFFF" fill-rule="nonzero"></path>
                    <path d="M140.441937,60.8057016 C140.441937,60.8057016 140.219077,66.0761016 144.676277,69.0297548 C144.676277,69.0297548 140.696634,75.1599784 135.745958,74.2762708 C130.795282,73.3925633 130.174458,69.9930756 130.421196,68.0903179 C130.421196,68.0903179 133.676544,64.9057862 132.968167,62.5890394 L140.441937,60.8057016 Z" id="Path" stroke="none" fill="#FFFFFF" fill-rule="nonzero"></path>
                    <path d="M143.888308,53.9509971 C143.888308,53.9509971 136.104126,48.123304 137.441286,43.8003022 C138.778446,39.4773004 146.76161,42.4866829 149.157356,48.9353596 C151.553101,55.3840364 148.409183,55.6786056 148.409183,55.6786056 C148.409183,55.6786056 148.926536,58.3058442 145.43241,60.5111324 C143.580973,61.7573854 141.500482,62.6233518 139.311718,63.0587578 C139.311718,63.0587578 139.144573,55.9731747 143.888308,53.9509971 Z" id="Path" stroke="none" fill="#000000" fill-rule="nonzero"></path>
                    <path d="M142.145224,66.5139747 L132.235913,72.7795409 L132.418977,78.0499409 C132.418977,78.0499409 142.511352,74.0692763 146.20446,69.7462744 L142.145224,66.5139747 Z" id="Path" stroke="none" fill="#DEE4FC" fill-rule="nonzero"></path>
                    <polygon id="Path" stroke="none" fill="#DEE4FC" fill-rule="nonzero" points="131.04202 67.413605 132.251832 73.19353 127.707079 75.3988182 127.197685 67.4852569"></polygon>
                    <path d="M143.243606,72.2063252 C148.695717,69.4596666 152.34107,73.4801379 154.521914,77.0308908 C158.859725,84.1005512 165.776345,97.3163578 165.784305,109.672341 C165.784305,127.704752 157.188275,122.760766 154.044357,120.181296 C152.882302,119.225936 150.295533,113.812232 147.676928,107.642202 C144.628522,100.477006 141.5244,92.1414938 140.513571,88.2245198 C138.595383,81.1150527 139.860909,73.870243 143.243606,72.2063252 Z" id="Path" stroke="none" fill="#3F58EF" fill-rule="nonzero"></path>
                    <path d="M137.998436,160.81592 C137.998436,160.81592 137.0672,132.155135 128.709949,124.63964 L121.069034,125.786071 L121.069034,125.786071 L113.547509,126.821044 L105.27781,128.158548 C105.27781,128.158548 82.7211933,144.694229 80.0468731,148.515667 C77.3725529,152.337105 89.7890394,187.860556 89.7890394,187.860556 L95.9813641,187.860556 C95.9813641,187.860556 94.1825654,163.888993 91.890291,158.109068 C91.890291,158.109068 107.012935,151.740005 114.351397,144.996759 C119.310032,153.945293 124.889492,163.530734 127.165848,165.696215 C131.670804,169.971449 151.712286,185.599538 151.712286,185.599538 L158.501558,184.405339 C158.501558,184.405339 148.194282,166.747111 137.998436,160.81592 Z" id="Path" stroke="#A3ADEC" stroke-width="1.44" fill="#000000" fill-rule="nonzero" stroke-linecap="round" stroke-linejoin="round"></path>
                    <path d="M144.930975,71.0121258 C144.930975,71.0121258 137.568635,77.9464436 132.418977,78.0499409 L132.251832,73.19353" id="Path" stroke="#1B145C" stroke-width="1.44" fill="none" stroke-linecap="round" stroke-linejoin="round"></path>
                    <path d="M127.197685,67.4852569 L127.707079,75.3988182 L132.251832,73.19353 C132.251832,73.19353 114.820995,115.515957 115.887539,126.478707" id="Path" stroke="#A3ADEC" stroke-width="1.44" fill="none" stroke-linecap="round" stroke-linejoin="round"></path>
                    <polygon id="Path" stroke="none" fill="#F9F9F9" fill-rule="nonzero" points="157.013171 184.668063 159.679532 191.35558 157.307665 192.080061 155.373558 191.530729 153.264347 185.328853"></polygon>
                    <polygon id="Path" stroke="none" fill="#F9F9F9" fill-rule="nonzero" points="94.4850183 187.860556 94.4850183 192.581624 90.4496602 192.581624 89.7890394 187.860556"></polygon>
                    <polygon id="Path" stroke="none" fill="#000000" fill-rule="nonzero" points="126.568901 79.116759 114.287723 108.207456 116.158155 112.777259 120.161676 110.611778 129.601389 81.728075"></polygon>
                    <polygon id="Path" stroke="none" fill="#1B145C" fill-rule="nonzero" points="132.418977 78.0499409 128.248311 75.1360944 126.568901 79.116759 129.601389 81.728075"></polygon>
                    <polygon id="Path" stroke="none" fill="#1B145C" fill-rule="nonzero" points="132.418977 78.0499409 128.248311 75.1360944 132.235913 72.7795409"></polygon>
                    <path d="M155.230291,191.06101 C155.230291,191.06101 156.559492,192.390552 159.783003,191.06101 C160.244375,193.119907 160.510861,195.217692 160.578931,197.326577 L157.068886,197.326577 L156.973375,195.734311 C156.973375,195.734311 153.272307,197.254925 151.569019,197.326577 C149.865732,197.398229 142.264614,197.326577 142.264614,197.326577 C142.264614,197.326577 141.930324,196.323449 143.784837,195.527316 C146.777529,194.221658 155.230291,191.06101 155.230291,191.06101 Z" id="Path" stroke="none" fill="#000000" fill-rule="nonzero"></path>
                    <path d="M90.2268002,191.841221 C90.2268002,191.841221 91.556001,193.170763 94.7874712,191.841221 C95.2488438,193.900117 95.51533,195.997902 95.5833998,198.106787 L92.0733546,198.106787 L91.9778432,196.514521 C91.9778432,196.514521 88.2767751,198.035135 86.5655285,198.106787 C84.854282,198.178439 77.2690822,198.106787 77.2690822,198.106787 C77.2690822,198.106787 76.9347922,197.103659 78.7813466,196.307526 C81.7819975,194.993907 90.2268002,191.841221 90.2268002,191.841221 Z" id="Path" stroke="none" fill="#000000" fill-rule="nonzero"></path>
                    <path d="M124.045807,68.575959 C124.045807,68.575959 84.6075441,94.8483457 83.7559005,105.038847 C82.9042568,115.229349 89.3274008,116.128979 91.1421181,115.961791 C94.3258326,115.675183 100.995714,109.72807 100.995714,109.72807 L111.478094,98.5822092 L124.045807,68.575959 Z" id="Path" stroke="none" fill="#3F58EF" fill-rule="nonzero"></path>
                    <polygon id="Path" stroke="none" fill="#3F58EF" fill-rule="nonzero" points="106.654767 76.553211 109.679296 79.2202563 111.478094 76.3223324 109.894196 73.7826684"></polygon>
                    <path d="M106.654767,76.553211 C106.654767,76.553211 76.9268329,95.2464122 84.4165212,111.423833 L95.559522,109.162816 C95.559522,109.162816 104.871887,97.8577282 110.602573,78.0499409 L106.654767,76.553211 Z" id="Path" stroke="none" fill="#3F58EF" fill-rule="nonzero"></path>
                    <path d="M202.660466,-22.9636574 L208.360489,-22.9636574 C214.32318,-22.9580937 219.158759,-18.1303845 219.172529,-12.1686317 L219.184382,103.843844 L191.854524,103.841052 L191.842671,-12.1714235 C191.855231,-18.1362793 196.694668,-22.9636574 202.660466,-22.9636574 L202.660466,-22.9636574 Z" id="Path" stroke="none" fill="#000000" fill-rule="nonzero" transform="translate(205.513527, 40.440093) rotate(63.620000) translate(-205.513527, -40.440093) "></path>
                    <polygon id="Path" stroke="none" fill="#000000" fill-rule="nonzero" points="36.9314195 132.489511 30.245619 119.01098 144.143005 59.3169331 153.359859 77.906637"></polygon>
                    <path d="M36.223043,131.120162 L30.9301177,120.436058 L9.16146978,128.190393 C9.01863865,128.243253 8.88651898,128.321466 8.77146475,128.421271 C8.69745072,128.464347 8.63471111,128.524374 8.58840117,128.596421 L0.509725628,141.183282 C0.365799118,141.102503 0.18473899,141.135966 0.0791738527,141.262856 C-0.0263912842,141.389746 -0.0263912842,141.573918 0.0791738527,141.700808 C0.18473899,141.827698 0.365799118,141.861161 0.509725628,141.780382 L0.509725628,141.780382 L0.509725628,141.780382 L17.5028018,133.349334 C17.171983,132.268332 17.7281832,131.114681 18.7798409,130.700543 C19.8314987,130.286405 21.0246904,130.751154 21.5194169,131.76761 C22.0141433,132.784066 21.6439099,134.010151 20.6693584,134.58271 C19.694807,135.15527 18.443912,134.881614 17.7972954,133.954395 L0.804219219,142.393404 L0.804219219,142.393404 C0.630585419,142.479144 0.559315542,142.689444 0.645033494,142.863123 C0.730751446,143.036801 0.940997583,143.108089 1.11463138,143.022349 C1.2220531,142.964598 1.29367522,142.857137 1.30565425,142.735742 L16.1019674,143.890194 L16.2213567,143.890194 C16.4530249,143.892483 16.6801752,143.825983 16.8740181,143.699062 L36.223043,131.120162 Z" id="Path" stroke="none" fill="#C9D4F6" fill-rule="nonzero"></path>
                    <path d="M144.143005,59.3169331 L153.359859,77.906637" id="Path" stroke="#A3ADEC" stroke-width="1.44" fill="none" stroke-linecap="round" stroke-linejoin="round"></path>
                    <polygon id="Path" stroke="none" fill="#F9F9F9" fill-rule="nonzero" points="152.054536 51.7218249 165.020213 75.7889234 171.331927 72.660121 158.087675 48.7283651"></polygon>
                    <polygon id="Path" stroke="none" fill="#F9F9F9" fill-rule="nonzero" points="148.592246 53.4335107 161.557924 77.5085705 163.49203 76.553211 150.255737 52.6134938"></polygon>
                    <polygon id="Path" stroke="none" fill="#F9F9F9" fill-rule="nonzero" points="232.793535 11.6604158 245.767172 35.7354756 247.693319 34.7801161 234.457026 10.8403989"></polygon>
                    <path d="M218.690646,16.3179424 L219.756547,16.3179424 C220.853682,16.3181454 221.743117,17.2074898 221.743432,18.304625 L221.75025,85.0297375 C221.750565,86.126952 220.861187,87.016511 219.763973,87.0166231 C219.763905,87.0166231 219.763838,87.0166231 219.76377,87.0164201 L218.697869,87.0164201 C217.600734,87.0162171 216.711299,86.1268727 216.710983,85.0297375 L216.704166,18.304625 C216.703851,17.2074105 217.593228,16.3178515 218.690443,16.3177394 C218.690511,16.3177394 218.690578,16.3177394 218.690646,16.3179424 Z" id="Rectangle" stroke="none" fill="#F9F9F9" fill-rule="nonzero" transform="translate(219.227208, 51.667181) rotate(63.620000) translate(-219.227208, -51.667181) "></path>
                    <path d="M109.894196,73.7985911 C109.894196,73.7985911 112.998318,70.3513355 115.998969,70.3194902 C118.99962,70.2876448 121.992312,72.1426346 122.90763,74.1648122 C123.822947,76.1869898 120.997401,77.5802225 119.516974,76.9751614 C118.036546,76.3701004 111.478094,76.3382551 111.478094,76.3382551 L109.894196,73.7985911 Z" id="Path" stroke="none" fill="#FFFFFF" fill-rule="nonzero"></path>
                    <path d="M163.237333,121.232191 C163.237333,121.232191 156.24908,97.2924738 146.610384,84.530463 L140.163362,86.7118672 C140.163362,86.7118672 145.623432,108.40649 150.908399,122.537849 C152.770872,127.537564 159.281568,125.722381 162.847328,121.741716 L163.237333,121.232191 Z" id="Path" stroke="none" fill="#3F58EF" fill-rule="nonzero"></path>
                    <polygon id="Path" stroke="none" fill="#3F58EF" fill-rule="nonzero" points="140.935413 89.7132883 148.377345 87.070127 146.395483 82.4684787 139.391311 85.1275627"></polygon>
                    <path d="M144.660359,83.6308327 C144.660359,83.6308327 146.570588,81.895263 144.907097,78.8540352 C143.243606,75.8128074 143.156054,81.4096219 143.156054,81.4096219 C143.156054,81.4096219 143.211769,74.5628787 139.805194,73.822475 C136.39862,73.0820714 136.215556,79.3954056 140.07581,85.3902865 L144.660359,83.6308327 Z" id="Path" stroke="none" fill="#FFFFFF" fill-rule="nonzero"></path>
                    <path d="M151.306363,123.572822 C148.807147,117.713284 140.959291,89.7132883 140.959291,89.7132883 L148.401223,87.070127 C156.448062,98.5503639 160.021781,113.406204 160.021781,113.406204" id="Path" stroke="#A3ADEC" stroke-width="1.44" fill="none" stroke-linecap="round" stroke-linejoin="round"></path>
                    <path d="M111.478094,76.3223324 L109.886237,73.7826684 L106.646808,76.553211 C106.646808,76.553211 99.1889565,81.751959 96.4827992,83.9731699" id="Path" stroke="#A3ADEC" stroke-width="1.44" fill="none" stroke-linecap="round" stroke-linejoin="round"></path>
                    <path d="M108.40581,78.0499409 L106.654767,76.553211" id="Path" stroke="#A3ADEC" stroke-width="1.44" fill="none" stroke-linecap="round" stroke-linejoin="round"></path>
                    <polyline id="Path" stroke="#A3ADEC" stroke-width="1.44" fill="none" stroke-linecap="round" stroke-linejoin="round" points="141.166232 90.0317415 139.287841 85.3345572 146.809366 82.5162466 148.687758 87.2134309 141.166232 90.0317415"></polyline>
                </g>
            </g>
            <g id="Group-37" mask="url(#mask-2)">
                <g transform="translate(458.400000, -279.800000)" id="Group-2">
                    <g transform="translate(0.000000, 291.800000)">
                        <g id="Group-5" transform="translate(39.117180, 7.422058)">
                            <g id="Group-279" transform="translate(0.426681, 0.000000)">
                                <mask id="mask-5" fill="white">
                                    <use xlink:href="#path-4"></use>
                                </mask>
                                <g id="Clip-278"></g>
                                <polygon id="Fill-277" fill="#FFFFFF" mask="url(#mask-5)" points="16.1027182 16.8669072 -7.35368925 16.8669072 -7.35368925 -7.80340573 16.1027182 -7.80340573"></polygon>
                            </g>
                        </g>
                        <g id="Group-147">
                            <mask id="mask-7" fill="white">
                                <use xlink:href="#path-6"></use>
                            </mask>
                            <g id="Clip-146"></g>
                            <polygon id="Fill-145" fill="#FFFFFF" mask="url(#mask-7)" points="-4.89980012 -5.21704575 15.7412616 -5.21704575 15.7412616 16.8216518 -4.89980012 16.8216518"></polygon>
                        </g>
                        <path d="M20.6468059,22.4772022 C21.5239529,22.4772022 22.2350218,21.758389 22.2350218,20.8716877 C22.2350218,19.9849865 21.5239529,19.2661733 20.6468059,19.2661733 C19.7696583,19.2661733 19.0585901,19.9849865 19.0585901,20.8716877 C19.0585901,21.758389 19.7696583,22.4772022 20.6468059,22.4772022 Z" id="Stroke-148" stroke="#FFFFFF" stroke-width="1.90721533"></path>
                    </g>
                </g>
            </g>
        </g>
    </g>
</svg>