<svg xmlns="http://www.w3.org/2000/svg" width="48" height="48" viewBox="12 12 24 24">
    <g fill="none" fill-rule="evenodd">
        <path d="M0 0h48v48H0z"/>
        <path fill="#F25858" fill-rule="nonzero" d="M16.904 16.958C18.871 14.986 21.237 14 24 14s5.121.978 7.073 2.934C33.024 18.89 34 21.246 34 24c0 2.754-.976 5.11-2.927 7.066C29.12 33.022 26.763 34 24 34c-2.763 0-5.121-.978-7.073-2.934C14.976 29.11 14 26.754 14 24c0-2.754.968-5.102 2.904-7.042zm12.084 10.657L25.382 24l3.606-3.615-1.405-1.408-3.606 3.615-3.56-3.615-1.405 1.408L22.572 24l-3.56 3.615 1.405 1.408 3.56-3.615 3.606 3.615 1.405-1.408z"/>
    </g>
</svg>
