<?xml version="1.0" encoding="UTF-8"?>
<svg width="22px" height="22px" viewBox="0 0 22 22" version="1.1" xmlns="http://www.w3.org/2000/svg" xmlns:xlink="http://www.w3.org/1999/xlink">
    <!-- Generator: Sketch 44.1 (41455) - http://www.bohemiancoding.com/sketch -->
    <title>toolbar_volume_00</title>
    <desc>Created with Sketch.</desc>
    <defs></defs>
    <g id="Symbols" stroke="none" stroke-width="1" fill="none" fill-rule="evenodd">
        <g id="toolbar_volume_00" fill="#FFFFFF">
            <g id="volume" transform="translate(0.000000, 3.000000)">
                <g id="Group-3" transform="translate(0.000000, -0.000400)">
                    <path d="M10.4336,0.0986 C10.0856,-0.0674 9.6756,-0.0214 9.3746,0.2196 L4.6496,3.9996 L0.9996,3.9996 C0.4476,3.9996 -0.0004,4.4476 -0.0004,4.9996 L-0.0004,10.9996 C-0.0004,11.5526 0.4476,11.9996 0.9996,11.9996 L4.6496,11.9996 L9.3746,15.7806 C9.5556,15.9256 9.7776,15.9996 9.9996,15.9996 C10.1476,15.9996 10.2956,15.9676 10.4336,15.9016 C10.7796,15.7346 10.9996,15.3846 10.9996,14.9996 L10.9996,0.9996 C10.9996,0.6156 10.7796,0.2656 10.4336,0.0986" id="Fill-1"></path>
                </g>
            </g>
        </g>
    </g>
</svg>