<?xml version="1.0" encoding="UTF-8"?>
<svg width="26px" height="26px" viewBox="0 0 26 26" version="1.1" xmlns="http://www.w3.org/2000/svg" xmlns:xlink="http://www.w3.org/1999/xlink">
    <!-- Generator: Sketch 44.1 (41455) - http://www.bohemiancoding.com/sketch -->
    <title>toolbar_frame_ic</title>
    <desc>Created with Sketch.</desc>
    <defs></defs>
    <g id="Symbols" stroke="none" stroke-width="1" fill="none" fill-rule="evenodd">
        <g id="toolbar_frame_ic" fill="#FFFFFF">
            <g id="Page-1" transform="translate(0.000000, 2.000000)">
                <g id="Group-3" transform="translate(3.000000, 0.000000)">
                    <path d="M7.00671387,3.2512207 L11.3217139,4.1482207 L2.89971387,0.246220703 C2.83671387,0.217220703 2.77271387,0.195220703 2.70771387,0.180220703 C2.25571387,0.0752207031 1.77471387,0.297220703 1.57271387,0.733220703 L0.985713867,1.9992207 L1.99371387,2.2092207 L7.00671387,3.2512207 Z" id="Fill-1"></path>
                </g>
                <g id="Group-6" transform="translate(22.000000, 9.152400)">
                    <path d="M2.107,0.722215234 L1.898,1.72821523 L1.438,3.94221523 L0.54,8.25721523 L3.271,2.36421523 C3.502,1.86521523 3.283,1.26721523 2.784,1.03621523 L2.107,0.722215234 Z" id="Fill-4"></path>
                </g>
                <path d="M8.03830469,4.97265625 L12.9493047,4.97265625 L4.93930469,3.30665625 L3.93130469,3.09765625 L2.43930469,2.78665625 C2.37130469,2.77265625 2.30330469,2.76565625 2.23630469,2.76565625 C1.77330469,2.76565625 1.35430469,3.09165625 1.25630469,3.56265625 L0.963304687,4.97265625 L1.98730469,4.97265625 L8.03830469,4.97265625 Z" id="Fill-7"></path>
                <path d="M22.0027492,8.7263127 L22.0027492,13.6373127 L23.0457492,8.6213127 L23.2547492,7.6153127 L23.3087492,7.3593127 C23.4207492,6.8213127 23.0717492,6.2893127 22.5327492,6.1773127 L22.0007492,6.0663127 C22.0007492,6.06964603 22.0014159,6.39264603 22.0027492,7.0353127 L22.0027492,7.0883127 L22.0027492,8.7263127 Z" id="Fill-9"></path>
                <g id="Group-13" transform="translate(0.000000, 5.152400)">
                    <path d="M15.0126343,13.8474779 C14.7356343,13.8474779 14.5126343,13.6234779 14.5126343,13.3474779 C14.5126343,13.0714779 14.7356343,12.8474779 15.0126343,12.8474779 L18.0216675,12.8474779 C18.2976675,12.8474779 18.5216675,13.0714779 18.5216675,13.3474779 C18.5216675,13.6234779 18.2976675,13.8474779 18.0216675,13.8474779 L15.0126343,13.8474779 Z M10.0439,13.3328659 C10.0439,13.0738659 10.2539,12.8638659 10.5129,12.8638659 C10.7719,12.8638659 10.9819,13.0738659 10.9819,13.3328659 C10.9819,13.5918659 10.7719,13.8018659 10.5129,13.8018659 C10.2539,13.8018659 10.0439,13.5918659 10.0439,13.3328659 Z M3.03125586,13.8476 C2.75425586,13.8476 2.53125586,13.6236 2.53125586,13.3476 C2.53125586,13.0716 2.75425586,12.8476 3.03125586,12.8476 L6.0847168,12.8476 C6.3607168,12.8476 6.5847168,13.0716 6.5847168,13.3476 C6.5847168,13.6236 6.3607168,13.8476 6.0847168,13.8476 L3.03125586,13.8476 Z M20.0249,0.84498623 L17.8089,0.84498623 L17.2899,0.84498623 L15.4309,0.84498623 L13.3779,0.84498623 L8.4649,0.84498623 L5.2349,0.84498623 L4.3329,0.84498623 L4.1309,0.84498623 L3.3109,0.84498623 L2.2869,0.84498623 L1.2649,0.84498623 L0.9999,0.84498623 C0.4499,0.84498623 -0.0001,1.29498623 -0.0001,1.84498623 L-0.0001,4.56830312 L-0.0001,7.4146 L-0.0001,8.3626 L-0.0001,9.4956 L-0.0001,12.2466 L-0.0001,13.3626 L-0.0001,14.8588305 C-0.0001,15.4088305 0.505347656,15.8588305 1.05534766,15.8588305 L11.6313477,15.8588305 L14.0073477,15.8588305 L15.5443477,15.8588305 L16.3863477,15.8588305 L18.3523477,15.8588305 L19.4543477,15.8588305 L20.0803477,15.8588305 C20.1313477,15.8588305 20.1743477,15.8378305 20.2233477,15.8298305 C20.3693477,15.8078305 20.5003477,15.7568305 20.6193477,15.6788305 C20.9033477,15.4768305 21.0803477,15.1938305 21.0803477,14.8588305 L21.0249,12.4896 L21.0249,11.8636 L21.0249,10.1116 L21.0249,6.9526 L21.0249,4.02822061 L21.0249,3.30722061 L21.0249,3.08022061 L21.0249,2.64398623 L21.0249,2.33598623 L21.0249,1.84498623 C21.0249,1.76298623 20.9969,1.68898623 20.9779,1.61198623 C20.8699,1.17698623 20.4929,0.84498623 20.0249,0.84498623 Z" id="Fill-11"></path>
                </g>
            </g>
        </g>
    </g>
</svg>