<?xml version="1.0" encoding="UTF-8"?>
<svg width="22px" height="22px" viewBox="0 0 22 22" version="1.1" xmlns="http://www.w3.org/2000/svg" xmlns:xlink="http://www.w3.org/1999/xlink">
    <!-- Generator: Sketch 44.1 (41455) - http://www.bohemiancoding.com/sketch -->
    <title>toolbar_volume_02</title>
    <desc>Created with Sketch.</desc>
    <defs>
        <polygon id="path-1" points="0 16.9298 0 0.930701881 10.9996 0.930701881 10.9996 16.9298"></polygon>
    </defs>
    <g id="Symbols" stroke="none" stroke-width="1" fill="none" fill-rule="evenodd">
        <g id="toolbar_volume_02">
            <g id="volume" transform="translate(2.000000, 3.000000)" fill="#FFFFFF">
                <g id="Group-3" transform="translate(0.000000, -0.000400)">
                    <path d="M10.4336,0.0986 C10.0856,-0.0674 9.6756,-0.0214 9.3746,0.2196 L4.6496,3.9996 L0.9996,3.9996 C0.4476,3.9996 -0.0004,4.4476 -0.0004,4.9996 L-0.0004,10.9996 C-0.0004,11.5526 0.4476,11.9996 0.9996,11.9996 L4.6496,11.9996 L9.3746,15.7806 C9.5556,15.9256 9.7776,15.9996 9.9996,15.9996 C10.1476,15.9996 10.2956,15.9676 10.4336,15.9016 C10.7796,15.7346 10.9996,15.3846 10.9996,14.9996 L10.9996,0.9996 C10.9996,0.6156 10.7796,0.2656 10.4336,0.0986" id="Fill-1"></path>
                </g>
            </g>
            <g id="Page-1" transform="translate(0.000000, 2.000000)">
                <g id="Group-3" transform="translate(0.000000, 0.140000)">
                    <mask id="mask-2" fill="white">
                        <use xlink:href="#path-1"></use>
                    </mask>
                    <g id="Clip-2"></g>
                    <path d="M10.4336,1.0288 C10.0856,0.8638 9.6756,0.9088 9.3746,1.1498 L4.6496,4.9298 L0.9996,4.9298 C0.4476,4.9298 -0.0004,5.3778 -0.0004,5.9298 L-0.0004,11.9298 C-0.0004,12.4828 0.4476,12.9298 0.9996,12.9298 L4.6496,12.9298 L9.3746,16.7108 C9.5556,16.8558 9.7776,16.9298 9.9996,16.9298 C10.1476,16.9298 10.2956,16.8978 10.4336,16.8318 C10.7796,16.6648 10.9996,16.3148 10.9996,15.9298 L10.9996,1.9298 C10.9996,1.5458 10.7796,1.1958 10.4336,1.0288" id="Fill-1" fill="#FFFFFF" mask="url(#mask-2)"></path>
                </g>
                <path d="M14.54,13.6 C14.284,13.6 14.028,13.502 13.833,13.307 C13.442,12.917 13.442,12.284 13.833,11.893 C15.392,10.334 15.392,7.796 13.833,6.237 C13.442,5.847 13.442,5.213 13.833,4.823 C14.224,4.433 14.856,4.433 15.247,4.823 C17.586,7.162 17.586,10.968 15.247,13.307 C15.052,13.502 14.796,13.6 14.54,13.6 M18.07,17.14 C17.814,17.14 17.559,17.042 17.363,16.847 C16.973,16.457 16.973,15.824 17.363,15.433 C20.87,11.925 20.87,6.216 17.363,2.707 C16.973,2.316 16.973,1.683 17.363,1.292 C17.754,0.903 18.387,0.902 18.777,1.293 C23.064,5.581 23.063,12.559 18.777,16.847 C18.582,17.042 18.326,17.14 18.07,17.14" id="Fill-4" fill="#FFFFFF"></path>
            </g>
        </g>
    </g>
</svg>