<?xml version="1.0" encoding="UTF-8"?>
<svg width="22px" height="22px" viewBox="0 0 22 22" version="1.1" xmlns="http://www.w3.org/2000/svg" xmlns:xlink="http://www.w3.org/1999/xlink">
    <!-- Generator: Sketch 44.1 (41455) - http://www.bohemiancoding.com/sketch -->
    <title>toolbar_view_ic01</title>
    <desc>Created with Sketch.</desc>
    <defs></defs>
    <g id="Symbols" stroke="none" stroke-width="1" fill="none" fill-rule="evenodd">
        <g id="toolbar_view_ic01" stroke="#FFFFFF">
            <path d="M14.5,14.5 L14.5,19.5 L15.5,19.5 L15.5,15.5 L19.5,15.5 L19.5,14.5 L14.5,14.5 Z" id="Combined-Shape"></path>
            <path d="M2.5,14.5 L2.5,19.5 L3.5,19.5 L3.5,15.5 L7.5,15.5 L7.5,14.5 L2.5,14.5 Z" id="Combined-Shape" transform="translate(5.000000, 17.000000) rotate(-270.000000) translate(-5.000000, -17.000000) "></path>
            <path d="M14.5,2.5 L14.5,7.5 L15.5,7.5 L15.5,3.5 L19.5,3.5 L19.5,2.5 L14.5,2.5 Z" id="Combined-Shape" transform="translate(17.000000, 5.000000) scale(1, -1) translate(-17.000000, -5.000000) "></path>
            <path d="M2.5,2.5 L2.5,7.5 L3.5,7.5 L3.5,3.5 L7.5,3.5 L7.5,2.5 L2.5,2.5 Z" id="Combined-Shape" transform="translate(5.000000, 5.000000) scale(1, -1) rotate(-270.000000) translate(-5.000000, -5.000000) "></path>
        </g>
    </g>
</svg>