<?xml version="1.0" encoding="UTF-8"?>
<svg width="22px" height="22px" viewBox="0 0 22 22" version="1.1" xmlns="http://www.w3.org/2000/svg" xmlns:xlink="http://www.w3.org/1999/xlink">
    <!-- Generator: Sketch 44.1 (41455) - http://www.bohemiancoding.com/sketch -->
    <title>toolbar_volume_04</title>
    <desc>Created with Sketch.</desc>
    <defs>
        <polygon id="path-1" points="8 8 8 -0.00025 -0.00015 -0.00025 -0.00015 8 8 8"></polygon>
    </defs>
    <g id="Symbols" stroke="none" stroke-width="1" fill="none" fill-rule="evenodd">
        <g id="toolbar_volume_04">
            <g id="Page-1" transform="translate(0.000000, 3.000000)">
                <g id="Group-3" transform="translate(0.000000, -0.000300)" fill="#FFFFFF">
                    <path d="M10.4336,0.0986 C10.0856,-0.0674 9.6756,-0.0214 9.3746,0.2196 L4.6496,3.9996 L0.9996,3.9996 C0.4476,3.9996 -0.0004,4.4476 -0.0004,4.9996 L-0.0004,10.9996 C-0.0004,11.5526 0.4476,11.9996 0.9996,11.9996 L4.6496,11.9996 L9.3746,15.7806 C9.5556,15.9256 9.7776,15.9996 9.9996,15.9996 C10.1476,15.9996 10.2956,15.9676 10.4336,15.9016 C10.7796,15.7346 10.9996,15.3846 10.9996,14.9996 L10.9996,0.9996 C10.9996,0.6156 10.7796,0.2656 10.4336,0.0986" id="Fill-1"></path>
                </g>
                <g id="Group-6" transform="translate(14.000000, 4.000000)">
                    <mask id="mask-2" fill="white">
                        <use xlink:href="#path-1"></use>
                    </mask>
                    <g id="Clip-5"></g>
                    <path d="M5.4141,4 L7.7071,1.707 C8.0981,1.316 8.0981,0.684 7.7071,0.293 C7.3161,-0.098 6.6841,-0.098 6.2931,0.293 L4.0001,2.586 L1.7071,0.293 C1.3161,-0.098 0.6841,-0.098 0.2931,0.293 C-0.0979,0.684 -0.0979,1.316 0.2931,1.707 L2.5861,4 L0.2931,6.293 C-0.0979,6.684 -0.0979,7.316 0.2931,7.707 C0.4881,7.902 0.7441,8 1.0001,8 C1.2561,8 1.5121,7.902 1.7071,7.707 L4.0001,5.414 L6.2931,7.707 C6.4881,7.902 6.7441,8 7.0001,8 C7.2561,8 7.5121,7.902 7.7071,7.707 C8.0981,7.316 8.0981,6.684 7.7071,6.293 L5.4141,4 Z" id="Fill-4" fill="#FFFFFF" mask="url(#mask-2)"></path>
                </g>
            </g>
        </g>
    </g>
</svg>