<?xml version="1.0" encoding="UTF-8"?>
<svg width="22px" height="22px" viewBox="0 0 22 22" version="1.1" xmlns="http://www.w3.org/2000/svg" xmlns:xlink="http://www.w3.org/1999/xlink">
    <!-- Generator: Sketch 44.1 (41455) - http://www.bohemiancoding.com/sketch -->
    <title>toolbar_settings</title>
    <desc>Created with Sketch.</desc>
    <defs></defs>
    <g id="Symbols" stroke="none" stroke-width="1" fill="none" fill-rule="evenodd">
        <g id="toolbar_settings" fill="#FFFFFF">
            <g id="Setting" transform="translate(1.000000, 1.000000)">
                <path d="M9.80556655,12.9747368 C8.04010025,12.9747368 6.60387812,11.5421053 6.60387812,9.78 C6.60387812,8.01894737 8.04010025,6.58736842 9.80556655,6.58736842 C11.5710328,6.58736842 13.0083102,8.01894737 13.0083102,9.78 C13.0083102,11.5421053 11.5710328,12.9747368 9.80556655,12.9747368 M17.8277272,8.00210526 L17.6768236,8.00210526 C17.0900937,8 16.5614035,7.65052632 16.3302994,7.11263158 L16.3302994,7.04210526 C16.0875874,6.49368421 16.2047223,5.85263158 16.6247197,5.42315789 L16.6785385,5.37052632 L16.6795937,5.36842105 C17.3750165,4.67368421 17.3750165,3.54842105 16.6785385,2.85368421 C16.6774832,2.85368421 16.6774832,2.85263158 16.6764279,2.85263158 C15.9799499,2.15894737 14.8518665,2.15894737 14.1553885,2.85368421 L14.102625,2.90736842 C13.6720749,3.32631579 13.0294156,3.44315789 12.4796201,3.20105263 C11.9414325,2.97052632 11.591083,2.44315789 11.5889724,1.85789474 L11.5889724,1.77789474 C11.5889724,0.795789474 10.7901332,0 9.80556655,0 C8.82099987,0 8.02321593,0.795789474 8.02321593,1.77789474 L8.02321593,1.92947368 C8.0211054,2.51368421 7.67075584,3.04105263 7.13151299,3.27157895 L7.05975465,3.27157895 C6.50995911,3.51368421 5.86729983,3.39789474 5.43780504,2.97894737 L5.38398628,2.92526316 C5.38398628,2.92421053 5.38398628,2.92421053 5.38293101,2.92421053 C4.68645297,2.22947368 3.55731434,2.23052632 2.86189157,2.92526316 L2.8608363,2.92631579 C2.16435826,3.62105263 2.16541353,4.74736842 2.86189157,5.44105263 L2.91571033,5.49473684 C3.33570769,5.92315789 3.45178736,6.56421053 3.20907532,7.11263158 C3.00118718,7.67894737 2.46722068,8.05894737 1.86360638,8.07368421 L1.78340588,8.07368421 C0.798839203,8.07368421 0,8.86947368 0,9.85157895 C0,10.8336842 0.798839203,11.6294737 1.78340588,11.6294737 L1.93536473,11.6294737 C2.52103944,11.6326316 3.04972959,11.9821053 3.28083366,12.5189474 C3.52354571,13.0673684 3.40746603,13.7084211 2.9864134,14.1368421 L2.93364991,14.1905263 C2.93259464,14.1915789 2.93259464,14.1915789 2.93153937,14.1915789 C2.23611661,14.8873684 2.23611661,16.0126316 2.93364991,16.7073684 C2.93364991,16.7073684 2.93364991,16.7084211 2.93470518,16.7084211 C3.63118322,17.4021053 4.76032186,17.4021053 5.45574462,16.7073684 L5.50956338,16.6536842 C5.93905817,16.2347368 6.58171745,16.1178947 7.13151299,16.36 C7.69819285,16.5684211 8.0802005,17.1010526 8.09391901,17.7031579 L8.09391901,17.7831579 C8.09391901,18.7652632 8.89275821,19.5610526 9.87732489,19.5610526 C10.8618916,19.5610526 11.6596755,18.7652632 11.6596755,17.7831579 L11.6596755,17.6315789 C11.661786,17.0473684 12.0121356,16.5189474 12.5513784,16.2894737 C13.101174,16.0473684 13.7438333,16.1631579 14.1733281,16.5821053 L14.2271468,16.6357895 C14.2271468,16.6368421 14.2282021,16.6368421 14.2282021,16.6368421 C14.9246801,17.3315789 16.0538188,17.3305263 16.7492415,16.6357895 C16.7502968,16.6357895 16.7502968,16.6347368 16.7513521,16.6347368 C17.4467748,15.94 17.4457196,14.8136842 16.7492415,14.12 L16.696478,14.0663158 C16.2754254,13.6378947 16.1593457,12.9968421 16.4020578,12.4484211 C16.6331619,11.9105263 17.161852,11.5610526 17.7475267,11.5589474 L17.8277272,11.5589474 C18.8122939,11.5589474 19.6111331,10.7621053 19.6111331,9.78105263 C19.6111331,8.79789474 18.8122939,8.00210526 17.8277272,8.00210526" id="Fill-1"></path>
            </g>
        </g>
    </g>
</svg>