<svg width="160" height="160" viewBox="0 0 160 160" fill="none" xmlns="http://www.w3.org/2000/svg">
    <path opacity=".19" d="M80.5 133c28.995 0 52.5-23.505 52.5-52.5S109.495 28 80.5 28 28 51.505 28 80.5 51.505 133 80.5 133z" fill="#EEBD57"/>
    <path d="M80.5 116c19.606 0 35.5-15.894 35.5-35.5S100.106 45 80.5 45 45 60.894 45 80.5 60.894 116 80.5 116z" fill="#EEBD57"/>
    <path d="M79.381 85.263h5.238l1.322-17.597.254-7.666h-8.39l.254 7.666 1.322 17.597zM82.025 99c2.543 0 4.475-1.904 4.475-4.58 0-2.675-1.932-4.527-4.475-4.527-2.593 0-4.525 1.852-4.525 4.528 0 2.675 1.881 4.579 4.525 4.579z" fill="#926E23" fill-opacity=".5"/>
    <path d="M77.881 85.263h5.238l1.322-17.597.254-7.666h-8.39l.254 7.666 1.322 17.597zM80.525 99C83.068 99 85 97.096 85 94.42c0-2.675-1.932-4.527-4.475-4.527-2.593 0-4.525 1.852-4.525 4.528C76 97.096 77.881 99 80.525 99z" fill="#fff"/>
</svg>
