<svg width="160" height="160" viewBox="0 0 160 160" fill="none" xmlns="http://www.w3.org/2000/svg">
    <path opacity=".19" d="M80.5 133c28.995 0 52.5-23.505 52.5-52.5S109.495 28 80.5 28 28 51.505 28 80.5 51.505 133 80.5 133z" fill="#8EB259"/>
    <path d="M80.5 116c19.606 0 35.5-15.894 35.5-35.5S100.106 45 80.5 45 45 60.894 45 80.5 60.894 116 80.5 116z" fill="#8EB259"/>
    <path fill-rule="evenodd" clip-rule="evenodd" d="m131.885 32.215.107.204a22.727 22.727 0 0 0 4.585 6.022.217.217 0 0 1 0 .316 22.73 22.73 0 0 0-4.585 6.022l-.107.205a.216.216 0 0 1-.383 0l-.107-.205a22.708 22.708 0 0 0-4.585-6.022.217.217 0 0 1 0-.316 22.706 22.706 0 0 0 4.585-6.022l.107-.204a.216.216 0 0 1 .383 0z" fill="#F7BA3E"/>
    <path fill-rule="evenodd" clip-rule="evenodd" d="m19.917 110.14.102.195a21.704 21.704 0 0 0 4.384 5.757.207.207 0 0 1 0 .302 21.725 21.725 0 0 0-4.384 5.758l-.102.195a.207.207 0 0 1-.366 0l-.103-.195a21.699 21.699 0 0 0-4.383-5.758.207.207 0 0 1 0-.302 21.678 21.678 0 0 0 4.383-5.757l.103-.195a.206.206 0 0 1 .366 0zM143.862 19.079l.073.138c.8 1.525 1.85 2.905 3.107 4.08a.146.146 0 0 1 0 .215 15.379 15.379 0 0 0-3.107 4.082l-.073.138a.147.147 0 0 1-.26 0l-.072-.138a15.379 15.379 0 0 0-3.107-4.082.146.146 0 0 1 0-.214 15.358 15.358 0 0 0 3.107-4.081l.072-.138a.147.147 0 0 1 .26 0z" fill="#FFE9A3"/>
    <path opacity=".378" d="M99.356 69.855 103 73.46 77.187 99l-14-13.852 3.644-3.605L77.186 91.79l22.17-21.935z" fill="#4C6614"/>
    <path d="m98.17 68 3.643 3.605L76 97.145 62 83.293l3.644-3.605L76 89.935 98.17 68z" fill="#fff"/>
</svg>
