<svg width="197" height="90" viewBox="0 0 197 90" xmlns="http://www.w3.org/2000/svg" xmlns:xlink="http://www.w3.org/1999/xlink">
    <defs>
        <path id="a" d="M0 0h4.86v4.289H0z"/>
        <path id="c" d="M0 0h11.882v12.331H0z"/>
        <path id="e" d="M0 0h24.304v40.746H0z"/>
    </defs>
    <g fill="none" fill-rule="evenodd">
        <path d="m192.39 15.06.005.026a3.264 3.264 0 0 1-3.583 3.943 3.264 3.264 0 0 0-3.583 3.943l.011.05a3.264 3.264 0 0 1-3.583 3.944 3.264 3.264 0 0 0-3.583 3.943l.011.051a3.264 3.264 0 0 1-3.583 3.943 4.5 4.5 0 0 0-5.024 4.03l-.197 2.018h0" stroke="#EFEFEF" stroke-width="1.888" stroke-linecap="round"/>
        <rect stroke="#494949" stroke-width="5.035" fill="#FFF" x="43.712" y="11.958" width="114.675" height="64.825" rx="6.294"/>
        <path d="M41.818 21.084c0-2.868 1.163-5.464 3.042-7.343a10.352 10.352 0 0 1 7.343-3.042h97.063c2.868 0 5.464 1.163 7.343 3.042a10.352 10.352 0 0 1 3.042 7.343v47.203c0 2.867-1.163 5.463-3.042 7.343a10.352 10.352 0 0 1-7.343 3.041H52.203a10.352 10.352 0 0 1-7.343-3.041 10.352 10.352 0 0 1-3.042-7.343z" stroke="#B8B8B8" stroke-width=".629"/>
        <g transform="rotate(-90 51.761 8.993)">
            <path d="m32.45 3.776-.348 1.394a3.147 3.147 0 0 1-3.053 2.382H4.347A3.147 3.147 0 0 1 1.294 5.17L.945 3.776A3.038 3.038 0 0 1 3.893 0h25.61a3.038 3.038 0 0 1 2.948 3.776z" fill="#494949"/>
            <circle fill-opacity=".5" fill="#FFF" opacity=".304" cx="10.504" cy="2.428" r="1"/>
            <rect fill-opacity=".5" fill="#FFF" opacity=".304" x="15.082" y="1.618" width="8.618" height="1.618" rx=".809"/>
        </g>
        <path stroke="#586AF2" stroke-width=".944" stroke-linecap="round" stroke-linejoin="round" stroke-dasharray="2.517482562498613,2.517482562498613" d="M59.102 64.51h90.826"/>
        <path stroke="#586AF2" stroke-width="1.259" stroke-linecap="round" stroke-linejoin="round" d="m59.718 56.834 3.446 3.442M63.164 56.834l-3.446 3.442"/>
        <g transform="translate(142.007 68.555)">
            <mask id="b" fill="#fff">
                <use xlink:href="#a"/>
            </mask>
            <path d="M.91 0 .012 3.695c-.063.26.105.52.374.581a.516.516 0 0 0 .192.007l4.282-.647L.909 0z" fill="#ABABAB" mask="url(#b)"/>
        </g>
        <path d="m166.334 46.949 3.41 3.489a1.217 1.217 0 0 1-.032 1.736l-.007.007-21.11 19.79a1.254 1.254 0 0 1-1.75-.038l-3.41-3.49a1.217 1.217 0 0 1 .032-1.736l.007-.007 21.11-19.79a1.254 1.254 0 0 1 1.75.039z" fill="#586AF2"/>
        <path stroke="#FFF" stroke-width=".836" d="m162.53 48.718 4.862 5.36"/>
        <path d="M176.562 35.822c-.407 1.14-.413 3.175-1.969 3.57-1.555.394-.223 1.742.56 1.89.554.106-.601 2.151-.721 2.396-.678 1.386-.016 2.155.894 2.42.91.264 1.91.73 1.91.73l.045 6.715 8.474-2.91s-1.084-4.948-2.035-6.722c.228-1.155 1.832-2.313 1.837-4.306.007-2.743-1.953-4.846-4.124-5.25-2.17-.404-4.465.328-4.871 1.467" fill="#EFC0B4"/>
        <g transform="translate(174.413 32.098)">
            <mask id="d" fill="#fff">
                <use xlink:href="#c"/>
            </mask>
            <path d="M10.473 4.725c.059-.07 1.065-1.667-2.438-2.564S3.887 1.316 3.183.773C2.479.23 1.999-.262 1.208.157.417.577-.307 1.515.134 2.77.576 4.025 1.686 4.59 2.641 4.96c.955.368 2.998.837 3.375.677.377-.16.686.695.427.946-.26.251-.798.866-.898 1.251-.1.385.838 1.225.838 1.225.24-.102.327-.413 1.215-.651.84-.225 1.232.4 1.251 1.004.019.604-.18 1.666-1.015 2.029.02.809 1.543.891 1.543.891s-.18-.383.138-.91c.318-.525 1.645-1.483 2.052-2.882.407-1.398.475-2.363-.13-3.1-.604-.736-.964-.714-.964-.714" fill="#492119" mask="url(#d)"/>
        </g>
        <g transform="translate(170.632 45.501)">
            <mask id="f" fill="#fff">
                <use xlink:href="#e"/>
            </mask>
            <path d="M14.585 0s4.313 1.14 7.423 17.242c1.6 8.29 2.296 23.074 2.296 23.074l-22.723.43c-.669-2.96-2.525-6.72-.987-19.811.631-5.377 1.706-10.001 3.508-14.177l2.006-3.202L14.585 0z" fill="#EFEFEF" mask="url(#f)"/>
        </g>
        <path d="m174.413 51.399-1.556 3.008-1.49 5.028a162.165 162.165 0 0 0-3.976 23.595l4.4-21.077 2.622-10.554z" fill="#F43D3D"/>
        <path d="M186.295 48.182c-3.522.665-11.817 5.985-11.882 6.97" stroke="#D3D3D3" stroke-width="1.037" stroke-linecap="round" stroke-linejoin="round"/>
        <path d="M147.752 63.975c.596-1.128 2.859.624 2.859.624s-2.263-1.752-1.104-2.3c.373-.175 1.671.81 2.374 1.379.264.23.462.384.462.384s-.186-.161-.462-.384c-.628-.549-1.627-1.533-1.215-1.926.943-.901 4.227 2.107 4.961 2.802l.149.143s-.037-.076-.08-.207l1.378-1.297 5.457 8.467-2.924 2.792s-4.76-3.55-8.135-5.985c-1.563-1.127-2.83-2.016-3.19-2.204-1.136-.59-.985-1.015-.551-1.149.613-.19 2.284.613 2.284.613s-2.529-1.247-2.263-1.752" fill="#F2B5A0"/>
        <path d="M188.455 64.802c-1.071 2.233-4.009 13.894-13.091 17.824-5.014 2.17-8.668-4.794-11.213-5.011 2.202 4.697 5.104 10.169 11.066 12.156 9.075 3.026 13.238-24.97 13.238-24.97" fill="#DDD"/>
        <path d="M154.97 72.163c2.41-2.875 4.464-5.576 4.631-5.472 7.403 4.546 12.608 8.534 14.602 10.56.428-2.986.84-2.966 2.735-12.486 1.17-5.883 2.346-10.475 6.036-10.672 3.796-.204 6.947 1.883 6.523 8.478-.846 13.155-8.707 29.284-15.681 26.597-5.893-2.27-18.99-16.832-18.845-17.005" fill="#EFEFEF"/>
        <path d="M183.595 54.128s-4.309-1.112-6.066 7.245c-1.757 8.358-3.415 15.76-3.415 15.76s-3.642-2.77-7.263-5.455" stroke="#D3D3D3" stroke-width="1.037" stroke-linecap="round" stroke-linejoin="round"/>
        <g stroke="#000" stroke-linecap="round" stroke-linejoin="round" stroke-width=".944">
            <path d="M57.71 43.431c-2.874-3.206-2.694-5.52.538-6.946 4.849-2.137 20.203-.267 24.782 1.336 3.053 1.069 4.759 1.692 5.118 1.87"/>
            <path d="M71.986 37.02c-3.053 3.561-5.118 6.767-6.196 9.617-1.616 4.274 4.04 1.602 5.388-.535"/>
            <path d="M79.259 34.615c-3.592 2.85-5.837 5.254-6.734 7.213-.898 1.96-1.886 4.363-2.964 7.213 1.617-3.384 3.233-5.076 4.85-5.076 2.423 0-.809 4.542.807 4.274 1.078-.178 2.652-.943 4.723-2.295"/>
            <path d="M85.454 44.767c-1.077-.713-2.334-.713-3.771 0-2.155 1.068-3.771 3.472-1.347 3.472s4.04-1.87 4.58-2.67c.359-.535.897-1.248 1.616-2.138-1.796 3.74-1.796 5.343 0 4.808 1.795-.534 3.86-1.959 6.195-4.274l-1.616 3.74c1.616-3.027 2.963-4.274 4.04-3.74 1.617.802-1.077 3.74.808 3.74 1.258 0 3.143-.712 5.657-2.137"/>
            <path d="M110.505 34.615c-1.975.713-4.04 2.76-6.195 6.145-2.155 3.383-3.412 5.877-3.771 7.48 2.334-3.384 4.13-4.63 5.387-3.74 1.257.89.18 1.335-3.232 1.335.18 2.137 1.436 2.939 3.77 2.404 2.335-.534 4.31-1.602 5.927-3.205M121.55 43.431c-2.156 2.493-2.694 4.007-1.617 4.541 1.078.535 3.143-.98 6.196-4.541-1.796 4.452-3.861 8.281-6.196 11.487-3.502 4.808-9.966 7.48-9.966 3.74s7.811-9.083 14.007-9.083c4.13 0 6.824.267 8.08.802"/>
            <path d="M132.055 42.897c-3.233 1.603-4.49 3.116-3.771 4.541 1.077 2.137 4.579-.801 4.579-2.137 0-1.336-.808-2.137-.808-1.069 0 1.069.808 1.603 2.155 1.603 1.346 0 3.501-1.603 3.501-1.603s-2.693 3.473-.808 3.74c1.257.178 3.053-1.335 5.388-4.541-1.796 3.028-1.796 4.541 0 4.541 1.795 0 3.591-.89 5.387-2.671"/>
        </g>
        <g transform="translate(135.706 4.406)">
            <ellipse fill="#8EB259" cx="13.547" cy="13.531" rx="13.547" ry="13.531"/>
            <path stroke="#FFF" stroke-width="1.888" stroke-linecap="round" stroke-linejoin="round" d="m19.688 10.58-7.477 7.468-3.9-3.896"/>
        </g>
        <ellipse fill="#F2A55A" cx="176.033" cy="10.07" rx="2.52" ry="2.517"/>
        <ellipse fill="#D8DEF9" cx="34.887" cy="3.147" rx="3.151" ry="3.147"/>
        <path fill="#C557E3" d="m27.906 14.698 3.434 3.43-3.434 3.429-3.433-3.43z"/>
        <path d="m4.61 15.06-.005.026a3.264 3.264 0 0 0 3.583 3.943 3.264 3.264 0 0 1 3.583 3.943l-.011.05a3.264 3.264 0 0 0 3.583 3.944 3.264 3.264 0 0 1 3.583 3.943l-.011.051a3.264 3.264 0 0 0 3.583 3.943 4.5 4.5 0 0 1 5.024 4.03l.197 2.018h0" stroke="#EFEFEF" stroke-width="1.888" stroke-linecap="round"/>
    </g>
</svg>
