<svg xmlns="http://www.w3.org/2000/svg" xmlns:xlink="http://www.w3.org/1999/xlink" width="251" height="219" viewBox="0 0 251 219">
    <defs>
        <path id="a" d="M2.737 0h136.592a2.731 2.731 0 0 1 2.736 2.726V199.96a2.731 2.731 0 0 1-2.736 2.726H2.737A2.731 2.731 0 0 1 0 199.96V2.726A2.731 2.731 0 0 1 2.737 0z"/>
        <path id="c" d="M22.135 5.658v.946c0 2.351 1.931 4.257 4.313 4.257h32.104c2.382 0 4.313-1.906 4.313-4.257v-.946c0-.523.429-.946.958-.946h8.146c3.97 0 7.187 3.176 7.187 7.095V154.67c0 3.919-3.218 7.096-7.187 7.096H13.03c-3.97 0-7.187-3.177-7.187-7.096V11.807c0-3.919 3.218-7.095 7.187-7.095h8.146c.53 0 .958.423.958.946z"/>
    </defs>
    <g fill="none" fill-rule="evenodd">
        <g transform="translate(93)">
            <path fill="#494949" d="M10.948 0h136.104C153.098 0 158 4.88 158 10.9v197.2c0 6.02-4.902 10.9-10.948 10.9H10.948C4.902 219 0 214.12 0 208.1V10.9C0 4.88 4.902 0 10.948 0z"/>
            <path fill="#494949" d="M147.052 218.106H10.948a10.04 10.04 0 0 1-7.107-2.93A9.954 9.954 0 0 1 .898 208.1V10.9A9.954 9.954 0 0 1 3.84 3.825 10.04 10.04 0 0 1 10.948.894h136.104a10.04 10.04 0 0 1 7.107 2.93 9.954 9.954 0 0 1 2.943 7.076v197.2a9.954 9.954 0 0 1-2.943 7.075 10.04 10.04 0 0 1-7.107 2.931z"/>
            <ellipse cx="79.112" cy="4.358" fill="#FFF" rx="1" ry="1"/>
            <g transform="translate(8.08 7.821)">
                <mask id="b" fill="#fff">
                    <use xlink:href="#a"/>
                </mask>
                <use fill="#FFF" xlink:href="#a"/>
                <path fill="#B5B5B5" d="M0 19.889h142.065v157.099H0z" mask="url(#b)" transform="matrix(1 0 0 -1 0 196.877)"/>
                <g mask="url(#b)">
                    <path fill="#FFF" d="M9.202 23.464h123.662v149.948H9.202z"/>
                    <g fill-rule="nonzero">
                        <path fill="#94D3F2" d="M46.423 105.573h-9.11c-.844 0-1.533-.663-1.533-1.475v-8.767c0-.811.69-1.475 1.532-1.475h9.111c.843 0 1.532.664 1.532 1.475v8.767c0 .812-.69 1.475-1.532 1.475zM46.423 86.988h-9.11c-.844 0-1.533-.663-1.533-1.474v-8.768c0-.811.69-1.474 1.532-1.474h9.111c.843 0 1.532.663 1.532 1.474v8.768c0 .81-.69 1.474-1.532 1.474z" opacity=".5"/>
                        <path fill="#94D357" d="M110.679 126.582H70.457c-.992 0-1.804-.802-1.804-1.782v-15.021c0-.98.812-1.782 1.804-1.782h40.222c.992 0 1.804.802 1.804 1.782v15.02c0 .981-.812 1.783-1.804 1.783z" opacity=".5"/>
                        <g fill="#A8B2FF" transform="translate(34.787 32.85)">
                            <ellipse cx="4.788" cy="4.771" rx="4.623" ry="4.682"/>
                            <path d="M75.933 8.718H14.828c-1.138 0-2.069-.943-2.069-2.096V2.92c0-1.152.931-2.095 2.07-2.095h61.104c1.138 0 2.069.943 2.069 2.095v3.703c0 1.153-.931 2.096-2.07 2.096z"/>
                        </g>
                        <path fill="#EF95CF" d="M110.54 55.475H36.912c-.624 0-1.131-.49-1.131-1.093v-1.45c0-.604.507-1.093 1.131-1.093h73.63c.624 0 1.13.49 1.13 1.093v1.45c0 .603-.505 1.093-1.13 1.093z"/>
                        <path fill="#B7B7B7" d="M111.679 131.026h-4.884a.806.806 0 0 1-.805-.808c0-.446.36-.808.805-.808h4.884c.444 0 .804.362.804.808 0 .446-.36.808-.804.808zM103.156 131.026h-4.884a.806.806 0 0 1-.805-.808c0-.446.36-.808.805-.808h4.884c.444 0 .805.362.805.808 0 .446-.36.808-.805.808zM95.04 131.026h-4.885a.806.806 0 0 1-.804-.808c0-.446.36-.808.804-.808h4.884c.445 0 .805.362.805.808 0 .446-.36.808-.805.808zM86.517 131.026h-4.884a.806.806 0 0 1-.805-.808c0-.446.36-.808.805-.808h4.884c.444 0 .804.362.804.808 0 .446-.36.808-.804.808zM78.4 131.026h-4.884a.806.806 0 0 1-.805-.808c0-.446.36-.808.805-.808H78.4c.444 0 .805.362.805.808 0 .446-.36.808-.805.808zM69.877 131.026h-4.884a.806.806 0 0 1-.804-.808c0-.446.36-.808.804-.808h4.884c.445 0 .805.362.805.808 0 .446-.36.808-.805.808zM61.355 131.026H56.47a.806.806 0 0 1-.805-.808c0-.446.36-.808.805-.808h4.884c.444 0 .804.362.804.808 0 .446-.36.808-.804.808zM63.594 120.724l2.453-2.443a.58.58 0 0 0 0-.821.585.585 0 0 0-.825 0l-2.454 2.442-2.453-2.442a.585.585 0 0 0-.825 0 .58.58 0 0 0 0 .821l2.453 2.443-2.453 2.442a.58.58 0 0 0 0 .822.585.585 0 0 0 .825 0l2.453-2.443 2.454 2.443a.585.585 0 0 0 .825 0 .58.58 0 0 0 0-.822l-2.453-2.442z"/>
                        <path fill="#DDD" d="M110.493 165.367H36.959a1.176 1.176 0 0 1-1.179-1.173v-2.502c0-.648.528-1.173 1.179-1.173h73.534c.65 0 1.179.525 1.179 1.173v2.502c0 .648-.529 1.173-1.18 1.173zM110.493 154.863H36.959a1.176 1.176 0 0 1-1.179-1.173v-2.502c0-.648.528-1.173 1.179-1.173h73.534c.65 0 1.179.525 1.179 1.173v2.502c0 .648-.529 1.173-1.18 1.173zM108.88 83.756H54.805a1.167 1.167 0 0 1-1.168-1.166v-2.516c0-.644.523-1.166 1.168-1.166h54.075c.645 0 1.168.522 1.168 1.166v2.516c0 .644-.523 1.166-1.168 1.166zM99.076 101.533H54.87c-.68 0-1.232-.549-1.232-1.226V97.91c0-.677.551-1.225 1.232-1.225h44.207c.68 0 1.232.548 1.232 1.225v2.397c0 .677-.551 1.226-1.232 1.226z"/>
                        <path fill="#B7B7B7" d="M44.9 87.392h-6.47a3.052 3.052 0 0 1-3.056-3.041v-6.442a3.052 3.052 0 0 1 3.055-3.041H44.9a3.052 3.052 0 0 1 3.055 3.041v6.442a3.052 3.052 0 0 1-3.055 3.041zM38.43 75.95a1.965 1.965 0 0 0-1.968 1.959v6.441c0 1.08.883 1.959 1.967 1.959H44.9a1.965 1.965 0 0 0 1.967-1.959V77.91c0-1.08-.882-1.959-1.967-1.959h-6.47zM44.9 105.977h-6.47a3.052 3.052 0 0 1-3.056-3.041v-6.442a3.052 3.052 0 0 1 3.055-3.042H44.9a3.052 3.052 0 0 1 3.055 3.042v6.442a3.052 3.052 0 0 1-3.055 3.041zm-6.47-11.442a1.965 1.965 0 0 0-1.968 1.958v6.442c0 1.08.883 1.958 1.967 1.958H44.9a1.965 1.965 0 0 0 1.967-1.958v-6.442c0-1.08-.882-1.958-1.967-1.958h-6.47z"/>
                        <path fill="#000" d="M73.258 125.37a.549.549 0 0 1-.518-.723c.014-.042 1.404-4.202 3.198-8.327 3.357-7.72 5.161-8.677 6.227-8.726.763-.031 1.443.458 2.028 1.464 1.278 2.194 2.053 7.012 1.865 10.825.09.031.177.067.26.108.045-1.509.491-3.353 2.27-4.024.723-.272 1.204-.045 1.48.194.276.24.465.621.588 1.09.154-.224.324-.392.511-.487.327-.167.688-.146 1.018.058 1.22.758.92 2.092.703 3.066-.13.58-.265 1.181-.064 1.452.124.167.374.44.653.388.286-.055.687-.46.954-1.438.104-.383.262-.961.774-1.002.484-.036.686.407.88.84.331.734.683 1.394 1.344 1.394 1.954 0 9.557-.068 9.633-.07h.005a.548.548 0 0 1 .005 1.099c-.077 0-7.683.069-9.643.069-1.13 0-1.74-.84-2.103-1.543-.488 1.313-1.224 1.65-1.646 1.73-.63.12-1.26-.176-1.731-.81-.502-.675-.302-1.565-.127-2.35.233-1.04.29-1.568-.197-1.88-.258.191-.55 1.047-.804 2.237-.098 1.678-.43 3.352-.546 3.897a.544.544 0 0 1-.613.428.548.548 0 0 1-.465-.586c.073-.936.232-2.51.539-3.937.075-1.392-.025-2.504-.381-2.813-.034-.03-.115-.1-.383.002-1.785.673-1.63 3.347-1.482 4.465.091.335.094.59.094.612 0 .28-.211.516-.488.546a.549.549 0 0 1-.592-.43 7.336 7.336 0 0 1-.088-.513 1.19 1.19 0 0 0-.45-.625c-.15 1.351-.445 2.503-.911 3.256-.582.94-1.298 1.094-1.8 1.058-2.353-.17-2.715-1.409-2.76-1.933-.126-1.436 1.4-3.019 3.404-3.529a5.14 5.14 0 0 1 1.066-.164c.154-3.49-.49-8.025-1.714-10.126-.205-.353-.612-.948-1.037-.922-2.106.096-6.202 9.592-8.438 16.304a.546.546 0 0 1-.518.376zm11.627-4.526c-.22.016-.46.058-.718.123-1.563.398-2.654 1.578-2.585 2.368.065.733 1.247.898 1.752.935.189.013.474-.028.792-.543.384-.618.632-1.645.76-2.883z"/>
                        <path fill="#EA0000" d="M40.12 102.745a.693.693 0 0 1-.602-.35l-2.835-4.982a.698.698 0 0 1 .258-.95.692.692 0 0 1 .947.259l2.36 4.149 6.5-7.19a.691.691 0 0 1 .98-.048c.283.26.305.7.047.984l-7.141 7.9a.693.693 0 0 1-.514.228z"/>
                    </g>
                </g>
                <path fill="#1F2E4E" d="M0 176.988h142.065v10.727H0z" mask="url(#b)"/>
                <rect width="23.341" height="2.905" x="6.284" y="11.844" fill="#D8D8D8" mask="url(#b)" rx="1.453"/>
                <rect width="15.261" height="2.905" x="118.051" y="11.173" fill="#1F2E4E" mask="url(#b)" rx="1.453"/>
            </g>
        </g>
        <g transform="translate(0 52)">
            <path fill="#494949" d="M71.073 0C78.5 0 84.52 5.93 84.52 13.246V38.32c.265 0 .48.212.48.473v18.45a.477.477 0 0 1-.48.474v96.037c0 7.315-6.02 13.246-13.447 13.246H13.927C6.5 167 .48 161.07.48 153.754V61.5a.477.477 0 0 1-.48-.473v-10.88c0-.262.215-.474.48-.474v-3.311A.477.477 0 0 1 0 45.89V35.008c0-.26.215-.473.48-.473v-5.677a.477.477 0 0 1-.48-.473v-5.204c0-.261.215-.473.48-.473v-9.462C.48 5.931 6.5 0 13.927 0h57.146z"/>
            <path fill="#494949" d="M71.073 1.42a12.06 12.06 0 0 1 8.49 3.463c2.172 2.14 3.516 5.097 3.516 8.363v140.508c0 3.266-1.344 6.222-3.516 8.363a12.06 12.06 0 0 1-8.49 3.464H13.927a12.06 12.06 0 0 1-8.49-3.464c-2.172-2.14-3.516-5.097-3.516-8.363V13.246c0-3.266 1.344-6.222 3.516-8.363a12.06 12.06 0 0 1 8.49-3.464h57.146z"/>
            <path fill="#FFF" d="M51.864 7.57a.953.953 0 0 1-.96-.947c0-.522.43-.946.96-.946s.96.424.96.946c0 .523-.43.946-.96.946zM37.938 6.15h9.124c.265 0 .48.212.48.473a.477.477 0 0 1-.48.473h-9.124a.477.477 0 0 1-.48-.473c0-.261.215-.473.48-.473z"/>
            <mask id="d" fill="#fff">
                <use xlink:href="#c"/>
            </mask>
            <use fill="#FFF" xlink:href="#c"/>
            <path fill="#B5B5B5" d="M5.844 30.102h73.313v108.105H5.844z" mask="url(#d)"/>
            <path fill="#1F2E4E" d="M5.844 138.207h73.313v8.376H5.844z" mask="url(#d)"/>
            <rect width="31.078" height="1.571" x="27.094" y="157.053" fill="#292929" rx=".785"/>
            <rect width="18.063" height="3.403" x="10.359" y="24.605" fill="#D8D8D8" rx="1.701"/>
            <rect width="12.484" height="3.403" x="63.219" y="23.82" fill="#1F2E4E" rx="1.701"/>
            <path fill="#FFF" d="M10.359 36.646h65.344v97.111H10.359z"/>
            <g fill-rule="nonzero">
                <path fill="#94D3F2" d="M26.888 89.782h-5.963c-.552 0-1.003-.43-1.003-.955v-5.68c0-.526.451-.956 1.003-.956h5.963c.551 0 1.003.43 1.003.956v5.68c0 .525-.452.955-1.003.955zM26.888 77.741h-5.963c-.552 0-1.003-.43-1.003-.955v-5.68c0-.526.451-.956 1.003-.956h5.963c.551 0 1.003.43 1.003.956v5.68c0 .526-.452.955-1.003.955z" opacity=".5"/>
                <path fill="#94D357" d="M68.944 103.393H42.618c-.65 0-1.18-.519-1.18-1.154v-9.732c0-.635.53-1.154 1.18-1.154h26.326c.65 0 1.181.52 1.181 1.154v9.732c0 .635-.531 1.154-1.181 1.154z" opacity=".5"/>
                <g fill="#A8B2FF" transform="translate(19.125 42.666)">
                    <ellipse cx="3.281" cy="3.091" rx="3.026" ry="3.034"/>
                    <path d="M49.846 5.648H9.852a1.36 1.36 0 0 1-1.354-1.357v-2.4c0-.746.61-1.357 1.354-1.357h39.994c.744 0 1.354.61 1.354 1.357v2.4a1.36 1.36 0 0 1-1.354 1.357z"/>
                </g>
                <path fill="#EF95CF" d="M68.853 57.324h-48.19c-.41 0-.741-.317-.741-.708v-.94c0-.39.331-.707.74-.707h48.191c.41 0 .74.317.74.708v.94c0 .39-.33.707-.74.707z"/>
                <path fill="#B7B7B7" d="M69.598 106.273h-3.196a.525.525 0 0 1-.527-.524c0-.289.236-.523.527-.523h3.196c.291 0 .527.234.527.523 0 .29-.236.524-.527.524zM64.02 106.273h-3.196a.525.525 0 0 1-.527-.524c0-.289.236-.523.527-.523h3.196c.291 0 .527.234.527.523 0 .29-.236.524-.527.524zM58.708 106.273H55.51a.525.525 0 0 1-.527-.524c0-.289.236-.523.527-.523h3.197c.29 0 .526.234.526.523 0 .29-.235.524-.526.524zM53.13 106.273h-3.197a.525.525 0 0 1-.527-.524c0-.289.236-.523.527-.523h3.197c.29 0 .526.234.526.523 0 .29-.235.524-.526.524zM47.817 106.273H44.62a.525.525 0 0 1-.526-.524c0-.289.236-.523.526-.523h3.197c.29 0 .527.234.527.523 0 .29-.236.524-.527.524zM42.239 106.273h-3.197a.525.525 0 0 1-.526-.524c0-.289.235-.523.526-.523h3.197c.29 0 .527.234.527.523 0 .29-.236.524-.527.524zM36.66 106.273h-3.196a.525.525 0 0 1-.527-.524c0-.289.236-.523.527-.523h3.197c.29 0 .526.234.526.523 0 .29-.235.524-.526.524zM38.126 99.598l1.606-1.582a.373.373 0 0 0 0-.533.386.386 0 0 0-.54 0l-1.606 1.583-1.606-1.583a.386.386 0 0 0-.54 0 .373.373 0 0 0 0 .533l1.606 1.582-1.606 1.582a.373.373 0 0 0 0 .533c.15.147.391.147.54 0l1.606-1.583 1.606 1.583c.149.147.39.147.54 0a.373.373 0 0 0 0-.533l-1.606-1.582z"/>
                <path fill="#DDD" d="M68.822 128.522H20.693a.766.766 0 0 1-.771-.76v-1.621c0-.42.345-.76.771-.76h48.13c.425 0 .77.34.77.76v1.621c0 .42-.345.76-.77.76zM68.822 121.716H20.693a.766.766 0 0 1-.771-.76v-1.62c0-.42.345-.76.771-.76h48.13c.425 0 .77.34.77.76v1.62c0 .42-.345.76-.77.76zM67.767 75.647H32.374a.76.76 0 0 1-.765-.755v-1.63a.76.76 0 0 1 .765-.756h35.392a.76.76 0 0 1 .765.756v1.63a.76.76 0 0 1-.764.755zM61.35 87.165H32.416a.8.8 0 0 1-.807-.794v-1.554a.8.8 0 0 1 .807-.793H61.35a.8.8 0 0 1 .806.793v1.554a.8.8 0 0 1-.806.794z"/>
                <path fill="#B7B7B7" d="M25.891 78.003h-4.235c-1.103 0-2-.884-2-1.97v-4.174c0-1.086.897-1.97 2-1.97h4.235c1.103 0 2 .884 2 1.97v4.174c0 1.086-.897 1.97-2 1.97zm-4.235-7.413c-.71 0-1.288.57-1.288 1.269v4.173c0 .7.578 1.27 1.288 1.27h4.235c.71 0 1.288-.57 1.288-1.27V71.86c0-.7-.578-1.269-1.288-1.269h-4.235zM25.891 90.044h-4.235c-1.103 0-2-.884-2-1.97V83.9c0-1.087.897-1.97 2-1.97h4.235c1.103 0 2 .883 2 1.97v4.173c0 1.087-.897 1.97-2 1.97zm-4.235-7.413c-.71 0-1.288.57-1.288 1.269v4.173c0 .7.578 1.269 1.288 1.269h4.235c.71 0 1.288-.57 1.288-1.269V83.9c0-.7-.578-1.27-1.288-1.27h-4.235z"/>
                <path fill="#000" d="M44.451 102.608a.358.358 0 0 1-.339-.468c.01-.027.92-2.722 2.094-5.395 2.197-5.002 3.378-5.622 4.075-5.653.5-.02.945.296 1.328.948.836 1.421 1.343 4.543 1.22 7.014.06.02.116.043.17.07.03-.978.322-2.173 1.486-2.608.474-.176.788-.029.969.126.18.155.304.402.385.706a.949.949 0 0 1 .334-.315.663.663 0 0 1 .666.038c.8.49.603 1.355.46 1.985-.085.377-.173.766-.041.941.081.109.245.286.427.252.187-.036.45-.299.624-.932.069-.248.172-.623.507-.65.317-.022.45.265.576.545.217.476.447.903.88.903 1.279 0 6.255-.044 6.305-.045h.003a.357.357 0 0 1 .003.711c-.05.001-5.029.045-6.312.045-.74 0-1.138-.544-1.376-1-.319.852-.8 1.07-1.077 1.122-.412.077-.824-.114-1.133-.525-.328-.437-.198-1.014-.083-1.522.153-.674.19-1.016-.129-1.219-.169.124-.36.679-.526 1.45a18.204 18.204 0 0 1-.358 2.524.356.356 0 0 1-.4.278.356.356 0 0 1-.305-.38c.048-.606.151-1.626.352-2.55.05-.903-.015-1.623-.25-1.823-.021-.02-.074-.065-.25.001-1.168.436-1.067 2.168-.97 2.893.06.217.062.383.062.397a.359.359 0 0 1-.707.075 4.709 4.709 0 0 1-.058-.333.77.77 0 0 0-.293-.405c-.099.876-.292 1.622-.597 2.11-.381.609-.85.71-1.178.686-1.54-.111-1.777-.913-1.807-1.253-.082-.93.917-1.956 2.228-2.286.25-.063.482-.098.698-.107.1-2.26-.32-5.199-1.122-6.56-.134-.229-.4-.614-.679-.597-1.378.062-4.059 6.214-5.522 10.563a.357.357 0 0 1-.34.243zm7.61-2.932c-.143.01-.3.037-.47.08-1.023.258-1.736 1.022-1.691 1.534.042.475.816.582 1.146.605.124.01.31-.018.519-.351.25-.4.413-1.066.497-1.868z"/>
                <path fill="#EA0000" d="M22.763 87.95a.454.454 0 0 1-.394-.227l-1.856-3.228a.45.45 0 0 1 .169-.615.456.456 0 0 1 .62.167l1.545 2.689 4.254-4.659a.456.456 0 0 1 .64-.03.45.45 0 0 1 .032.637l-4.674 5.118a.456.456 0 0 1-.336.148z"/>
            </g>
        </g>
    </g>
</svg>
